<svg xmlns="http://www.w3.org/2000/svg" width="59.815" height="60" viewBox="0 0 59.815 60">
  <g id="bank_insurance_protection_shield_building_finance" data-name="bank, insurance, protection, shield, building, finance" transform="translate(0.035 0.372)">
    <rect id="Прямоугольник_222" data-name="Прямоугольник 222" width="26.149" height="28.016" transform="translate(16.797 22.273)" fill="#7190c4"/>
    <path id="Контур_691" data-name="Контур 691" d="M77.452,36v1.245a2.49,2.49,0,0,1-2.49,2.49H67.49A2.49,2.49,0,0,1,65,37.245V36Z" transform="translate(-24.545 -13.727)" fill="#b8c0ce"/>
    <path id="Контур_692" data-name="Контур 692" d="M78.961,36v1.245a2.49,2.49,0,0,1-2.49,2.49H71.49A2.49,2.49,0,0,1,69,37.245V36Z" transform="translate(-26.055 -13.727)" fill="#ccd1dc"/>
    <path id="Контур_693" data-name="Контур 693" d="M77.981,36v1.245a2.49,2.49,0,0,1-2.49,2.49H73a2.49,2.49,0,0,0,2.49-2.49V36Z" transform="translate(-27.564 -13.727)" fill="#dee1e7"/>
    <path id="Контур_694" data-name="Контур 694" d="M77.452,78.736V77.49A2.49,2.49,0,0,0,74.961,75H67.49A2.49,2.49,0,0,0,65,77.49v1.245Z" transform="translate(-24.545 -28.446)" fill="#b8c0ce"/>
    <path id="Контур_695" data-name="Контур 695" d="M78.961,78.736V77.49A2.49,2.49,0,0,0,76.471,75H71.49A2.49,2.49,0,0,0,69,77.49v1.245Z" transform="translate(-26.055 -28.446)" fill="#ccd1dc"/>
    <path id="Контур_696" data-name="Контур 696" d="M77.981,78.736V77.49A2.49,2.49,0,0,0,75.49,75H73a2.49,2.49,0,0,1,2.49,2.49v1.245Z" transform="translate(-27.564 -28.446)" fill="#dee1e7"/>
    <rect id="Прямоугольник_223" data-name="Прямоугольник 223" width="7.471" height="20.545" transform="translate(42.945 26.008)" fill="#ccd1dc"/>
    <path id="Контур_697" data-name="Контур 697" d="M73.245,45H77.6V63.055H73.245A1.245,1.245,0,0,1,72,61.81V46.245A1.245,1.245,0,0,1,73.245,45Z" transform="translate(-27.187 -17.124)" fill="#dee1e7"/>
    <rect id="Прямоугольник_224" data-name="Прямоугольник 224" width="1.245" height="16.187" rx="0.623" transform="translate(47.303 28.499)" fill="#b8c0ce"/>
    <rect id="Прямоугольник_225" data-name="Прямоугольник 225" width="1.245" height="16.187" rx="0.623" transform="translate(44.813 28.499)" fill="#b8c0ce"/>
    <path id="Контур_698" data-name="Контур 698" d="M23.452,36v1.245a2.49,2.49,0,0,1-2.49,2.49H13.49A2.49,2.49,0,0,1,11,37.245V36Z" transform="translate(-4.165 -13.727)" fill="#b8c0ce"/>
    <path id="Контур_699" data-name="Контур 699" d="M24.961,36v1.245a2.49,2.49,0,0,1-2.49,2.49H17.49A2.49,2.49,0,0,1,15,37.245V36Z" transform="translate(-5.674 -13.727)" fill="#ccd1dc"/>
    <path id="Контур_700" data-name="Контур 700" d="M23.981,36v1.245a2.49,2.49,0,0,1-2.49,2.49H19a2.49,2.49,0,0,0,2.49-2.49V36Z" transform="translate(-7.184 -13.727)" fill="#dee1e7"/>
    <path id="Контур_701" data-name="Контур 701" d="M23.452,78.736V77.49A2.49,2.49,0,0,0,20.961,75H13.49A2.49,2.49,0,0,0,11,77.49v1.245Z" transform="translate(-4.165 -28.446)" fill="#b8c0ce"/>
    <path id="Контур_702" data-name="Контур 702" d="M24.961,78.736V77.49A2.49,2.49,0,0,0,22.471,75H17.49A2.49,2.49,0,0,0,15,77.49v1.245Z" transform="translate(-5.674 -28.446)" fill="#ccd1dc"/>
    <path id="Контур_703" data-name="Контур 703" d="M23.981,78.736V77.49A2.49,2.49,0,0,0,21.49,75H19a2.49,2.49,0,0,1,2.49,2.49v1.245Z" transform="translate(-7.184 -28.446)" fill="#dee1e7"/>
    <rect id="Прямоугольник_226" data-name="Прямоугольник 226" width="7.471" height="20.545" transform="translate(9.326 26.008)" fill="#ccd1dc"/>
    <path id="Контур_704" data-name="Контур 704" d="M19.245,45H23.6V63.055H19.245A1.245,1.245,0,0,1,18,61.81V46.245A1.245,1.245,0,0,1,19.245,45Z" transform="translate(-6.807 -17.124)" fill="#dee1e7"/>
    <rect id="Прямоугольник_227" data-name="Прямоугольник 227" width="58.523" height="4.358" transform="translate(0.609 54.647)" fill="#b8c0ce"/>
    <path id="Контур_705" data-name="Контур 705" d="M3,88H60.278v2.49H5.49A2.49,2.49,0,0,1,3,88Z" transform="translate(-1.145 -33.353)" fill="#ccd1dc"/>
    <rect id="Прямоугольник_228" data-name="Прямоугольник 228" width="51.052" height="4.358" transform="translate(4.345 50.289)" fill="#b8c0ce"/>
    <path id="Контур_706" data-name="Контур 706" d="M9,81H58.807v2.49H11.49A2.49,2.49,0,0,1,9,81Z" transform="translate(-3.41 -30.711)" fill="#ccd1dc"/>
    <rect id="Прямоугольник_229" data-name="Прямоугольник 229" width="51.052" height="3.736" transform="translate(4.345 18.537)" fill="#ccd1dc"/>
    <rect id="Прямоугольник_230" data-name="Прямоугольник 230" width="51.052" height="1.868" transform="translate(4.345 20.405)" fill="#b8c0ce"/>
    <path id="Контур_707" data-name="Контур 707" d="M59.523,18.912H1l2.988-1.868L30.262.62l.623.392L56.535,17.044Z" transform="translate(-0.391 -0.374)" fill="#b8c0ce"/>
    <path id="Контур_708" data-name="Контур 708" d="M62.858,17.282H20.241a2.49,2.49,0,0,1-1.32-4.6L37.207,1.25Z" transform="translate(-6.713 -0.612)" fill="#ccd1dc"/>
    <circle id="Эллипс_23" data-name="Эллипс 23" cx="4.358" cy="4.358" r="4.358" transform="translate(25.513 6.085)" fill="#f6b756"/>
    <circle id="Эллипс_24" data-name="Эллипс 24" cx="2.49" cy="2.49" r="2.49" transform="translate(27.381 7.953)" fill="#fac77d"/>
    <path id="Контур_709" data-name="Контур 709" d="M67.674,18.127a.623.623,0,0,1-.33-.093L53.822,9.591a.624.624,0,0,1,.66-1.058L68,16.975a.623.623,0,0,1-.33,1.152Z" transform="translate(-20.215 -3.325)" fill="#dee1e7"/>
    <path id="Контур_710" data-name="Контур 710" d="M41.961,63.036h0A12.788,12.788,0,0,1,32,50.715V42.447h3.929A8.654,8.654,0,0,0,41.961,40h0a8.673,8.673,0,0,0,6.033,2.49h3.929v8.224A12.788,12.788,0,0,1,41.961,63.036Z" transform="translate(-12.09 -15.237)" fill="#dd8b37"/>
    <path id="Контур_711" data-name="Контур 711" d="M43.094,62.564A10.889,10.889,0,0,1,35,52.2V45.8h2.061a10.677,10.677,0,0,0,6.033-1.868,10.628,10.628,0,0,0,6.033,1.911h2.061V52.2a10.889,10.889,0,0,1-8.094,10.366Z" transform="translate(-13.223 -16.72)" fill="#e69c4b"/>
    <path id="Контур_712" data-name="Контур 712" d="M43.848,62.154A9.619,9.619,0,0,1,37,53.089V47.934h.816a11.767,11.767,0,0,0,6.033-1.644,11.891,11.891,0,0,0,6.033,1.687H50.7v5.136A9.619,9.619,0,0,1,43.848,62.154Z" transform="translate(-13.977 -17.611)" fill="#f6b756"/>
    <path id="Контур_713" data-name="Контур 713" d="M44.981,61.454A7.7,7.7,0,0,1,40,54.376V51.045A13.653,13.653,0,0,0,44.981,49.7a13.66,13.66,0,0,0,4.981,1.363v3.312A7.7,7.7,0,0,1,44.981,61.454Z" transform="translate(-15.11 -18.898)" fill="#fac77d"/>
    <path id="Контур_714" data-name="Контур 714" d="M48,49.7a13.66,13.66,0,0,0,4.981,1.363v3.312A7.7,7.7,0,0,1,48,61.454Z" transform="translate(-18.129 -18.898)" fill="#ffd69e"/>
    <path id="Контур_715" data-name="Контур 715" d="M41.584,63.279a.623.623,0,0,1-.149,0A13.411,13.411,0,0,1,31,50.335V42.042a.623.623,0,0,1,.623-.623h3.929a8.05,8.05,0,0,0,5.6-2.248.623.623,0,0,1,.872,0,8.094,8.094,0,0,0,5.6,2.272h3.916a.623.623,0,0,1,.623.623v8.268A13.411,13.411,0,0,1,41.733,63.279a.622.622,0,0,1-.149,0ZM32.245,42.665v7.67a12.165,12.165,0,0,0,9.339,11.7,12.165,12.165,0,0,0,9.339-11.7V42.69H47.617a9.339,9.339,0,0,1-6.033-2.229,9.382,9.382,0,0,1-6.033,2.2Z" transform="translate(-11.713 -14.857)" fill="#39426a"/>
    <path id="Контур_716" data-name="Контур 716" d="M43.471,62.412a.7.7,0,0,1-.193,0A10.254,10.254,0,0,1,36,52.706V47.538a.623.623,0,0,1,.623-.623h.816a11.207,11.207,0,0,0,5.722-1.556.623.623,0,0,1,.623,0,11.207,11.207,0,0,0,5.709,1.581h.828a.623.623,0,0,1,.623.623v5.149a10.254,10.254,0,0,1-7.278,9.669.7.7,0,0,1-.193.031ZM37.245,48.161v4.545a9,9,0,0,0,6.226,8.424A9,9,0,0,0,49.7,52.706V48.18H49.5a12.452,12.452,0,0,1-6.033-1.569,12.452,12.452,0,0,1-6.039,1.55Z" transform="translate(-13.6 -17.228)" fill="#39426a"/>
    <path id="Контур_717" data-name="Контур 717" d="M59.133,54.025H56.02V50.289a.623.623,0,0,0-.623-.623H53.529v-.623a3.113,3.113,0,0,0-2.491-3.051V26.569a3.113,3.113,0,0,0,2.49-3.051V22.9H55.4a.623.623,0,0,0,.623-.623V19.16h3.113a.624.624,0,0,0,.355-1.152L30.2-.277a.623.623,0,0,0-.66,0L.279,18.008a.615.615,0,0,0,.33,1.152H3.722v3.113a.623.623,0,0,0,.623.623H6.213v.623A3.113,3.113,0,0,0,8.7,26.569V45.993a3.113,3.113,0,0,0-2.49,3.051v.623H4.345a.623.623,0,0,0-.623.623v3.736H.609a.623.623,0,0,0-.623.623v4.358a.623.623,0,0,0,.623.623H59.133a.623.623,0,0,0,.623-.623V54.647A.623.623,0,0,0,59.133,54.025Zm-6.848-4.981v.623H41.078v-.623a1.868,1.868,0,0,1,1.868-1.868h7.471A1.868,1.868,0,0,1,52.284,49.044Zm-32.375.623v-.623a3.113,3.113,0,0,0-2.491-3.051V26.569a3.113,3.113,0,0,0,2.49-3.051V22.9H39.832v.623a3.113,3.113,0,0,0,2.491,3.051V45.993a3.113,3.113,0,0,0-2.49,3.051v.623ZM9.948,26.631h6.226v19.3H9.948Zm39.846,19.3H43.568v-19.3h6.226Zm2.49-22.413a1.868,1.868,0,0,1-1.868,1.868H42.945a1.868,1.868,0,0,1-1.868-1.868V22.9H52.284ZM29.871.98,56.96,17.915H2.795ZM4.968,19.16H54.775v2.49H4.968Zm2.49,4.358V22.9H18.664v.623A1.868,1.868,0,0,1,16.8,25.386H9.326A1.868,1.868,0,0,1,7.458,23.518Zm0,25.526a1.868,1.868,0,0,1,1.868-1.868H16.8a1.868,1.868,0,0,1,1.868,1.868v.623H7.458Zm-2.49,1.868H54.775v3.113H4.968ZM58.51,58.383H1.232V55.27H58.51Z" transform="translate(0 0)" fill="#39426a"/>
    <path id="Контур_718" data-name="Контур 718" d="M44.981,18.961A4.981,4.981,0,1,0,40,13.981,4.981,4.981,0,0,0,44.981,18.961Zm0-8.716a3.736,3.736,0,1,1-3.736,3.736A3.736,3.736,0,0,1,44.981,10.245Z" transform="translate(-15.11 -3.537)" fill="#39426a"/>
    <rect id="Прямоугольник_231" data-name="Прямоугольник 231" width="1.245" height="16.187" rx="0.623" transform="translate(13.684 28.499)" fill="#b8c0ce"/>
    <rect id="Прямоугольник_232" data-name="Прямоугольник 232" width="1.245" height="16.187" rx="0.623" transform="translate(11.193 28.499)" fill="#b8c0ce"/>
  </g>
</svg>
