<svg xmlns="http://www.w3.org/2000/svg" width="56.175" height="56" viewBox="0 0 56.175 56">
  <g id="Сгруппировать_183" data-name="Сгруппировать 183" transform="translate(-1449.1 -332)">
    <path id="Контур_516" data-name="Контур 516" d="M339.131,202.336h7.591a1.2,1.2,0,0,0,1.168-1.168A1.171,1.171,0,0,0,346.723,200H294.168A1.2,1.2,0,0,0,293,201.168a1.171,1.171,0,0,0,1.168,1.168h44.964Z" transform="translate(1156.625 163.533)" fill="#f3f4f5"/>
    <path id="Контур_517" data-name="Контур 517" d="M347.387,204v4.672a14.007,14.007,0,0,1-14.015,14.015H310.015A14.056,14.056,0,0,1,296,208.672V204Z" transform="translate(1155.377 161.869)" fill="#ccd1dc"/>
    <path id="Контур_518" data-name="Контур 518" d="M348.635,204v4.672a13.979,13.979,0,0,1-5.372,11.036,13.784,13.784,0,0,1-6.891,1.81H313.015A14.056,14.056,0,0,1,299,207.5V204Z" transform="translate(1154.129 161.869)" fill="#dee1e7"/>
    <g id="Сгруппировать_27" data-name="Сгруппировать 27" transform="translate(1455.887 373.473)">
      <path id="Контур_519" data-name="Контур 519" d="M338.337,225.185H314.98a12.187,12.187,0,0,1-11.212-7.358.575.575,0,0,1,1.051-.467,11.127,11.127,0,0,0,10.161,6.657h23.358a.584.584,0,0,1,0,1.168Z" transform="translate(-303.723 -217.023)" fill="#f3f4f5"/>
    </g>
    <path id="Контур_520" data-name="Контур 520" d="M320.679,164.5v1.752H309V164.5a3.659,3.659,0,0,1,2.044-3.212A4.066,4.066,0,0,1,312.5,161h4.672A3.514,3.514,0,0,1,320.679,164.5Z" transform="translate(1149.969 179.759)" fill="#b8c0ce"/>
    <path id="Контур_521" data-name="Контур 521" d="M321.927,164.5h-8.175A1.721,1.721,0,0,1,312,162.752h0a4.066,4.066,0,0,1,.292-1.46,4.066,4.066,0,0,1,1.46-.292h4.672A3.514,3.514,0,0,1,321.927,164.5Z" transform="translate(1148.72 179.759)" fill="#dee1e7"/>
    <path id="Контур_522" data-name="Контур 522" d="M296,154.3v23.65h2.336V154.3a4.959,4.959,0,0,1,4.964-4.964h0a4.959,4.959,0,0,1,4.964,4.964v.876H310.6V154.3a7.3,7.3,0,0,0-7.3-7.3h0A7.3,7.3,0,0,0,296,154.3Z" transform="translate(1155.377 185.584)" fill="#f6b756"/>
    <path id="Контур_523" data-name="Контур 523" d="M306.336,193.5v3.8H304v-2.92Z" transform="translate(1152.049 166.237)" fill="#f6b756"/>
    <g id="Сгруппировать_28" data-name="Сгруппировать 28" transform="translate(1457.791 383.504)">
      <path id="Контур_524" data-name="Контур 524" d="M312.424,235.076l-3.328,2.8a1.4,1.4,0,0,1-.818.292,1.317,1.317,0,0,1-.818-2.336l1.927-1.635" transform="translate(-306.983 -234.2)" fill="#b8c0ce"/>
      <path id="Контур_525" data-name="Контур 525" d="M366.736,234.3l1.927,1.635a1.321,1.321,0,0,1-.818,2.336,1.4,1.4,0,0,1-.818-.292l-3.328-2.8" transform="translate(-330.581 -234.242)" fill="#b8c0ce"/>
    </g>
    <path id="Контур_526" data-name="Контур 526" d="M345.5,198.752H342a1.59,1.59,0,0,1,.526-1.226,1.946,1.946,0,0,1,1.226-.526,1.59,1.59,0,0,1,1.226.526A1.946,1.946,0,0,1,345.5,198.752Z" transform="translate(1136.239 164.781)" fill="#b8c0ce"/>
    <path id="Контур_527" data-name="Контур 527" d="M360.766,198.752v14.015H346.752V198.752a1.59,1.59,0,0,0-.526-1.226A1.946,1.946,0,0,0,345,197h14.015a1.59,1.59,0,0,1,1.226.526A1.946,1.946,0,0,1,360.766,198.752Z" transform="translate(1134.991 164.781)" fill="#7190c4"/>
    <path id="Контур_528" data-name="Контур 528" d="M363.263,198.752v12.263H351V197h10.511a1.59,1.59,0,0,1,1.226.526A1.946,1.946,0,0,1,363.263,198.752Z" transform="translate(1132.494 164.781)" fill="#89a3ce"/>
    <rect id="Прямоугольник_176" data-name="Прямоугольник 176" width="13.949" height="1.993" transform="translate(1481.88 372.158)" fill="#77cacb"/>
    <path id="Контур_684" data-name="Контур 684" d="M346.348,176.949h-7.066a2.336,2.336,0,0,0-.584-1.051,2.306,2.306,0,0,0-1.635-.7H323.049a.215.215,0,0,0-.175.058,2.374,2.374,0,0,0-1.46.642,1.9,1.9,0,0,0-.584,1.051H301.969v-2.8l1.985-.759a.591.591,0,0,0-.409-1.109l-2.336.876-2.336.876c-.058,0-.117.058-.175.117a.057.057,0,0,1-.058.058c-.058.058-.058.058-.058.117v.058c0,.058-.058.117-.058.175v.058h0v2.336h-1.168V153.883a4.38,4.38,0,0,1,8.759,0v.292h-.584a4.062,4.062,0,0,0-4.088,4.088v1.168a.584.584,0,1,0,0,1.168H314.29a.584.584,0,1,0,0-1.168v-1.168a4.062,4.062,0,0,0-4.088-4.088h-.584v-.292a7.883,7.883,0,0,0-15.766,0v23.066a1.59,1.59,0,0,0-1.226.526,1.681,1.681,0,0,0-.526,1.226,1.721,1.721,0,0,0,1.752,1.752v4.088a14.56,14.56,0,0,0,8.292,13.139l-1.226.993a1.92,1.92,0,0,0-.584,2.1,1.911,1.911,0,0,0,3.036.759l3.153-2.628c.642.058,1.285.117,1.985.117h23.358c.642,0,1.343-.058,1.985-.117l3.153,2.628a1.911,1.911,0,0,0,3.037-.759,1.829,1.829,0,0,0-.584-2.1l-1.226-.993a14.56,14.56,0,0,0,8.292-13.139v-4.088a1.59,1.59,0,0,0,1.226-.526,1.681,1.681,0,0,0,.526-1.226A2,2,0,0,0,346.348,176.949Zm-21.022,9.927h12.847v1.168H325.326Zm0,2.336h12.847v1.752H325.326Zm11.679-12.847a1.2,1.2,0,0,1,1.168,1.168v8.175H325.326v-8.175a.994.994,0,0,0-.058-.409v-.117a.83.83,0,0,0-.117-.35h0c-.058-.117-.058-.175-.117-.292Zm-14.832.35a1.129,1.129,0,0,1,1.635,0,.806.806,0,0,1,.175.234h-2.044C322.056,176.89,322.115,176.774,322.173,176.715Zm-22.54-1.693,1.168-.467v2.394h-1.168Zm13.431-16.759v1.168H302.553v-1.168a2.891,2.891,0,0,1,2.92-2.92h4.672A2.891,2.891,0,0,1,313.064,158.263Zm-18.1-4.38a6.715,6.715,0,0,1,13.431,0v.292h-1.168v-.292a5.547,5.547,0,1,0-11.095,0v23.066h-1.168ZM293.209,178.7a.6.6,0,0,1,.584-.584h30.365v1.168H293.793A.552.552,0,0,1,293.209,178.7Zm9.343,22.015a.663.663,0,0,1-.467.175.754.754,0,0,1-.7-.467.728.728,0,0,1,.234-.818l1.693-1.4c.526.175,1.109.35,1.635.526Zm35.971-1.109a.849.849,0,0,1,.234.818.754.754,0,0,1-.7.467.663.663,0,0,1-.467-.175l-2.394-1.985a7.643,7.643,0,0,0,1.635-.526Zm6.657-15.066a13.433,13.433,0,0,1-13.431,13.431H308.392a13.433,13.433,0,0,1-13.431-13.431v-4.088h29.2v11.095a.552.552,0,0,0,.584.584h14.015a.552.552,0,0,0,.584-.584V180.453h5.839Zm1.577-5.431a.53.53,0,0,1-.409.175h-7.007v-1.168h7.007a.552.552,0,0,1,.584.584A.53.53,0,0,1,346.757,179.109Z" transform="translate(1157 186)" fill="#39426a"/>
  </g>
</svg>
