<?xml version="1.0" encoding="utf-8"?>
<!-- Generator: Adobe Illustrator 24.2.1, SVG Export Plug-In . SVG Version: 6.00 Build 0)  -->
<svg version="1.1" id="&#x421;&#x43B;&#x43E;&#x439;_1" xmlns="http://www.w3.org/2000/svg" xmlns:xlink="http://www.w3.org/1999/xlink" x="0px" y="0px" viewBox="0 0 40.3 40.3" xml:space="preserve">

<path class="st0" d="M39.9,21.1c-0.3-1-1.2-1.6-2.3-1.6l-0.1,0l0-0.1c-0.2-1.3-0.9-2.4-2-3.1c-1-0.7-2.3-1-3.6-0.8
	c-0.4,0.1-0.9,0.2-1.3,0.4l-0.1,0.1l-0.1-0.1c-0.5-1.2-1.5-2.1-2.7-2.6c-1.2-0.5-2.5-0.4-3.7,0.1c-1.2,0.5-2.2,1.6-2.6,2.9l0,0.1
	l-0.1,0c-1.8,0.2-3.4,1.5-4,3.2l0,0.1H3.3V4.3c0-1.5,1.2-2.6,2.6-2.6c0,0,0,0,0,0c1.5,0,2.6,1.2,2.7,2.6l0,0.2l-0.1,0
	C6.4,5,5.2,7.1,5.3,8.4c0,0.3,0.2,0.8,0.7,0.8h6.7c0.5,0,0.7-0.5,0.7-0.8c0.1-1.3-1.1-3.4-3.2-3.9l-0.1,0l0-0.1
	c0-1.1-0.4-2.1-1.1-2.9C8.1,0.8,7.1,0.3,6.1,0.3L6,0.3c-2.2,0-4,1.8-4,4v15.3l-0.1,0c-0.6,0.2-1.1,0.6-1.3,1.2
	c-0.3,0.6-0.3,1.2-0.1,1.8c0.3,0.7,0.9,1.3,1.6,1.5l0.1,0l0,0.1c0.3,1.1,0.6,2.1,0.9,3c1.4,4.8,2.1,6.9,4.9,8.8L8,36l-0.3,1
	c-0.4,1.2,0.2,2.5,1.4,2.9C9.4,40,9.6,40,9.8,40c0,0,0,0,0,0c1,0,1.8-0.6,2.1-1.5l0.3-1l0.1,0c0.1,0,0.2,0,0.2,0c0.2,0,0.3,0,5.7,0
	l9.5,0H28l0.3,1c0.3,0.9,1.2,1.5,2.1,1.5c1.2,0,2.3-1,2.3-2.3c0-0.2,0-0.5-0.1-0.7l-0.2-0.6l0.1-0.1c2.4-1.3,4.1-3.6,4.6-6.3
	l1.1-6.1l0.1,0c0.6-0.2,1.1-0.6,1.4-1.2C40,22.3,40,21.7,39.9,21.1z M10.2,6c0.8,0.3,1.3,0.9,1.6,1.6l0,0.2h-0.2H6.7l0.1-0.2
	C7.3,6.2,8.8,5.5,10.2,6z M18.8,19.2c0.6-1.1,1.8-1.7,3-1.7l0,0c0.3,0,0.6-0.2,0.8-0.5c0.7-2.2,2.3-2.9,3.6-2.9
	c1.6,0.1,2.9,1.2,3.3,2.9c0.1,0.4,0.5,0.6,0.8,0.5c0.1,0,0.2-0.1,0.3-0.1c1.5-1.2,3.7-0.9,4.9,0.6c0.3,0.4,0.5,0.8,0.6,1.3l0,0.2
	H18.7L18.8,19.2z M11,37.1c-0.1,0.3-0.2,0.6-0.3,0.9c-0.1,0.2-0.3,0.4-0.5,0.5c-0.1,0-0.2,0.1-0.4,0.1c-0.1,0-0.2,0-0.3-0.1
	c-0.1-0.1-0.3-0.2-0.4-0.3L8.9,38H9c-0.1-0.3,0-0.6,0.3-1.5c0.1-0.3,0.2-0.6,0.3-0.9c0.2-0.5,0.7-0.7,1.1-0.6
	c0.2,0.1,0.3,0.2,0.4,0.3C11.5,35.8,11.4,36,11,37.1z M31.2,38.3c-0.2,0.2-0.5,0.3-0.7,0.3c-0.1,0-0.1,0-0.2,0
	c-0.3-0.1-0.5-0.2-0.6-0.5h0L29,36.2c-0.2-0.5,0.1-1,0.6-1.1c0.1,0,0.2,0,0.3,0c0.7,0,0.8,0.4,1.2,1.7c0.1,0.2,0.2,0.5,0.3,0.8
	C31.4,37.8,31.4,38.1,31.2,38.3z M35.8,29.9c-0.4,2.2-1.7,4.1-3.6,5.2L32,35.2L31.9,35c-0.2-0.6-0.7-1-1.2-1.2
	c-0.6-0.2-1.2-0.2-1.7,0c-0.9,0.4-1.4,1.2-1.4,2.2l0,0.2l-12.4,0c-1.3,0-1.9,0-2.2,0c0,0-0.1,0-0.1,0l0,0c0,0,0,0-0.1,0l-0.2,0
	l0-0.2c0-0.6-0.2-1.2-0.6-1.6c-0.4-0.4-1-0.7-1.6-0.7c0,0-0.1,0-0.1,0c-0.7,0-1.4,0.4-1.8,1l-0.1,0.1l-0.1-0.1
	c-2.1-1.5-2.4-2.7-3.9-7.6c-0.2-0.8-0.5-1.7-0.8-2.7l-0.1-0.2h33.2L35.8,29.9z M37.6,22.8h-35c-0.5,0-1-0.4-1-1c0-0.5,0.4-1,1-1h35
	c0.3,0,0.5,0.1,0.7,0.3c0.2,0.2,0.3,0.4,0.3,0.7C38.6,22.4,38.2,22.8,37.6,22.8z"/>
</svg>
