<svg xmlns="http://www.w3.org/2000/svg" width="56.058" height="56" viewBox="0 0 56.058 56">
  <g id="Сгруппировать_182" data-name="Сгруппировать 182" transform="translate(-1514 -458)">
    <rect id="Прямоугольник_185" data-name="Прямоугольник 185" width="43.762" height="14.919" transform="translate(1519.968 476.205)" fill="#8a6762"/>
    <path id="Контур_303" data-name="Контур 303" d="M201.417,44.25h-36.75A4.68,4.68,0,0,1,160,39.583V32h41.417Z" transform="translate(1362.167 444.667)" fill="#98726b"/>
    <path id="Контур_304" data-name="Контур 304" d="M212.667,44.333h-17.5A1.17,1.17,0,0,1,194,43.167v-7A1.17,1.17,0,0,1,195.167,35h17.5a1.17,1.17,0,0,1,1.167,1.167v7A1.17,1.17,0,0,1,212.667,44.333Z" transform="translate(1348 443.417)" fill="#a67f74"/>
    <path id="Контур_305" data-name="Контур 305" d="M147,74V86.25h5.25l1.167-4.083h42l1.167,4.083h5.25V74Z" transform="translate(1367.583 427.167)" fill="#8a6762"/>
    <path id="Контур_306" data-name="Контур 306" d="M201.5,66.5H149V61.833A5.85,5.85,0,0,1,154.833,56h40.833a5.85,5.85,0,0,1,5.833,5.833Z" transform="translate(1366.75 434.667)" fill="#c3d2e7"/>
    <path id="Контур_307" data-name="Контур 307" d="M201.5,66.667V69H149V66.667a4.706,4.706,0,0,1,2.333-4.083A4.477,4.477,0,0,1,153.667,62h43.167A4.68,4.68,0,0,1,201.5,66.667Z" transform="translate(1366.75 432.167)" fill="#89a3ce"/>
    <path id="Контур_308" data-name="Контур 308" d="M202.75,66.667v.583H154.333A2.34,2.34,0,0,1,152,64.917h0a5.311,5.311,0,0,1,.583-2.333A4.477,4.477,0,0,1,154.917,62h43.167A4.68,4.68,0,0,1,202.75,66.667Z" transform="translate(1365.5 432.167)" fill="#a5b9db"/>
    <path id="Контур_309" data-name="Контур 309" d="M179.333,44.333v5.833H163V44.333a2.316,2.316,0,0,1,1.808-2.275,1.615,1.615,0,0,1,.525-.058H177A2.34,2.34,0,0,1,179.333,44.333Z" transform="translate(1360.917 440.5)" fill="#dee1e7"/>
    <path id="Контур_310" data-name="Контур 310" d="M180.583,44.333v4.083h-8.75A5.85,5.85,0,0,1,166,42.583h0a1.615,1.615,0,0,1,.058-.525,1.615,1.615,0,0,1,.525-.058H178.25A2.34,2.34,0,0,1,180.583,44.333Z" transform="translate(1359.667 440.5)" fill="#f3f4f5"/>
    <path id="Контур_311" data-name="Контур 311" d="M213.333,50.167H197V44.333A2.34,2.34,0,0,1,199.333,42H211a2.34,2.34,0,0,1,2.333,2.333Z" transform="translate(1346.75 440.5)" fill="#dee1e7"/>
    <path id="Контур_312" data-name="Контур 312" d="M214.583,44.333v4.083h-8.75A5.85,5.85,0,0,1,200,42.583h0a1.615,1.615,0,0,1,.058-.525,1.615,1.615,0,0,1,.525-.058H212.25A2.34,2.34,0,0,1,214.583,44.333Z" transform="translate(1345.5 440.5)" fill="#f3f4f5"/>
    <path id="Контур_313" data-name="Контур 313" d="M153,45.083V27h2.333V44.033" transform="translate(1365.083 446.75)" fill="#98726b"/>
    <path id="Контур_314" data-name="Контур 314" d="M231,44.033V27h2.333V45.083" transform="translate(1332.583 446.75)" fill="#98726b"/>
    <rect id="Прямоугольник_186" data-name="Прямоугольник 186" width="21.881" height="15.914" transform="translate(1530.908 458.303)" fill="#cba07a"/>
    <rect id="Прямоугольник_187" data-name="Прямоугольник 187" width="17.903" height="9.946" transform="translate(1532.897 461.286)" fill="#c3e1f5"/>
    <path id="Контур_315" data-name="Контур 315" d="M188.333,19.667H179L183.667,15Z" transform="translate(1354.25 451.75)" fill="#85bd79"/>
    <path id="Контур_316" data-name="Контур 316" d="M190.932,19.667h-4.842A3.372,3.372,0,0,1,186.266,15Z" transform="translate(1351.651 451.75)" fill="#9fc98a"/>
    <path id="Контур_317" data-name="Контур 317" d="M189,18.833,194.833,13l5.833,5.833H189" transform="translate(1350.083 452.583)" fill="#85bd79"/>
    <path id="Контур_318" data-name="Контур 318" d="M204.109,18.833h-3.442A3.411,3.411,0,0,1,198.276,13h0Z" transform="translate(1346.641 452.583)" fill="#9fc98a"/>
    <g id="Сгруппировать_181" data-name="Сгруппировать 181" transform="translate(1514 458)">
      <path id="Контур_661" data-name="Контур 661" d="M201.417,53.417h-.583V49.333a6.5,6.5,0,0,0-2.333-4.958V26.583a.551.551,0,0,0-.583-.583h-2.333a.551.551,0,0,0-.583.583v2.333H153V26.583a.551.551,0,0,0-.583-.583h-2.333a.551.551,0,0,0-.583.583V44.375a6.5,6.5,0,0,0-2.333,4.958v4.083h-.583A.551.551,0,0,0,146,54V66.25a.551.551,0,0,0,.583.583h5.25a.7.7,0,0,0,.583-.408l1.05-3.675h41.125l1.05,3.675a.579.579,0,0,0,.583.408h5.25a.551.551,0,0,0,.583-.583V54A.636.636,0,0,0,201.417,53.417Zm-5.25-26.25h1.167v16.45a6.953,6.953,0,0,0-1.167-.467V27.167ZM195,30.083V42.917h-2.333v-5.25a2.888,2.888,0,0,0-2.917-2.917H178.083a2.888,2.888,0,0,0-2.917,2.917v5.25h-2.333v-5.25a2.888,2.888,0,0,0-2.917-2.917H158.25a2.888,2.888,0,0,0-2.917,2.917v5.25H153V30.083Zm-3.5,12.833H176.333v-5.25a1.719,1.719,0,0,1,1.75-1.75H189.75a1.719,1.719,0,0,1,1.75,1.75Zm-19.833,0H156.5v-5.25a1.719,1.719,0,0,1,1.75-1.75h11.667a1.719,1.719,0,0,1,1.75,1.75Zm-21-15.75h1.167V43.15a6.952,6.952,0,0,0-1.167.467Zm2.917,16.917h40.833a5.311,5.311,0,0,1,5.133,4.142,5.3,5.3,0,0,0-3.967-1.808H152.417a5.3,5.3,0,0,0-3.967,1.808A5.311,5.311,0,0,1,153.583,44.083Zm-5.25,7.583a4.058,4.058,0,0,1,4.083-4.083h43.167a4.058,4.058,0,0,1,4.083,4.083v1.75H148.333Zm52.5,14h-4.2l-1.05-3.675a.58.58,0,0,0-.583-.408H153a.7.7,0,0,0-.583.408l-1.05,3.675h-4.2V54.583h53.667Z" transform="translate(-146 -10.833)" fill="#39426a"/>
      <path id="Контур_662" data-name="Контур 662" d="M174.35,16.275a.351.351,0,0,0,.233.058H196.75a.351.351,0,0,0,.233-.058.7.7,0,0,0,.292-.292.351.351,0,0,0,.058-.233V.583a.351.351,0,0,0-.058-.233.7.7,0,0,0-.292-.292A.351.351,0,0,0,196.75,0H174.583a.351.351,0,0,0-.233.058.7.7,0,0,0-.292.292A.351.351,0,0,0,174,.583V15.75a.351.351,0,0,0,.058.233A.7.7,0,0,0,174.35,16.275Zm19.483-3.442H177.5V3.5h16.333ZM177.15,14h17.033l1.167,1.167H175.983ZM195,13.183V3.15l1.167-1.167V14.35Zm-.817-10.85H177.15l-1.167-1.167H195.35Zm-17.85.817V13.183l-1.167,1.167V1.983Z" transform="translate(-157.667)" fill="#39426a"/>
    </g>
    <path id="Контур_319" data-name="Контур 319" d="M202.5,80.833H152.333A2.34,2.34,0,0,1,150,78.5V75h52.5Z" transform="translate(1366.333 426.75)" fill="#98726b"/>
    <path id="Контур_320" data-name="Контур 320" d="M218.5,80.5H195.167A1.17,1.17,0,0,1,194,79.333V78.167A1.17,1.17,0,0,1,195.167,77H218.5a1.17,1.17,0,0,1,1.167,1.167v1.167A1.17,1.17,0,0,1,218.5,80.5Z" transform="translate(1348 425.917)" fill="#a67f74"/>
    <circle id="Эллипс_16" data-name="Эллипс 16" cx="1.492" cy="1.492" r="1.492" transform="translate(1539.859 462.281)" fill="#f6b756"/>
  </g>
</svg>
