<?xml version="1.0" encoding="utf-8"?>
<!-- Generator: Adobe Illustrator 24.2.1, SVG Export Plug-In . SVG Version: 6.00 Build 0)  -->
<svg version="1.1" id="cctv_city_real_estate_home_house_housing" xmlns="http://www.w3.org/2000/svg" xmlns:xlink="http://www.w3.org/1999/xlink" x="0px" y="0px" viewBox="0 0 42 42" xml:space="preserve">

<path class="st0" d="M39.8,5.9c-0.2-0.2-0.4-0.2-0.6-0.2h-6.5V2.8c0-0.5-0.4-0.8-0.8-0.8H2.8C2.4,2,2,2.4,2,2.8V21
	c0,0.5,0.4,0.8,0.8,0.8h15.5v11.1h-7.5v-4.6c0-0.5-0.4-0.8-0.8-0.8H2.8c-0.5,0-0.8,0.4-0.8,0.8v10.9C2,39.6,2.4,40,2.8,40h7.3
	c0.5,0,0.8-0.4,0.8-0.8v-4.6h8.3c0.5,0,0.8-0.4,0.8-0.8V21.8h11.9c0.5,0,0.8-0.4,0.8-0.8v-2.8h6.5c0.5,0,0.8-0.4,0.8-0.8V6.5
	C40,6.2,39.9,6,39.8,5.9z M9.3,38.4H3.6v-9.3h5.6V38.4z M31.1,20.2H3.6V3.6h27.5V20.2z M32.7,16.5V7.3h5.6l0,9.3H32.7z"/>
</svg>
