<svg xmlns="http://www.w3.org/2000/svg" width="59.984" height="60" viewBox="0 0 59.984 60">
  <g id="Сгруппировать_277" data-name="Сгруппировать 277" transform="translate(-437.7 -291.975)">
    <rect id="Прямоугольник_101" data-name="Прямоугольник 101" width="24.942" height="17.459" transform="translate(455.346 305.708)" fill="#ccd1dc"/>
    <path id="Контур_349" data-name="Контур 349" d="M492.071,330.718h-21.2A1.837,1.837,0,0,1,469,328.847v-9.977A1.837,1.837,0,0,1,470.871,317h21.2Z" transform="translate(-11.783 -9.421)" fill="#dee1e7"/>
    <path id="Контур_350" data-name="Контур 350" d="M489.706,330.224h-8.73A10.006,10.006,0,0,1,471,320.247h0A1.251,1.251,0,0,1,472.247,319h17.459a1.251,1.251,0,0,1,1.247,1.247v8.73A1.251,1.251,0,0,1,489.706,330.224Z" transform="translate(-12.536 -10.174)" fill="#f3f4f5"/>
    <path id="Контур_351" data-name="Контур 351" d="M492.671,306.094H459l2.432-1.871L475.836,293l14.4,11.224Z" transform="translate(-8.019 -0.386)" fill="#8a6762"/>
    <path id="Контур_352" data-name="Контур 352" d="M495.993,304.224H478.035a3.731,3.731,0,0,1-2.307-6.672l5.8-4.552Z" transform="translate(-13.772 -0.386)" fill="#98726b"/>
    <g id="Сгруппировать_22" data-name="Сгруппировать 22" transform="translate(469.953 297.307)">
      <path id="Контур_353" data-name="Контур 353" d="M494.46,305.186a.886.886,0,0,1-.374-.125l-4.427-3.429a.624.624,0,1,1,.748-1l4.427,3.429a.671.671,0,0,1,.125.873A.567.567,0,0,1,494.46,305.186Z" transform="translate(-489.426 -300.526)" fill="#a67f74"/>
    </g>
    <g id="Сгруппировать_23" data-name="Сгруппировать 23" transform="translate(468.519 296.122)">
      <path id="Контур_354" data-name="Контур 354" d="M487.858,299.981a.887.887,0,0,1-.374-.125l-.125-.125a.624.624,0,0,1,.748-1l.125.125a.671.671,0,0,1,.125.873A.644.644,0,0,1,487.858,299.981Z" transform="translate(-487.126 -298.626)" fill="#a67f74"/>
    </g>
    <rect id="Прямоугольник_102" data-name="Прямоугольник 102" width="7.482" height="11.224" transform="translate(459.087 311.944)" fill="#cba07a"/>
    <path id="Контур_355" data-name="Контур 355" d="M480.612,333.353h0A5.589,5.589,0,0,1,475,327.741V324h5.612Z" transform="translate(-14.042 -12.056)" fill="#d9b18c"/>
    <rect id="Прямоугольник_103" data-name="Прямоугольник 103" width="31.177" height="4.365" transform="translate(452.228 323.168)" fill="#5c5f7d"/>
    <path id="Контур_356" data-name="Контур 356" d="M493.306,344.494H466.494A2.5,2.5,0,0,1,464,342h29.306Z" transform="translate(-9.901 -18.832)" fill="#6a6e86"/>
    <rect id="Прямоугольник_104" data-name="Прямоугольник 104" width="6.859" height="6.859" transform="translate(469.688 311.944)" fill="#abd9e6"/>
    <path id="Контур_357" data-name="Контур 357" d="M493.988,324l-3.118,6.859H489v-1.372L491.494,324Z" transform="translate(-19.312 -12.056)" fill="#c3e1f5"/>
    <path id="Контур_358" data-name="Контур 358" d="M497.741,324v1.372l-2.494,5.487H494L497.118,324Z" transform="translate(-21.195 -12.056)" fill="#c3e1f5"/>
    <path id="Контур_471" data-name="Контур 471" d="M496,368.177V356.392a5.243,5.243,0,0,1,5.3-5.238,5.437,5.437,0,0,0,3.8-1.621l4.365-4.365a2.462,2.462,0,0,1,1.746-.748,2.05,2.05,0,0,1,1.06.249,1.768,1.768,0,0,1,.686.5,2.411,2.411,0,0,1,0,3.492l-5.113,5.175,5.113-5.051a3.881,3.881,0,0,0,1.122-2.681v-6.61A2.5,2.5,0,0,1,516.577,337h0a2.5,2.5,0,0,1,2.494,2.494v9.6a4.952,4.952,0,0,1-1.559,3.617L506.6,363.251v4.926" transform="translate(-21.948 -16.95)" fill="#eedbcd"/>
    <path id="Контур_472" data-name="Контур 472" d="M462.071,356.292v12.471h-10.6v-5.549l-10.912-10.538A4.952,4.952,0,0,1,439,349.059v-9.6a2.838,2.838,0,0,1,.312-1.247l.374-.561a2.469,2.469,0,0,1,4.24,1.746V346a4,4,0,0,0,1.122,2.681l5.113,5.051-5.113-5.175a2.553,2.553,0,0,1-.437-2.993,3.428,3.428,0,0,1,.437-.561,2.768,2.768,0,0,1,.686-.5,2.049,2.049,0,0,1,1.06-.249,2.462,2.462,0,0,1,1.746.748l4.365,4.365a5.437,5.437,0,0,0,3.8,1.621A5.39,5.39,0,0,1,462.071,356.292Z" transform="translate(-0.489 -16.913)" fill="#eedbcd"/>
    <path id="Контур_473" data-name="Контур 473" d="M460.2,358.33v11.224h-8.73V364l-10.912-10.538A4.952,4.952,0,0,1,439,349.85v-9.6a2.838,2.838,0,0,1,.312-1.247h.312a2.5,2.5,0,0,1,2.494,2.494v6.61a4,4,0,0,0,1.122,2.681l6.984,3.8s-6.485-7.857-6.235-7.981h0a1.66,1.66,0,0,1,.748-.187h.312a2.462,2.462,0,0,1,1.746.748l4.365,4.365a5.437,5.437,0,0,0,3.8,1.621A5.176,5.176,0,0,1,460.2,358.33Z" transform="translate(-0.489 -17.703)" fill="#ead4c6"/>
    <path id="Контур_474" data-name="Контур 474" d="M499,358.33v11.224h8.73V364l10.912-10.538a4.952,4.952,0,0,0,1.559-3.617v-9.6a2.838,2.838,0,0,0-.312-1.247h-.312a2.5,2.5,0,0,0-2.494,2.494v6.61a4,4,0,0,1-1.122,2.681l-6.984,3.8s6.485-7.857,6.235-7.981h0a1.66,1.66,0,0,0-.748-.187h-.312a2.462,2.462,0,0,0-1.746.748l-4.365,4.365a5.437,5.437,0,0,1-3.8,1.621A5.176,5.176,0,0,0,499,358.33Z" transform="translate(-23.077 -17.703)" fill="#ead4c6"/>
    <g id="Сгруппировать_99" data-name="Сгруппировать 99" transform="translate(450.37 291.975)">
      <path id="Контур_792" data-name="Контур 792" d="M492.676,305.21l-16.836-13.094a.567.567,0,0,0-.748,0L458.257,305.21a.59.59,0,0,0-.187.686.6.6,0,0,0,.561.436h3.741v16.212h-2.494a.589.589,0,0,0-.624.624v4.365a.589.589,0,0,0,.624.624h31.177a.589.589,0,0,0,.624-.624v-4.365a.589.589,0,0,0-.624-.624h-2.494V306.332H492.3a.6.6,0,0,0,.561-.436A.517.517,0,0,0,492.676,305.21Zm-2.245,21.7H460.5v-3.118h29.93ZM473.6,322.544H467.36v-9.977H473.6Zm13.718,0H474.843v-10.6a.589.589,0,0,0-.624-.624h-7.482a.589.589,0,0,0-.624.624v10.6h-2.494V306.332h23.694Zm.624-17.459h-27.5l15.027-11.66,15.027,11.66Z" transform="translate(-458.019 -291.975)" fill="#39426a"/>
      <path id="Контур_793" data-name="Контур 793" d="M488.624,331.106h6.859a.589.589,0,0,0,.624-.624v-6.859a.589.589,0,0,0-.624-.624h-6.859a.589.589,0,0,0-.624.624v6.859A.589.589,0,0,0,488.624,331.106Zm.624-6.859h5.612v5.612h-5.612Z" transform="translate(-469.306 -303.655)" fill="#39426a"/>
    </g>
    <g id="Сгруппировать_100" data-name="Сгруппировать 100" transform="translate(473.304 319.426)">
      <path id="Контур_794" data-name="Контур 794" d="M506.148,368.424a.589.589,0,0,1-.624-.624v-4.926a.566.566,0,0,1,.187-.436L516.624,351.9a4.291,4.291,0,0,0,1.309-3.118v-9.665a1.871,1.871,0,0,0-3.741,0v6.61a4.439,4.439,0,0,1-1.309,3.118L507.77,353.9a.617.617,0,0,1-.873-.873l5.113-5.175a1.808,1.808,0,0,0,0-2.619,3.461,3.461,0,0,0-.5-.374,1.815,1.815,0,0,0-2.12.374l-4.365,4.365a5.958,5.958,0,0,1-4.24,1.808h-.062a4.684,4.684,0,0,0-4.677,4.677v11.847a.624.624,0,0,1-1.247,0V356.078a5.961,5.961,0,0,1,5.924-5.924h.062a4.85,4.85,0,0,0,3.3-1.434l4.365-4.365a3.274,3.274,0,0,1,3.554-.624,2.068,2.068,0,0,1,.873.624c.062.062.062.062.062.125v-5.362a3.118,3.118,0,0,1,6.235,0v9.6a5.62,5.62,0,0,1-1.746,4.053l-10.663,10.351V367.8A.589.589,0,0,1,506.148,368.424Z" transform="translate(-494.8 -336)" fill="#39426a"/>
    </g>
    <g id="Сгруппировать_101" data-name="Сгруппировать 101" transform="translate(437.7 319.426)">
      <path id="Контур_795" data-name="Контур 795" d="M461.582,368.424a.589.589,0,0,1-.624-.624V355.953a4.684,4.684,0,0,0-4.677-4.677h-.062a6.347,6.347,0,0,1-4.24-1.808l-4.365-4.365a1.918,1.918,0,0,0-2.12-.374,1.472,1.472,0,0,0-.561.374,1.808,1.808,0,0,0,0,2.619l5.113,5.175a.617.617,0,0,1-.873.873l-5.113-5.051a4.439,4.439,0,0,1-1.309-3.118v-6.485a1.871,1.871,0,0,0-3.741,0v9.6a4.439,4.439,0,0,0,1.309,3.118l10.912,10.538a.566.566,0,0,1,.187.436v4.926a.624.624,0,0,1-1.247,0v-4.677l-10.725-10.351a5.619,5.619,0,0,1-1.746-4.053v-9.54a3.118,3.118,0,0,1,6.235,0v5.3c0-.062.062-.062.062-.125a2.812,2.812,0,0,1,.873-.624,2.975,2.975,0,0,1,3.492.624l4.365,4.365a4.7,4.7,0,0,0,3.3,1.434h.062a5.961,5.961,0,0,1,5.924,5.924v11.847C462.205,368.175,461.956,368.424,461.582,368.424Z" transform="translate(-437.7 -336)" fill="#39426a"/>
    </g>
    <path id="Контур_1068" data-name="Контур 1068" d="M479.935,332.612h0a.959.959,0,0,1-.935-.935v-3.741a.959.959,0,0,1,.935-.935h0a.959.959,0,0,1,.935.935v3.741A.959.959,0,0,1,479.935,332.612Z" transform="translate(-15.548 -13.186)" fill="#e5c2a1"/>
  </g>
</svg>
