<?xml version="1.0" encoding="utf-8"?>
<!-- Generator: Adobe Illustrator 24.2.1, SVG Export Plug-In . SVG Version: 6.00 Build 0)  -->
<svg version="1.1" id="&#x421;&#x43B;&#x43E;&#x439;_1" xmlns="http://www.w3.org/2000/svg" xmlns:xlink="http://www.w3.org/1999/xlink" x="0px" y="0px" viewBox="0 0 41.7 34.1" xml:space="preserve">

<g>
	<path class="st0" d="M20.9,2.9C12.5,2.9,5.7,9.6,5.7,18c0,8.3,6.8,15.1,15.1,15.1S36,26.3,36,18C36,9.6,29.2,2.9,20.9,2.9z
		 M20.9,31.4c-7.4,0-13.4-6-13.4-13.4c0-7.4,6-13.4,13.4-13.4s13.4,6,13.4,13.4C34.3,25.4,28.3,31.4,20.9,31.4z"/>
	<path class="st0" d="M38,0c-2,0-3.7,1.7-3.7,3.7v2.7c0,1.6,1.3,2.9,2.9,2.9v23.9c0,0.5,0.4,0.8,0.8,0.8s0.8-0.4,0.8-0.8V9.3
		c1.6,0,2.9-1.3,2.9-2.9V3.7C41.7,1.7,40,0,38,0z M40,6.4c0,0.7-0.5,1.2-1.2,1.2h-1.6c-0.7,0-1.2-0.5-1.2-1.2V3.7c0-1.1,0.9-2,2-2
		s2,0.9,2,2V6.4z"/>
	<path class="st0" d="M7.4,6.4V3.7c0-0.5-0.4-0.9-0.9-0.9S5.7,3.2,5.7,3.7v2.7c0,0.6-0.5,1.2-1.2,1.2V1.8C4.6,1.3,4.2,1,3.7,1
		S2.9,1.3,2.9,1.8v5.8c-0.6,0-1.2-0.6-1.2-1.2V3.7c0-0.5-0.4-0.9-0.9-0.9S0,3.2,0,3.7v2.7C0,8,1.3,9.3,2.9,9.3v23.9
		c0,0.5,0.4,0.8,0.9,0.8s0.9-0.4,0.9-0.8V9.3C6.1,9.3,7.4,8,7.4,6.4z"/>
	<path class="st0" d="M20.9,9.5c-4.7,0-8.5,3.8-8.5,8.5s3.8,8.5,8.5,8.5c4.7,0,8.5-3.8,8.5-8.5S25.5,9.5,20.9,9.5z M20.9,24.8
		c-3.7,0-6.8-3-6.8-6.8s3-6.8,6.8-6.8c3.7,0,6.8,3,6.8,6.8S24.6,24.8,20.9,24.8z"/>
</g>
</svg>
