<svg xmlns="http://www.w3.org/2000/svg" width="59.2" height="60" viewBox="0 0 59.2 60">
  <g id="Сгруппировать_144" data-name="Сгруппировать 144" transform="translate(-577 -1152.7)">
    <rect id="Прямоугольник_79" data-name="Прямоугольник 79" width="5.651" height="13.714" transform="translate(620.746 1172.129)" fill="#dd8c36"/>
    <g id="Сгруппировать_136" data-name="Сгруппировать 136" transform="translate(577.571 1172.065)">
      <g id="Сгруппировать_135" data-name="Сгруппировать 135">
        <path id="Контур_454" data-name="Контур 454" d="M587.932,1193.232l-5.9,28.318A2.049,2.049,0,0,1,580,1223.2h0a2.114,2.114,0,0,1-2.1-2.1h0v-37.9h5.651Z" transform="translate(-577.9 -1183.2)" fill="#dd8c36"/>
      </g>
    </g>
    <rect id="Прямоугольник_80" data-name="Прямоугольник 80" width="37.46" height="46.857" transform="translate(583.286 1153.398)" fill="#ccd1dc"/>
    <path id="Контур_455" data-name="Контур 455" d="M622.419,1153.8v26.857a3.713,3.713,0,0,1-3.746,3.746h-8.889a2.492,2.492,0,0,1-2.222-1.333,6.038,6.038,0,0,0-.952-1.27,4.436,4.436,0,0,0-3.048-1.143H589.276a2.479,2.479,0,0,1-2.476-2.476V1153.8Z" transform="translate(-3.578 -0.402)" fill="#dfe2e8"/>
    <path id="Контур_456" data-name="Контур 456" d="M619.768,1179.276H609.8a20,20,0,0,1-20-20h0a2.479,2.479,0,0,1,2.476-2.476h27.492a2.479,2.479,0,0,1,2.476,2.476v17.46A2.454,2.454,0,0,1,619.768,1179.276Z" transform="translate(-4.673 -1.497)" fill="#f4f5f6"/>
    <g id="Сгруппировать_138" data-name="Сгруппировать 138" transform="translate(579.73 1182.097)">
      <g id="Сгруппировать_137" data-name="Сгруппировать 137" transform="translate(0)">
        <path id="Контур_457" data-name="Контур 457" d="M637.11,1202.746l-5.016,24.19-.063.381a2.05,2.05,0,0,1-2.032,1.651H581.3a2.172,2.172,0,0,0,2.032-1.587l5.9-28.381h12.508a1.729,1.729,0,0,1,1.333.571,1.98,1.98,0,0,1,.571,1.333,1.91,1.91,0,0,0,1.9,1.9H637.11Z" transform="translate(-581.3 -1199)" fill="#e69c4b"/>
      </g>
    </g>
    <g id="Сгруппировать_140" data-name="Сгруппировать 140" transform="translate(585.751 1184.065)">
      <g id="Сгруппировать_139" data-name="Сгруппировать 139" transform="translate(0)">
        <path id="Контур_458" data-name="Контур 458" d="M640,1205.782l-4.127,19.746a5.075,5.075,0,0,1-4.381,2.6H597.016a6.217,6.217,0,0,1-6.1-7.492l3.873-18.54h9.143a1.73,1.73,0,0,1,1.333.572,1.98,1.98,0,0,1,.571,1.333,1.857,1.857,0,0,0,1.9,1.841H640Z" transform="translate(-590.783 -1202.1)" fill="#edab63"/>
      </g>
    </g>
    <g id="Сгруппировать_142" data-name="Сгруппировать 142" transform="translate(617.19 1185.843)">
      <g id="Сгруппировать_141" data-name="Сгруппировать 141" transform="translate(0 0)">
        <path id="Контур_459" data-name="Контур 459" d="M661.392,1204.9l-.381,1.9H653.9l.444-1.9Z" transform="translate(-645.265 -1204.9)" fill="#edab63"/>
        <path id="Контур_460" data-name="Контур 460" d="M656.046,1207.9l-3.81,18.349a5.016,5.016,0,0,1-4.889,4H640.3a5.016,5.016,0,0,0,4.889-4L649,1207.9Z" transform="translate(-640.3 -1205.995)" fill="#f6bc7a"/>
      </g>
    </g>
    <g id="Сгруппировать_143" data-name="Сгруппировать 143" transform="translate(577 1152.7)">
      <path id="Контур_461" data-name="Контур 461" d="M602.235,1179.57h21.841a.635.635,0,1,0,0-1.27H602.235a.635.635,0,0,0,0,1.27Z" transform="translate(-585.981 -1162.046)" fill="#878c9f"/>
      <path id="Контур_462" data-name="Контур 462" d="M631.962,1185.3h-8.127a.636.636,0,0,0-.635.635.6.6,0,0,0,.635.635h8.127a.636.636,0,0,0,.635-.635A.6.6,0,0,0,631.962,1185.3Z" transform="translate(-593.867 -1164.602)" fill="#878c9f"/>
      <path id="Контур_463" data-name="Контур 463" d="M595.335,1186.47h15.619a.636.636,0,0,0,.635-.635.6.6,0,0,0-.635-.635H595.335a.635.635,0,1,0,0,1.27Z" transform="translate(-583.462 -1164.565)" fill="#878c9f"/>
      <path id="Контур_464" data-name="Контур 464" d="M595.335,1193.37h26.222a.635.635,0,1,0,0-1.27H595.335a.635.635,0,1,0,0,1.27Z" transform="translate(-583.462 -1167.084)" fill="#878c9f"/>
      <path id="Контур_465" data-name="Контур 465" d="M615.575,1166.149H613.1a.635.635,0,0,0,0,1.27h1.27v.635a.635.635,0,1,0,1.27,0v-.635a1.9,1.9,0,0,0,0-3.81h-1.27a.635.635,0,0,1,0-1.27h2.476a.635.635,0,0,0,0-1.27h-1.27v-.635a.635.635,0,0,0-1.27,0v.635a1.9,1.9,0,0,0,0,3.81h1.27a.635.635,0,0,1,0,1.27Z" transform="translate(-589.924 -1155.292)" fill="#85bd79"/>
      <path id="Контур_466" data-name="Контур 466" d="M636.048,1185.462a.784.784,0,0,0-.508-.254h-8.571v-13.143a.636.636,0,0,0-.635-.635h-5.016v-18.1a.636.636,0,0,0-.635-.635h-37.46a.636.636,0,0,0-.635.635v18.1h-4.952a.636.636,0,0,0-.635.635v37.9a2.728,2.728,0,0,0,2.286,2.667c.063,0,.127.063.19.063h48.889a2.771,2.771,0,0,0,2.667-2.159l5.143-24.571A.559.559,0,0,0,636.048,1185.462Zm-10.286-12.7v12.508h-4.381v-12.508Zm-41.9-18.73h36.254v31.238H603.857a1.274,1.274,0,0,1-1.27-1.27,2.479,2.479,0,0,0-2.476-2.476h-12.7c-.063,0-.063,0-.127.063-.063,0-.063,0-.063.063a.062.062,0,0,0-.063.063l-.063.063a.233.233,0,0,0-.063.191l-3.111,15.048v-42.984Zm-5.587,56V1172.7h4.381v30.286l-1.524,7.3a1.488,1.488,0,0,1-1.4,1.143A1.35,1.35,0,0,1,578.27,1210.033Zm51.556.317a1.488,1.488,0,0,1-1.4,1.143H581.952a1.871,1.871,0,0,0,.318-.825v-.063l5.778-27.873h12a1.274,1.274,0,0,1,1.27,1.27,2.479,2.479,0,0,0,2.476,2.476h30.984Z" transform="translate(-577 -1152.7)" fill="#39426a"/>
    </g>
  </g>
</svg>
