<?xml version="1.0" encoding="utf-8"?>
<!-- Generator: Adobe Illustrator 24.2.1, SVG Export Plug-In . SVG Version: 6.00 Build 0)  -->
<svg version="1.1" id="&#x421;&#x43B;&#x43E;&#x439;_1" xmlns="http://www.w3.org/2000/svg" xmlns:xlink="http://www.w3.org/1999/xlink" x="0px" y="0px" viewBox="0 0 40.3 42" xml:space="preserve">

<g>
	<path class="st0" d="M38,19.6L20.7,2.2C20.5,2.1,20.3,2,20.1,2c-0.2,0-0.4,0.1-0.5,0.2L2.2,19.6C2.1,19.7,2,19.9,2,20.1v19.1
		C2,39.7,2.3,40,2.7,40h34.8c0.4,0,0.7-0.3,0.7-0.7V20.1C38.3,19.9,38.2,19.8,38,19.6z M36.8,38.5H3.5V20.4L20.1,3.8l16.6,16.6V38.5
		z"/>
	<path class="st0" d="M16,24.1c0.1,0.1,0.3,0.2,0.5,0.2h5.6l-6.2,7.8c-0.4,0.4-0.3,0.9,0,1.2c0.3,0.3,0.8,0.3,1.2,0
		c0,0,0.1-0.1,0.1-0.1l7.3-9.2c0.1-0.2,0.2-0.4,0.2-0.6c0-0.2-0.1-0.4-0.3-0.5c-0.1-0.1-0.3-0.2-0.5-0.2h-5.6l6.2-7.8
		c0.1-0.1,0.1-0.3,0.1-0.5c0-0.2-0.2-0.4-0.3-0.5c-0.3-0.2-0.8-0.2-1.1,0.1l-7.2,9C15.6,23.3,15.6,23.8,16,24.1z"/>
</g>
</svg>
