<?xml version="1.0" encoding="utf-8"?>
<!-- Generator: Adobe Illustrator 24.2.1, SVG Export Plug-In . SVG Version: 6.00 Build 0)  -->
<svg version="1.1" id="&#x421;&#x43B;&#x43E;&#x439;_1" xmlns="http://www.w3.org/2000/svg" xmlns:xlink="http://www.w3.org/1999/xlink" x="0px" y="0px" viewBox="0 0 31.1 42" xml:space="preserve">

<path class="st0" d="M21.1,26.9l-1.4-0.6l1.2-1c1.7-1.5,2.7-3.7,2.7-6c0-0.5-0.1-1.1-0.2-1.6l-0.3-1.2h3.3c0.2,0,0.4-0.1,0.6-0.2
	s0.2-0.4,0.2-0.6c0-0.2-0.1-0.4-0.2-0.6c-0.2-0.2-0.4-0.2-0.6-0.2l-1,0l0-2.8c0-2.8-1.9-5.3-4.7-6.1L20,5.7V2.8
	C20,2.4,19.6,2,19.2,2h-7.3c-0.5,0-0.8,0.4-0.8,0.8v2.8l-0.8,0.2c-2.8,0.7-4.7,3.2-4.7,6.1v2.8h-1c-0.5,0-0.8,0.4-0.8,0.8
	s0.4,0.8,0.8,0.8h3.3l-0.3,1.2c-0.1,0.5-0.2,1.1-0.2,1.6c0,2.3,1,4.5,2.7,6l1.2,1L10,26.9c-4.8,2.2-8,7-8,12.3C2,39.6,2.4,40,2.8,40
	c0.5,0,0.8-0.4,0.8-0.8c0-6.6,5.3-11.9,11.9-11.9s11.9,5.3,11.9,11.9c0,0.5,0.4,0.8,0.8,0.8c0.5,0,0.8-0.4,0.8-0.8
	C29.1,33.9,26,29,21.1,26.9z M7.3,14.7v-2.8c0-1.6,0.9-3.2,2.3-4l1.5-0.9v3c0,0.5,0.4,0.8,0.8,0.8h0c0.5,0,0.8-0.4,0.8-0.8V3.6h5.6
	v6.5c0,0.2,0.1,0.4,0.2,0.6s0.4,0.2,0.6,0.2c0.5,0,0.8-0.4,0.8-0.8v-3l1.5,0.9c1.4,0.8,2.3,2.3,2.3,4v2.8H7.3z M15.5,25.7
	c-1.7,0-3.3-0.6-4.5-1.8c-1.2-1.2-1.9-2.8-2-4.5l0-0.2c0-0.7,0.2-1.5,0.4-2.1l0.2-0.7h11.6l0.2,0.7c0.3,0.7,0.4,1.4,0.4,2.1
	c0,1.7-0.6,3.4-1.8,4.6C19,25,17.4,25.7,15.5,25.7C15.6,25.7,15.6,25.7,15.5,25.7z"/>
</svg>
