<svg xmlns="http://www.w3.org/2000/svg" width="60" height="59.856" viewBox="0 0 60 59.856">
  <g id="Сгруппировать_276" data-name="Сгруппировать 276" transform="translate(-437.985)">
    <rect id="Прямоугольник_108" data-name="Прямоугольник 108" width="2.494" height="21.823" transform="translate(466.675 18.705)" fill="#b8c0ce"/>
    <path id="Контур_553" data-name="Контур 553" d="M515.328,57.693H496V43.664A9.633,9.633,0,0,1,505.664,34h0a9.633,9.633,0,0,1,9.664,9.664Z" transform="translate(-21.843 -12.801)" fill="#5c5f7d"/>
    <ellipse id="Эллипс_64" data-name="Эллипс 64" cx="7.17" cy="3.429" rx="7.17" ry="3.429" transform="translate(476.651 21.199)" fill="#6a6e86"/>
    <path id="Контур_554" data-name="Контур 554" d="M465.811,86.211H439l1.434-9.353A8.121,8.121,0,0,1,448.477,70H456.4a8.169,8.169,0,0,1,8.043,6.859Z" transform="translate(-0.382 -26.355)" fill="#a5b9db"/>
    <path id="Контур_555" data-name="Контур 555" d="M465.649,87.341H439.4l1.122-7.482A8.121,8.121,0,0,1,448.565,73h7.918a8.169,8.169,0,0,1,8.043,6.859Z" transform="translate(-0.533 -27.484)" fill="#89a3ce"/>
    <path id="Контур_556" data-name="Контур 556" d="M459.182,70.988h0A2.209,2.209,0,0,1,457,68.806V66h4.365v2.806A2.209,2.209,0,0,1,459.182,70.988Z" transform="translate(-7.159 -24.849)" fill="#ead4c6"/>
    <path id="Контур_557" data-name="Контур 557" d="M460.573,86.108l-1-7.108-.5,6.983a1.852,1.852,0,0,1-1.87,1.746h-9.6a1.852,1.852,0,0,1-1.87-1.746l-.5-6.983-1,7.108a1.882,1.882,0,0,1-1.87,1.621H439V89.6h26.811v-1.87h-3.367A1.882,1.882,0,0,1,460.573,86.108Z" transform="translate(-0.382 -29.743)" fill="#7190c4"/>
    <path id="Контур_558" data-name="Контур 558" d="M448.117,55.741H446.87A1.837,1.837,0,0,1,445,53.87h0A1.837,1.837,0,0,1,446.87,52h1.247Z" transform="translate(-2.641 -19.578)" fill="#ead4c6"/>
    <path id="Контур_559" data-name="Контур 559" d="M471,52h1.247a1.837,1.837,0,0,1,1.87,1.87h0a1.837,1.837,0,0,1-1.87,1.871H471Z" transform="translate(-12.43 -19.578)" fill="#ead4c6"/>
    <path id="Контур_560" data-name="Контур 560" d="M456.17,59.094h0a7.132,7.132,0,0,1-7.17-7.17V46h14.341v5.923A7.132,7.132,0,0,1,456.17,59.094Z" transform="translate(-4.147 -17.319)" fill="#ead4c6"/>
    <path id="Контур_561" data-name="Контур 561" d="M458.923,60.223h0A5.961,5.961,0,0,1,453,54.3V50.247A1.251,1.251,0,0,1,454.247,49H463.6a1.251,1.251,0,0,1,1.247,1.247V54.3A5.961,5.961,0,0,1,458.923,60.223Z" transform="translate(-5.653 -18.448)" fill="#eedbcd"/>
    <path id="Контур_562" data-name="Контур 562" d="M516.811,86.211H490l1.434-9.353A8.121,8.121,0,0,1,499.477,70H507.4a8.169,8.169,0,0,1,8.043,6.859Z" transform="translate(-19.584 -26.355)" fill="#d686b5"/>
    <path id="Контур_563" data-name="Контур 563" d="M516.649,87.341H490.4l1.122-7.482A8.121,8.121,0,0,1,499.565,73h7.918a8.169,8.169,0,0,1,8.043,6.859Z" transform="translate(-19.734 -27.484)" fill="#c96fa6"/>
    <path id="Контур_564" data-name="Контур 564" d="M510.182,70.988h0A2.209,2.209,0,0,1,508,68.806V66h4.365v2.806A2.209,2.209,0,0,1,510.182,70.988Z" transform="translate(-26.361 -24.849)" fill="#ead4c6"/>
    <path id="Контур_565" data-name="Контур 565" d="M511.573,86.108l-1-7.108-.5,6.983a1.852,1.852,0,0,1-1.87,1.746h-9.6a1.852,1.852,0,0,1-1.87-1.746l-.5-6.983-1,7.108a1.882,1.882,0,0,1-1.871,1.621H490V89.6h26.811v-1.87h-3.367A1.882,1.882,0,0,1,511.573,86.108Z" transform="translate(-19.584 -29.743)" fill="#bd5698"/>
    <path id="Контур_566" data-name="Контур 566" d="M480.858,85h1.247a6.839,6.839,0,0,1,6.859,6.859H474A6.839,6.839,0,0,1,480.858,85Z" transform="translate(-13.56 -32.002)" fill="#f6b756"/>
    <path id="Контур_567" data-name="Контур 567" d="M482.612,83h0a5.588,5.588,0,0,1,5.612,5.612h0a1.251,1.251,0,0,1-1.247,1.247h-8.729A1.251,1.251,0,0,1,477,88.612h0A5.588,5.588,0,0,1,482.612,83Z" transform="translate(-14.689 -31.249)" fill="#fac77d"/>
    <path id="Контур_568" data-name="Контур 568" d="M488.47,71.235v1.247a6.235,6.235,0,0,1-12.47,0V70.923h0a6.267,6.267,0,0,1,10.662-4.115,6.124,6.124,0,0,1,1.808,4.115h0Z" transform="translate(-14.313 -24.472)" fill="#ead4c6"/>
    <path id="Контур_569" data-name="Контур 569" d="M487.652,78.118H474.559A1.544,1.544,0,0,1,473,76.559h0A1.544,1.544,0,0,1,474.559,75h13.094a1.544,1.544,0,0,1,1.559,1.559h0A1.544,1.544,0,0,1,487.652,78.118Z" transform="translate(-13.183 -28.237)" fill="#ead4c6"/>
    <path id="Контур_570" data-name="Контур 570" d="M488.4,73.676a6.249,6.249,0,0,1-12.1,0,6.275,6.275,0,0,1,10.475-2.868A7.292,7.292,0,0,1,488.4,73.676Z" transform="translate(-14.426 -25.978)" fill="#eedbcd"/>
    <path id="Контур_571" data-name="Контур 571" d="M499.117,55.741h-1.247A1.837,1.837,0,0,1,496,53.87h0A1.837,1.837,0,0,1,497.871,52h1.247Z" transform="translate(-21.843 -19.578)" fill="#ead4c6"/>
    <path id="Контур_572" data-name="Контур 572" d="M522,52h1.247a1.837,1.837,0,0,1,1.871,1.87h0a1.837,1.837,0,0,1-1.871,1.871H522Z" transform="translate(-31.632 -19.578)" fill="#ead4c6"/>
    <path id="Контур_573" data-name="Контур 573" d="M507.17,60.6h0a7.132,7.132,0,0,1-7.17-7.17V50h14.341v3.429A7.132,7.132,0,0,1,507.17,60.6Z" transform="translate(-23.349 -18.825)" fill="#ead4c6"/>
    <path id="Контур_574" data-name="Контур 574" d="M508.923,61.353h0A5.961,5.961,0,0,1,503,55.429V53.247A1.251,1.251,0,0,1,504.247,52H513.6a1.251,1.251,0,0,1,1.247,1.247v2.182A5.961,5.961,0,0,1,508.923,61.353Z" transform="translate(-24.478 -19.578)" fill="#eedbcd"/>
    <path id="Контур_575" data-name="Контур 575" d="M496.127,21.8a15.241,15.241,0,0,0-17.084,0h0a.862.862,0,0,0-.249-.187,15,15,0,0,0-8.293-2.432,14.647,14.647,0,0,0-8.23,2.432.861.861,0,0,0-.249.187h0A15.139,15.139,0,0,0,445,21.8c.125-5.674,2.993-10.787,7.482-14.528a29.569,29.569,0,0,1,36.163,0A19.365,19.365,0,0,1,496.127,21.8Z" transform="translate(-2.641 -0.414)" fill="#cf4055"/>
    <path id="Контур_576" data-name="Контур 576" d="M456.5,7.686A24.6,24.6,0,0,1,468.657,1.7,17.958,17.958,0,0,0,465.6,6.688a37.231,37.231,0,0,0-2.245,9.165,2.306,2.306,0,0,1-2.93,1.933,14.907,14.907,0,0,0-4.115-.561h-.062a3.721,3.721,0,0,1-3.118-5.736A31.973,31.973,0,0,1,456.5,7.686Z" transform="translate(-5.473 -0.64)" fill="#dc5d6b"/>
    <path id="Контур_577" data-name="Контур 577" d="M506.008,17.325h-.062a15.58,15.58,0,0,0-4.115.561,2.343,2.343,0,0,1-2.93-1.933,37.229,37.229,0,0,0-2.245-9.165A15.162,15.162,0,0,0,493.6,1.8a24.6,24.6,0,0,1,12.158,5.986,21.7,21.7,0,0,1,3.367,3.866A3.657,3.657,0,0,1,506.008,17.325Z" transform="translate(-20.939 -0.678)" fill="#dc5d6b"/>
    <g id="Сгруппировать_39" data-name="Сгруппировать 39" transform="translate(478.162 4.254)">
      <path id="Контур_578" data-name="Контур 578" d="M511.013,14.914a.77.77,0,0,1-.5-.249,24.133,24.133,0,0,0-2.868-3.367,20.278,20.278,0,0,0-4.863-3.3.614.614,0,1,1,.5-1.122,22.466,22.466,0,0,1,5.113,3.492,18.426,18.426,0,0,1,3.055,3.554.613.613,0,0,1-.187.873C511.263,14.852,511.138,14.914,511.013,14.914Z" transform="translate(-502.423 -6.823)" fill="#e47980"/>
    </g>
    <path id="Контур_579" data-name="Контур 579" d="M489.384,21.576h-.249a15,15,0,0,0-8.293-2.432,14.647,14.647,0,0,0-8.23,2.432H472.3a40.9,40.9,0,0,1,2.494-14.4C476.353,3.369,478.473,1,480.842,1s4.489,2.369,6.048,6.173A40.9,40.9,0,0,1,489.384,21.576Z" transform="translate(-12.92 -0.376)" fill="#cf4055"/>
    <path id="Контур_580" data-name="Контур 580" d="M478.264,17.647a1.9,1.9,0,0,1-2.369-2.058,39.559,39.559,0,0,1,2-9.041C479.137,3.12,480.82,1,482.192,1s3.055,2.12,4.3,5.549a38.82,38.82,0,0,1,2,9.041,1.922,1.922,0,0,1-2.369,2.058,16.956,16.956,0,0,0-3.928-.5A13.58,13.58,0,0,0,478.264,17.647Z" transform="translate(-14.27 -0.376)" fill="#dc5d6b"/>
    <path id="Контур_581" data-name="Контур 581" d="M472.307,40.5a2.5,2.5,0,0,1,.187.935v4.988A2.5,2.5,0,0,1,470,48.917v-5.8" transform="translate(-12.054 -15.248)" fill="#5c5f7d"/>
    <path id="Контур_582" data-name="Контур 582" d="M454.482,35a7.451,7.451,0,0,0-5.612,2.556,2.341,2.341,0,0,0-1.309.873A2.629,2.629,0,0,0,447,39.988v4.365a2.515,2.515,0,0,0,1.247,2.182,2.838,2.838,0,0,0,1.247.312V42.482h7.482A7.5,7.5,0,0,0,464.458,35Z" transform="translate(-3.394 -13.177)" fill="#5c5f7d"/>
    <path id="Контур_583" data-name="Контур 583" d="M460.353,40.612h-6.547A2.794,2.794,0,0,1,451,37.806h0A2.794,2.794,0,0,1,453.806,35h12.158A5.588,5.588,0,0,1,460.353,40.612Z" transform="translate(-4.9 -13.177)" fill="#6a6e86"/>
    <g id="Сгруппировать_78" data-name="Сгруппировать 78" transform="translate(437.985)">
      <path id="Контур_755" data-name="Контур 755" d="M496.292,50.815a9.376,9.376,0,0,0-2.806-5.3.67.67,0,0,0,.624-.624V31.175a4.129,4.129,0,0,0-.062-.935,10.727,10.727,0,0,0-2.93-6.547,10.094,10.094,0,0,0-14.59,0,10.572,10.572,0,0,0-2.93,6.547,4.719,4.719,0,0,0-.062.935V42.834a6.869,6.869,0,0,0-3.741-2.681V19.516a13.006,13.006,0,0,1,6.173,2.307c.062.062.125.125.187.125a.574.574,0,0,0,.624-.062,14.069,14.069,0,0,1,8.168-2.494,14.211,14.211,0,0,1,8.168,2.494.738.738,0,0,0,.623.062.655.655,0,0,0,.312-.561c-.125-5.674-2.868-10.974-7.731-15.026A28.4,28.4,0,0,0,467.922,0a28.814,28.814,0,0,0-18.456,6.36,20.329,20.329,0,0,0-7.731,15.026.655.655,0,0,0,.312.561.48.48,0,0,0,.624-.062,14.541,14.541,0,0,1,15.213-.686h-6.858a8.233,8.233,0,0,0-5.986,2.681,3.323,3.323,0,0,0-1.434,1,3.18,3.18,0,0,0-.686,1.933v4.365a3.678,3.678,0,0,0,.125.873,2.528,2.528,0,0,0-1.372,2.245,2.5,2.5,0,0,0,2.494,2.494.562.562,0,0,0,.312-.062,7.813,7.813,0,0,0,4.676,5.113v1.185h-.811a9.073,9.073,0,0,0-9.041,7.794l-1.309,8.293a.584.584,0,0,0,.5.686h.125a.671.671,0,0,0,.624-.5l1.309-8.355a7.923,7.923,0,0,1,7.856-6.734h.873a2.819,2.819,0,0,0,2.743,2.494,2.772,2.772,0,0,0,2.743-2.494h.935a7.828,7.828,0,0,1,5.175,1.933,2.207,2.207,0,0,0-1.683,2.12,1.725,1.725,0,0,0,.062.561.618.618,0,0,0-.5.686l1.122,8.854c0,.249-.062.5-.062.748v.125a.624.624,0,0,0,1.247,0v-.125A5.411,5.411,0,0,1,464.555,54a6.93,6.93,0,0,0,6.734,0,5.411,5.411,0,0,1,3.492,5.113v.125a.624.624,0,0,0,1.247,0v-.125a3.036,3.036,0,0,0-.062-.748l1.122-8.854a.618.618,0,0,0-.5-.686,1.726,1.726,0,0,0,.062-.561,2.079,2.079,0,0,0-1.559-2.058,8.049,8.049,0,0,1,5.237-2h.436a3.06,3.06,0,0,0,3.055,2.806,3.152,3.152,0,0,0,3.055-2.806h.436a8.02,8.02,0,0,1,7.856,6.734l1.559,8.355a.607.607,0,0,0,.624.5h.125a.647.647,0,0,0,.5-.748Zm-12.47-9.664a6.546,6.546,0,0,1-6.547-6.547V31.8h2.93a.631.631,0,0,0,.561-.374l.187.187h0c.062.062.125.062.125.125a.061.061,0,0,1,.062.062.375.375,0,0,0,.249.062h8.978v2.806A6.533,6.533,0,0,1,483.822,41.151ZM476.09,35.54h0a1.265,1.265,0,0,1-1.309-1.247,1.251,1.251,0,0,1,1.247-1.247V34.6A4.719,4.719,0,0,0,476.09,35.54Zm15.525-.935V33.046a1.247,1.247,0,1,1,0,2.494h-.062A4.722,4.722,0,0,0,491.615,34.6Zm-16.772-4.3a9.578,9.578,0,0,1,2.619-5.8,9.022,9.022,0,0,1,6.422-2.743,8.775,8.775,0,0,1,6.36,2.743,9.578,9.578,0,0,1,2.619,5.8c0,.249.062.5.062.811v1a2.9,2.9,0,0,0-1.247-.374v-.624a.589.589,0,0,0-.624-.624h-9.29l-1.434-1.683a.7.7,0,0,0-.686-.187.545.545,0,0,0-.374.561v1.247h-2.494a.589.589,0,0,0-.624.624v.624a2.248,2.248,0,0,0-1.247.374v-.873A1.4,1.4,0,0,1,474.843,30.3Zm-6.3,9.6h-.624a2.121,2.121,0,0,0-.624.062V19.391h1.247Zm-7.482-5.612a1.251,1.251,0,0,1-1.247,1.247h-.062a4.719,4.719,0,0,0,.062-.935v-.935a1.9,1.9,0,0,0,.5-.5A1.232,1.232,0,0,1,461.064,34.293Zm-1.247-3.118a1.816,1.816,0,0,1-1.247,1.746V28.182A11.2,11.2,0,0,0,459.817,27Zm8.105-29.928c2,0,3.99,2.12,5.487,5.736A39.043,39.043,0,0,1,475.841,20.2,16.054,16.054,0,0,0,460,20.264a39.043,39.043,0,0,1,2.432-13.218C463.932,3.367,465.927,1.247,467.922,1.247ZM485.63,7.295A18.938,18.938,0,0,1,492.8,20.2a15.982,15.982,0,0,0-7.794-2.058,15.507,15.507,0,0,0-7.918,2.12,40.194,40.194,0,0,0-2.494-13.717,13.684,13.684,0,0,0-3.3-5.113A27.516,27.516,0,0,1,485.63,7.295ZM450.838,18.144a15.334,15.334,0,0,0-7.794,2.058c.436-4.863,2.993-9.353,7.17-12.906a27.516,27.516,0,0,1,14.341-5.861,13.684,13.684,0,0,0-3.3,5.113,40.194,40.194,0,0,0-2.494,13.717A15.232,15.232,0,0,0,450.838,18.144Zm-6.609,8.667a1.749,1.749,0,0,1,.436-1.185,1.543,1.543,0,0,1,1-.624,1.363,1.363,0,0,0,.312-.187,6.869,6.869,0,0,1,5.175-2.369H460.5a6.859,6.859,0,0,1-6.859,6.235h-7.482a.589.589,0,0,0-.624.624v3.616c-.125-.062-.187-.062-.312-.125a1.861,1.861,0,0,1-.935-1.621V26.811Zm0,8.729a1.251,1.251,0,0,1-1.247-1.247,1.232,1.232,0,0,1,.748-1.122,1.9,1.9,0,0,0,.5.5V35.54Zm1.247-.935V34.23a2.121,2.121,0,0,0,.624.062.589.589,0,0,0,.624-.624V29.928h6.858a7.572,7.572,0,0,0,3.741-.935v4.676a.589.589,0,0,0,.624.624,2.121,2.121,0,0,0,.624-.062V34.6a6.511,6.511,0,0,1-4.614,6.235h0a6.148,6.148,0,0,1-3.866,0h0A6.511,6.511,0,0,1,445.476,34.6Zm8.105,9.353a1.559,1.559,0,1,1-3.117,0V42.211a6.588,6.588,0,0,0,3.117,0Zm1.247-.935V41.837a7.813,7.813,0,0,0,4.676-5.113c.125,0,.187.062.312.062a2.5,2.5,0,0,0,2.494-2.494,2.528,2.528,0,0,0-1.372-2.245,4.21,4.21,0,0,0,.125-.873V26.187a4.813,4.813,0,0,0-.125-.935,7.886,7.886,0,0,0,.748-3.429.589.589,0,0,0-.624-.624h-.187a14.446,14.446,0,0,1,5.175-1.683V40.153a6.817,6.817,0,0,0-4.739,4.8,9.135,9.135,0,0,0-5.612-1.933h-.873Zm6.235,4.427v.561a8.45,8.45,0,0,0,.125,1.247.893.893,0,0,1-.748-.935A.881.881,0,0,1,461.064,47.448Zm-.312,8.168-.686-5.549a2.351,2.351,0,0,0,1.309.436h.187a6.743,6.743,0,0,0,1.871,2.681A6.755,6.755,0,0,0,460.752,55.616Zm1.559-7.607V46.763a5.588,5.588,0,0,1,5.612-5.612h.5a2.047,2.047,0,0,1,1.372,1.871,1.193,1.193,0,0,1-1.247,1.247.708.708,0,0,1-.5-.187.669.669,0,0,1-.125-.374,1.276,1.276,0,0,1,.436-.811.617.617,0,0,0-.873-.873,2.621,2.621,0,0,0-.811,1.621,1.684,1.684,0,0,0,.436,1.309,2.03,2.03,0,0,0,1.434.624,2.456,2.456,0,0,0,2.494-2.494,3.459,3.459,0,0,0-.187-1.06,5.577,5.577,0,0,1,2.681,4.8v1.247a5.612,5.612,0,1,1-11.223-.062Zm10.163,5.113a7.433,7.433,0,0,0,1.871-2.681h.187A2.351,2.351,0,0,0,475.841,50l-.686,5.549A9.144,9.144,0,0,0,472.474,53.122Zm2.93-4.8a.993.993,0,0,1-.748.935,7.672,7.672,0,0,0,.125-1.247v-.561A.881.881,0,0,1,475.4,48.321Zm.312-4.053h-.935V36.412a2.9,2.9,0,0,0,1.247.374.562.562,0,0,0,.312-.062,7.737,7.737,0,0,0,4.365,4.988v1.247h-.374A9.879,9.879,0,0,0,475.716,44.269Zm9.914-.312a1.808,1.808,0,1,1-3.616,0V42.149a9.025,9.025,0,0,0,1.87.249,8.9,8.9,0,0,0,1.808-.187v1.746Zm1.247-.935V41.775a7.788,7.788,0,0,0,4.427-5.05c.125,0,.187.062.312.062a2.248,2.248,0,0,0,1.247-.374v7.856h-1a8.917,8.917,0,0,0-4.552-1.247Z" transform="translate(-437.985)" fill="#39426a"/>
      <path id="Контур_756" data-name="Контур 756" d="M447.727,78.294a.619.619,0,0,0-.686.561l-1.247,9.789a.619.619,0,0,0,.561.686h.062a.663.663,0,0,0,.624-.561l1.247-9.789A.619.619,0,0,0,447.727,78.294Z" transform="translate(-440.921 -29.474)" fill="#39426a"/>
      <path id="Контур_757" data-name="Контур 757" d="M522.761,78.3a.731.731,0,0,0-.561.686l1.247,9.789a.663.663,0,0,0,.623.561h.062a.731.731,0,0,0,.561-.686l-1.247-9.789A.73.73,0,0,0,522.761,78.3Z" transform="translate(-469.692 -29.48)" fill="#39426a"/>
      <circle id="Эллипс_69" data-name="Эллипс 69" cx="0.935" cy="0.935" r="0.935" transform="translate(26.197 46.763)" fill="#39426a"/>
      <circle id="Эллипс_70" data-name="Эллипс 70" cx="0.935" cy="0.935" r="0.935" transform="translate(31.808 46.763)" fill="#39426a"/>
      <circle id="Эллипс_71" data-name="Эллипс 71" cx="0.935" cy="0.935" r="0.935" transform="translate(9.986 31.799)" fill="#39426a"/>
      <circle id="Эллипс_72" data-name="Эллипс 72" cx="0.935" cy="0.935" r="0.935" transform="translate(16.221 31.799)" fill="#39426a"/>
      <circle id="Эллипс_73" data-name="Эллипс 73" cx="0.935" cy="0.935" r="0.935" transform="translate(41.784 32.422)" fill="#39426a"/>
      <circle id="Эллипс_74" data-name="Эллипс 74" cx="0.935" cy="0.935" r="0.935" transform="translate(48.019 32.422)" fill="#39426a"/>
      <path id="Контур_758" data-name="Контур 758" d="M458.994,62.5a3.2,3.2,0,0,0,2.307-.935.617.617,0,1,0-.873-.873,2.113,2.113,0,0,1-2.868,0,.617.617,0,1,0-.873.873A3.2,3.2,0,0,0,458.994,62.5Z" transform="translate(-444.956 -22.778)" fill="#39426a"/>
      <path id="Контур_759" data-name="Контур 759" d="M511.428,60.687a2.113,2.113,0,0,1-2.868,0,.617.617,0,1,0-.873.873,3.313,3.313,0,0,0,4.614,0,.617.617,0,0,0-.873-.873Z" transform="translate(-464.157 -22.778)" fill="#39426a"/>
      <path id="Контур_760" data-name="Контур 760" d="M485.706,82.287a1.2,1.2,0,0,1-1.746,0,.617.617,0,0,0-.873.873,2.462,2.462,0,0,0,1.746.748,2.359,2.359,0,0,0,1.746-.748.617.617,0,0,0-.873-.873Z" transform="translate(-454.895 -30.911)" fill="#39426a"/>
    </g>
  </g>
</svg>
