<?xml version="1.0" encoding="utf-8"?>
<!-- Generator: Adobe Illustrator 24.2.1, SVG Export Plug-In . SVG Version: 6.00 Build 0)  -->
<svg version="1.1" id="&#x421;&#x43B;&#x43E;&#x439;_1" xmlns="http://www.w3.org/2000/svg" xmlns:xlink="http://www.w3.org/1999/xlink" x="0px" y="0px" viewBox="0 0 40 36.7" xml:space="preserve">

<g>
	<path class="st0" d="M30.8,0c-4.5,0-8.3,3.2-9,7.6c-0.2,1.8-0.3-1.5,1.1,21.6c0.3,4.2,3.7,7.4,7.9,7.4c4.2,0,7.6-3.3,7.9-7.4
		c0.3-5.5,0.9-14.4,1.3-20.1C40,4.1,35.9,0,30.8,0z M32.8,1.9c2.6,0.7,4.6,2.7,5.3,5.3l0,0c-4.7,1.5-9.8,1.5-14.5,0
		C24.7,3.2,28.8,0.8,32.8,1.9z M37.1,29.1c-0.2,3.3-2.9,5.9-6.3,5.9l0,0c-3.3,0-6-2.6-6.3-5.9l-0.6-10.1c4.5,1.3,9.3,1.3,13.8,0
		L37.1,29.1z M38.3,9.1l-0.5,8.2c-4.6,1.4-9.4,1.4-14,0c-0.6-9.3-0.5-7.9-0.5-8.4l0,0c4.6,1.4,9.5,1.5,14.2,0.3
		C38.4,8.9,38.3,8.8,38.3,9.1z"/>
	<path class="st0" d="M9.2,0c-4.5,0-8.3,3.2-9,7.6c-0.2,1.8-0.3-1.5,1.1,21.6c0.3,4.2,3.7,7.4,7.9,7.4c4.2,0,7.6-3.3,7.9-7.4
		c0.3-5.5,0.9-14.4,1.3-20.1C18.3,4.1,14.2,0,9.2,0z M15.4,29.1c-0.2,3.3-2.9,5.9-6.3,5.9v0c-3.3,0-6-2.6-6.3-5.9L2.3,19.1
		c4.5,1.3,9.3,1.3,13.8,0L15.4,29.1z M16.7,9.1l-0.5,8.2c-4.6,1.4-9.4,1.4-14,0C1.6,8,1.7,9.3,1.7,8.9c4.6,1.4,9.5,1.5,14.2,0.3
		C16.8,8.9,16.7,8.8,16.7,9.1z M1.9,7.2c1.1-4,5.2-6.4,9.2-5.3c2.6,0.7,4.6,2.7,5.3,5.3C11.7,8.7,6.6,8.7,1.9,7.2z"/>
</g>
</svg>
