<?xml version="1.0" encoding="utf-8"?>
<!-- Generator: Adobe Illustrator 24.2.1, SVG Export Plug-In . SVG Version: 6.00 Build 0)  -->
<svg version="1.1" id="&#x421;&#x43B;&#x43E;&#x439;_1" xmlns="http://www.w3.org/2000/svg" xmlns:xlink="http://www.w3.org/1999/xlink" x="0px" y="0px" viewBox="0 0 36.2 40.8" xml:space="preserve">

<path class="st0" d="M34.7,0.8l0-0.4L34.7,0.8H1.5c-0.4,0-0.7,0.3-0.7,0.7v37.8c0,0.4,0.3,0.7,0.7,0.7h33.2h0c0.4,0,0.7-0.3,0.7-0.7
	V1.5C35.4,1.1,35.1,0.8,34.7,0.8z M24.3,2.2v8.3H11.8l0-8.3H24.3z M24.3,38.6H11.8v-8.3h12.5L24.3,38.6z M34,38.6h-8.3v-9
	c0-0.4-0.3-0.7-0.7-0.7H11.1c-0.4,0-0.7,0.3-0.7,0.7v9H2.2V21.1h10.5l0.1,0.3c0.6,2.9,3.4,4.9,6.3,4.3c2.2-0.4,3.9-2.1,4.3-4.3
	l0.1-0.3H34L34,38.6z M22.1,21.1l-0.1,0.5c-0.5,1.7-2.1,2.8-3.8,2.8c-0.4,0-0.8-0.1-1.2-0.2c-1.3-0.4-2.3-1.4-2.7-2.7l-0.1-0.5H22.1
	z M14.1,19.7l0.1-0.5c0.6-2.1,2.9-3.3,5-2.7c1.3,0.4,2.3,1.4,2.7,2.7l0.1,0.5H14.1z M34,19.7H23.5l-0.1-0.3
	c-0.6-2.9-3.4-4.9-6.3-4.3c-2.2,0.4-3.9,2.1-4.3,4.3l-0.1,0.3H2.2V2.2h8.3v9c0,0.4,0.3,0.7,0.7,0.7H25c0,0,0,0,0,0
	c0.4,0,0.7-0.3,0.7-0.7v-9H34L34,19.7z"/>
</svg>
