<?xml version="1.0" encoding="utf-8"?>
<!-- Generator: Adobe Illustrator 24.2.1, SVG Export Plug-In . SVG Version: 6.00 Build 0)  -->
<svg version="1.1" id="&#x421;&#x43B;&#x43E;&#x439;_1" xmlns="http://www.w3.org/2000/svg" xmlns:xlink="http://www.w3.org/1999/xlink" x="0px" y="0px" viewBox="0 0 36.5 40.6" xml:space="preserve">

<g>
	<path class="st0" d="M32.2,29.1C32.2,29.1,32.2,29.1,32.2,29.1c-1,0-1.9,0.4-2.6,1.1c-0.7,0.7-1.1,1.6-1.1,2.6
		c0,2.1,1.7,3.7,3.7,3.7c2.1,0,3.7-1.7,3.7-3.7C35.9,30.8,34.2,29.1,32.2,29.1z M32.2,35C32.2,35,32.2,35,32.2,35
		c-1.2,0-2.1-0.9-2.1-2.1v0c0-1.2,0.9-2.1,2.1-2.1c0.6,0,1.1,0.2,1.5,0.6c0.4,0.4,0.6,0.9,0.6,1.5C34.3,34,33.3,35,32.2,35z"/>
	<path class="st0" d="M24.4,7.9L11.8,2.8V1.4c0-0.4-0.4-0.8-0.8-0.8S10.2,1,10.2,1.4v24.3l-0.3,0c-5.3,0.4-9.3,3.4-9.3,7.1
		c0,4,4.6,7.1,10.4,7.1s10.4-3.1,10.4-7.1c0-3.7-4-6.7-9.3-7.1l-0.3,0V14.5l12.6-5.1c0.2-0.1,0.4-0.2,0.5-0.5
		C25,8.5,24.8,8.1,24.4,7.9z M12.2,27.4c4.4,0.4,7.6,2.7,7.6,5.5c0,3-4,5.5-8.8,5.5c-4.8,0-8.8-2.5-8.8-5.5c0-2.7,3.3-5.1,7.6-5.5
		l0.3,0v5.5c0,0.4,0.4,0.8,0.8,0.8s0.8-0.4,0.8-0.8v-5.5L12.2,27.4z M11.8,12.7V4.6l10.1,4.1L11.8,12.7z"/>
</g>
</svg>
