<?xml version="1.0" encoding="utf-8"?>
<!-- Generator: Adobe Illustrator 24.2.1, SVG Export Plug-In . SVG Version: 6.00 Build 0)  -->
<svg version="1.1" id="&#x421;&#x43B;&#x43E;&#x439;_1" xmlns="http://www.w3.org/2000/svg" xmlns:xlink="http://www.w3.org/1999/xlink" x="0px" y="0px" viewBox="0 0 29.8 42.3" xml:space="preserve">

<g>
	<path class="st0" d="M28.9,10.4h-28c-0.5,0-0.9,0.4-0.9,0.9v4c0,0.5,0.4,0.9,0.9,0.9H2c0.3,4.5,3,8.4,6.8,10.5L4.2,40.4H3.9
		c-0.5,0-0.9,0.4-0.9,0.9s0.4,0.9,0.9,0.9h2c0.5,0,0.9-0.4,0.9-0.9c0-0.4-0.3-0.7-0.7-0.8l4.4-13.1c1.4,0.5,2.9,0.8,4.4,0.8
		c1.6,0,3-0.3,4.4-0.8l4.4,13.1c-0.4,0.1-0.7,0.4-0.7,0.8c0,0.5,0.4,0.9,0.9,0.9h2c0.5,0,0.9-0.4,0.9-0.9s-0.4-0.9-0.9-0.9h-0.4
		l-4.6-13.8c3.8-2,6.5-5.9,6.8-10.5h1.2c0.5,0,0.9-0.4,0.9-0.9v-4C29.8,10.8,29.4,10.4,28.9,10.4z M28,14.4h-1.1
		c-0.5,0-0.9,0.4-0.9,0.9c0,6.1-5,11.1-11.1,11.1c-6.1,0-11.1-5-11.1-11.1c0-0.5-0.4-0.9-0.9-0.9H1.8v-2.3H28V14.4z"/>
	<path class="st0" d="M19,6.5c0.5,0.4,0.7,0.5,0.7,0.8c0,0.5,0.4,0.9,0.9,0.9s0.9-0.4,0.9-0.9C21.5,6,20.6,5.4,20,5
		c-0.5-0.4-0.7-0.5-0.7-0.7c0.1-0.9,0.5-1.8,1.2-2.4c0.3-0.3,0.3-0.9,0-1.2c-0.3-0.3-0.9-0.3-1.2,0c-0.9,1-1.5,2.2-1.7,3.5
		c0,0,0,0.1,0,0.1C17.6,5.4,18.4,6.1,19,6.5z"/>
	<path class="st0" d="M9,6.5C9.6,6.8,9.7,7,9.7,7.2c0,0.5,0.4,0.9,0.9,0.9s0.9-0.4,0.9-0.9C11.5,6,10.6,5.4,10,5
		C9.5,4.7,9.3,4.5,9.3,4.3c0.1-0.9,0.5-1.8,1.2-2.4c0.3-0.3,0.3-0.9,0-1.2c-0.4-0.3-0.9-0.3-1.2,0c-0.9,1-1.5,2.2-1.7,3.5
		c0,0,0,0.1,0,0.1C7.6,5.4,8.4,6.1,9,6.5z"/>
</g>
</svg>
