<?xml version="1.0" encoding="utf-8"?>
<!-- Generator: Adobe Illustrator 24.2.1, SVG Export Plug-In . SVG Version: 6.00 Build 0)  -->
<svg version="1.1" id="&#x421;&#x43B;&#x43E;&#x439;_1" xmlns="http://www.w3.org/2000/svg" xmlns:xlink="http://www.w3.org/1999/xlink" x="0px" y="0px" viewBox="0 0 41.8 34" xml:space="preserve">

<path class="st0" d="M40.9,32h-0.7l-2.5-7.4c-0.1-0.4-0.5-0.6-0.8-0.6h-4.5v-2.3h3.1c0.5,0,0.9-0.4,0.9-0.9S36,20,35.5,20h-3.1v-2.3
	h3.1c0.5,0,0.9-0.4,0.9-0.9S36,16,35.5,16H18.2c-0.5,0-0.9,0.4-0.9,0.9s0.4,0.9,0.9,0.9h3.1V20h-3.1c-0.5,0-0.9,0.4-0.9,0.9
	s0.4,0.9,0.9,0.9h3.1V24h-4.5c-0.4,0-0.7,0.2-0.8,0.6L13.6,32H7.1v-7.6h1.8c0,0,0.1,0,0.1,0c1.7,0,3.2-1.4,3.2-3.1
	c0-0.2,0-0.4,0-0.5l-2-17.4C9.8,1.5,8.2,0,6.2,0c0,0,0,0,0,0C4.2,0,2.6,1.5,2.4,3.4l-2,17.3c-0.2,1.7,1,3.4,2.7,3.6
	c0.2,0,0.3,0,0.4,0c0,0,0,0,0.1,0h1.8V32H0.9C0.4,32,0,32.4,0,32.9s0.4,0.9,0.9,0.9h40c0.5,0,0.9-0.4,0.9-0.9S41.4,32,40.9,32z
	 M3.5,22.7c-0.1,0-0.2,0-0.2,0c-0.8-0.1-1.3-0.8-1.2-1.7l2-17.3c0.2-1.1,1-1.9,2.1-1.9c1.1,0,2,0.8,2.1,1.9l2,17.4
	c0,0.1,0,0.2,0,0.2c0,0.8-0.7,1.4-1.5,1.4H6.2c0,0,0,0,0,0s0,0,0,0H3.5z M23.1,17.7h7.6V20h-7.6V17.7z M23.1,21.7h7.6V24h-7.6V21.7z
	 M17.5,25.7h18.7L37,28H16.8L17.5,25.7z M16.2,29.7h21.4l0.8,2.3H15.4L16.2,29.7z"/>
</svg>
