<?xml version="1.0" encoding="utf-8"?>
<!-- Generator: Adobe Illustrator 24.2.1, SVG Export Plug-In . SVG Version: 6.00 Build 0)  -->
<svg version="1.1" id="&#x421;&#x43B;&#x43E;&#x439;_1" xmlns="http://www.w3.org/2000/svg" xmlns:xlink="http://www.w3.org/1999/xlink" x="0px" y="0px" viewBox="0 0 42 42" xml:space="preserve">

<g>
	<path class="st0" d="M39.8,20.4L21.6,2.2C21.4,2.1,21.2,2,21,2c-0.2,0-0.4,0.1-0.6,0.2L2.2,20.4C2.1,20.6,2,20.8,2,21v18.2
		C2,39.6,2.4,40,2.8,40h36.4c0.5,0,0.8-0.4,0.8-0.8V21C40,20.8,39.9,20.6,39.8,20.4z M23.8,38.4h-5.6v-9.3h5.6V38.4z M38.4,38.4
		H25.5V28.3c0-0.5-0.4-0.8-0.8-0.8h-7.3c-0.5,0-0.8,0.4-0.8,0.8v10.1H3.6v-17L21,4l17.4,17.4V38.4z"/>
	<path class="st0" d="M18.4,15.6c0,1.5,1.2,2.6,2.6,2.6c1.5,0,2.6-1.2,2.6-2.6c0-1.5-1.2-2.6-2.6-2.6C19.5,12.9,18.4,14.1,18.4,15.6
		z"/>
</g>
</svg>
