<?xml version="1.0" encoding="utf-8"?>
<!-- Generator: Adobe Illustrator 24.2.1, SVG Export Plug-In . SVG Version: 6.00 Build 0)  -->
<svg version="1.1" id="&#x421;&#x43B;&#x43E;&#x439;_1" xmlns="http://www.w3.org/2000/svg" xmlns:xlink="http://www.w3.org/1999/xlink" x="0px" y="0px" viewBox="0 0 42.3 42" xml:space="preserve">

<g>
	<path class="st0" d="M39.9,20.4L21.8,2.2C21.6,2.1,21.4,2,21.2,2c0,0,0,0,0,0c-0.2,0-0.4,0.1-0.6,0.2L2.4,20.4
		c-0.3,0.3-0.3,0.8,0,1.2c0.3,0.3,0.8,0.3,1.2,0l4.1-4.1v21.7C7.6,39.6,8,40,8.5,40h25.4c0.5,0,0.8-0.4,0.8-0.8V17.5l4.1,4.1
		c0.3,0.3,0.9,0.3,1.2,0c0.2-0.2,0.2-0.4,0.2-0.6C40.2,20.8,40.1,20.6,39.9,20.4z M33.1,38.4H9.3V15.9L21.2,4l11.9,11.9V38.4z"/>
	<path class="st0" d="M13.1,24.6c0,3.8,2.7,7.2,6.5,7.9l0.8,0.2v1c0,0.5,0.3,0.9,0.8,0.9c0,0,0,0,0,0c0.4,0,0.8-0.4,0.8-0.8l0-1.1
		l0.8-0.2c3.8-0.8,6.5-4.1,6.5-7.9c0-5.7-5.6-11.7-8.1-11.7C17.1,12.9,13.1,18.7,13.1,24.6z M21.6,14.7c3.4,2.2,5.6,5.8,6.1,9.8
		l0,0.1c0,2.7-1.7,5.2-4.3,6.1L22,31.2v-4.7c0-0.5-0.3-0.8-0.8-0.9c-0.2,0-0.4,0.1-0.6,0.2c-0.2,0.2-0.2,0.4-0.3,0.6l0,4.8L19,30.7
		c-2.6-0.9-4.3-3.3-4.3-6.1c0-4.9,3.2-10.1,6.3-10.1h0.3L21.6,14.7z"/>
</g>
</svg>
