<?xml version="1.0" encoding="utf-8"?>
<!-- Generator: Adobe Illustrator 24.2.1, SVG Export Plug-In . SVG Version: 6.00 Build 0)  -->
<svg version="1.1" id="&#x421;&#x43B;&#x43E;&#x439;_1" xmlns="http://www.w3.org/2000/svg" xmlns:xlink="http://www.w3.org/1999/xlink" x="0px" y="0px" viewBox="0 0 29.5 40.6" xml:space="preserve">

<g>
	<path class="st0" d="M16.1,25.3c-0.4-0.4-0.9-0.5-1.4-0.5c-0.8,0-1.4,0.4-1.8,1.1c-0.5,1-0.1,2.2,0.9,2.7l0.2,0.1v4.2h1.5v-4.2
		l0.2-0.1c0.7-0.3,1.1-1,1.1-1.8l0,0l0.3,0l-0.3,0C16.7,26.1,16.5,25.6,16.1,25.3z"/>
	<path class="st0" d="M25.8,17.8v-6.1c0-6.1-5-11.1-11.1-11.1S3.7,5.6,3.7,11.7v6.1H0.6v9.9C0.6,34.5,6.1,40,12.9,40h3.7
		c6.8,0,12.3-5.5,12.3-12.3v-9.9H25.8z M5.5,11.7c0-5.3,4-9.2,9.5-9.2c7.1,0,9,6,9,9.2v6.1H5.5V11.7z M16.6,38.8h-3.7
		c-6.1,0-11.1-5-11.1-11.1v-8.6h25.8l0,8.6C27.7,33.8,22.7,38.7,16.6,38.8z"/>
</g>
</svg>
