<?xml version="1.0" encoding="utf-8"?>
<!-- Generator: Adobe Illustrator 24.2.1, SVG Export Plug-In . SVG Version: 6.00 Build 0)  -->
<svg version="1.1" id="&#x421;&#x43B;&#x43E;&#x439;_1" xmlns="http://www.w3.org/2000/svg" xmlns:xlink="http://www.w3.org/1999/xlink" x="0px" y="0px" viewBox="0 0 33.7 41.8" xml:space="preserve">

<g>
	<path class="st0" d="M16.9,0C7.6,0,0,7.6,0,16.9c0,13.6,15.7,24.3,16.4,24.7c0.1,0.1,0.3,0.1,0.5,0.1c0.2,0,0.3,0,0.5-0.1
		c0.7-0.4,16.4-11.1,16.4-24.7C33.7,7.6,26.2,0,16.9,0z M16.9,39.8C14.2,37.9,1.7,28.3,1.7,16.9c0-8.3,6.8-15.1,15.1-15.1
		S32,8.5,32,16.9C32,28.3,19.5,37.9,16.9,39.8z"/>
	<path class="st0" d="M19.5,9.3h-6.7c-0.5,0-0.9,0.4-0.9,0.9v16c0,0.5,0.4,0.9,0.9,0.9s0.9-0.4,0.9-0.9v-7.1h5.8
		c2.7,0,4.9-2.2,4.9-4.9C24.4,11.5,22.2,9.3,19.5,9.3z M19.5,17.3h-5.8v-6.3h5.8c1.7,0,3.1,1.4,3.1,3.1
		C22.7,15.9,21.3,17.3,19.5,17.3z"/>
</g>
</svg>
