<svg xmlns="http://www.w3.org/2000/svg" width="60" height="53.714" viewBox="0 0 60 53.714">
  <g id="Сгруппировать_708" data-name="Сгруппировать 708" transform="translate(0 -1157.4)">
    <g id="Сгруппировать_117" data-name="Сгруппировать 117" transform="translate(4.317 1166.225)">
      <g id="Сгруппировать_116" data-name="Сгруппировать 116" transform="translate(0 0)">
        <path id="Контур_400" data-name="Контур 400" d="M61.848,1190.03v8.127l-5.9,1.587c-.127.318-.19.571-.317.889a16.54,16.54,0,0,1-6.222,7.429v7.556h-9.46l-1.651-5.016H23.5l-1.651,5.016h-9.4v-8.952A16.039,16.039,0,0,1,6.8,1194.411v-.825h0a16.286,16.286,0,0,1,16.19-15.429H40.578a14.344,14.344,0,0,1,4.381.635h.127c0-.127.063-.318.063-.444a8.728,8.728,0,0,1,8.571-7.048v4.381a8.742,8.742,0,0,1-1.968,5.524,6.952,6.952,0,0,1-.635.7l-.063.063a16.494,16.494,0,0,1,3.937,4.889l.381.762,1.333.508Z" transform="translate(-6.8 -1171.3)" fill="#c96fa6"/>
      </g>
    </g>
    <path id="Контур_401" data-name="Контур 401" d="M55.308,1187.618l-.381-.762a17.34,17.34,0,0,0-3.937-4.889l.063-.063.635-.635.063-.063h0a8.517,8.517,0,0,0,1.968-5.524V1171.3a8.78,8.78,0,0,0-8.571,7.048h0a14.084,14.084,0,0,0-2.349-.191H21.53a14.741,14.741,0,0,0-14.73,14.73v.7h0a14.655,14.655,0,0,0,14.667,13.9h21.27a14.684,14.684,0,0,0,10.413-4.318,13.65,13.65,0,0,0,2.032-2.6h.381a4.98,4.98,0,0,0,.317-.889l5.9-1.587v-8.127Z" transform="translate(-2.483 -5.075)" fill="#d686b5"/>
    <circle id="Эллипс_56" data-name="Эллипс 56" cx="1.587" cy="1.587" r="1.587" transform="translate(42.476 1181.21)" fill="#878c9f"/>
    <g id="Сгруппировать_119" data-name="Сгруппировать 119" transform="translate(7.492 1176.194)">
      <g id="Сгруппировать_118" data-name="Сгруппировать 118" transform="translate(0 0)">
        <path id="Контур_402" data-name="Контур 402" d="M13.07,1201.794a1.261,1.261,0,0,1-1.27-1.206v-.762A12.79,12.79,0,0,1,24.625,1187a1.27,1.27,0,1,1,0,2.54,10.494,10.494,0,0,0-7.3,2.984,10.286,10.286,0,0,0-3.048,7.3v.635a1.232,1.232,0,0,1-1.206,1.333Z" transform="translate(-11.8 -1187)" fill="#e49fc6"/>
      </g>
    </g>
    <circle id="Эллипс_57" data-name="Эллипс 57" cx="9.397" cy="9.397" r="9.397" transform="translate(19.365 1158.098)" fill="#e69c4b"/>
    <circle id="Эллипс_58" data-name="Эллипс 58" cx="6.857" cy="6.857" r="6.857" transform="translate(21.905 1160.638)" fill="#ecaa63"/>
    <g id="Сгруппировать_120" data-name="Сгруппировать 120" transform="translate(0 1157.4)">
      <path id="Контур_403" data-name="Контур 403" d="M59.556,1184.384l-6.222-2.349a17.423,17.423,0,0,0-3.873-5.206,9.466,9.466,0,0,0,2.413-6.286v-4.381a.636.636,0,0,0-.635-.635,9.434,9.434,0,0,0-9.143,7.365,17.27,17.27,0,0,0-4-.508h-.7a10.189,10.189,0,0,0,1.333-5.016,9.968,9.968,0,1,0-19.937,0,10.189,10.189,0,0,0,1.333,5.016A16.9,16.9,0,0,0,3.81,1188,4.331,4.331,0,0,0,0,1192.321v1.9a.636.636,0,0,0,.635.635.6.6,0,0,0,.635-.635v-1.9a3.079,3.079,0,0,1,2.476-3.048,15.9,15.9,0,0,0,1.587,7.048,16.393,16.393,0,0,0,4.063,5.46v8.7a.636.636,0,0,0,.635.635h9.4a.61.61,0,0,0,.571-.444l1.524-4.571h13.9l1.524,4.571a.61.61,0,0,0,.571.444h9.4a.636.636,0,0,0,.635-.635v-7.238a16.857,16.857,0,0,0,6.413-8.127l5.587-1.524a.61.61,0,0,0,.444-.571v-8.127A.849.849,0,0,0,59.556,1184.384Zm-30.794-25.651A8.762,8.762,0,1,1,20,1167.5,8.779,8.779,0,0,1,28.762,1158.733Zm29.968,33.9-5.46,1.46a.671.671,0,0,0-.444.381,15.481,15.481,0,0,1-6.349,8,.647.647,0,0,0-.317.508v6.921H37.9l-1.524-4.571a.61.61,0,0,0-.571-.444H21.016a.61.61,0,0,0-.571.444l-1.524,4.571H10.6v-8.318a.494.494,0,0,0-.19-.444,15.582,15.582,0,0,1-5.4-11.809,15.608,15.608,0,0,1,15.619-15.619h.317a10.2,10.2,0,0,0,2.984,2.476H19.365a.635.635,0,1,0,0,1.27H38.1a.635.635,0,1,0,0-1.27H33.524a10.2,10.2,0,0,0,2.984-2.476H38.1a14.52,14.52,0,0,1,4.317.635.675.675,0,0,0,.508-.063.642.642,0,0,0,.254-.444,8.108,8.108,0,0,1,7.429-6.921v3.746a8.063,8.063,0,0,1-2.476,5.841.686.686,0,0,0-.19.444.479.479,0,0,0,.254.444,15.531,15.531,0,0,1,4.127,5.4.765.765,0,0,0,.317.317l6.1,2.286Z" transform="translate(0 -1157.4)" fill="#39426a"/>
      <path id="Контур_404" data-name="Контур 404" d="M44,1173.067H39.935a.635.635,0,1,0,0,1.27h2.476v1.27a.636.636,0,0,0,.635.635.6.6,0,0,0,.635-.635v-1.27H44a2.794,2.794,0,1,0,0-5.587h-1.9a1.587,1.587,0,0,1,0-3.175h4.063a.635.635,0,1,0,0-1.27H43.681v-1.27a.636.636,0,0,0-.635-.635.6.6,0,0,0-.635.635v1.27h-.317a2.794,2.794,0,0,0,0,5.587H44a1.587,1.587,0,1,1,0,3.175Z" transform="translate(-14.348 -1159.225)" fill="#f4e8de"/>
      <path id="Контур_405" data-name="Контур 405" d="M68.159,1194a2.159,2.159,0,1,0,2.159,2.159A2.141,2.141,0,0,0,68.159,1194Zm0,3.111a.952.952,0,1,1,.952-.952A1.024,1.024,0,0,1,68.159,1197.111Z" transform="translate(-24.095 -1170.762)" fill="#39426a"/>
    </g>
  </g>
</svg>
