<?xml version="1.0" encoding="utf-8"?>
<!-- Generator: Adobe Illustrator 24.2.1, SVG Export Plug-In . SVG Version: 6.00 Build 0)  -->
<svg version="1.1" id="&#x421;&#x43B;&#x43E;&#x439;_1" xmlns="http://www.w3.org/2000/svg" xmlns:xlink="http://www.w3.org/1999/xlink" x="0px" y="0px" viewBox="0 0 42.1 34" xml:space="preserve">

<path class="st0" d="M21.4,0C21.4,0,21.4,0,21.4,0c-0.1,0-0.2,0-0.2,0s-0.1,0-0.1,0c0,0-0.1,0-0.1,0C18.9,0.6,0.4,5.5,0.4,11.9
	c0,0.5,0.4,0.9,0.9,0.9h19.1v16.1L8.7,28l-6.8-8.7c-0.3-0.4-0.8-0.5-1.2-0.2c-0.4,0.3-0.5,0.8-0.2,1.2l7,9c0.2,0.2,0.4,0.3,0.6,0.3
	l4.1,0.3l-0.9,2.6c-0.2,0.5,0.1,1,0.6,1.1c0.1,0,0.2,0,0.3,0c0.4,0,0.7-0.2,0.8-0.6l1-3c0,0,0,0,0,0l18.5,1.2
	c-0.1,0.1-0.2,0.3-0.2,0.5v1c0,0.5,0.4,0.9,0.9,0.9s0.9-0.4,0.9-0.9v-1c0-0.1,0-0.3-0.1-0.4l4.2,0.3c0,0,0,0,0.1,0
	c0.5,0,0.8-0.4,0.9-0.8c0-0.5-0.3-0.9-0.8-0.9l-16.2-1.1c0,0,0,0,0,0V12.8h19.1c0.5,0,0.9-0.4,0.9-0.9C42.1,5.5,23.6,0.6,21.4,0z
	 M15.6,3.5c-2.5,2-4.9,4.6-5.2,7.5H2.3C3.5,8.3,9.7,5.5,15.6,3.5z M12.2,11c0.5-3.5,5.3-6.9,8.2-8.6V11H12.2z M22.1,2.4
	c2.9,1.7,7.7,5.2,8.2,8.6h-8.2V2.4z M32.1,11c-0.3-2.9-2.8-5.6-5.2-7.5c5.9,2,12.1,4.9,13.3,7.5H32.1z"/>
</svg>
