<svg xmlns="http://www.w3.org/2000/svg" width="31.944" height="40.292" viewBox="0 0 31.944 40.292">
  <path id="&#x41A;&#x43E;&#x43D;&#x442;&#x443;&#x440;_1589" data-name="&#x41A;&#x43E;&#x43D;&#x442;&#x443;&#x440; 1589" d="M36.644,64.819a4.168,4.168,0,0,0-4.164-4.164H14.993V54.826h.833a.833.833,0,0,0,0-1.665h-.833V44.833A.833.833,0,0,0,14.16,44H5.833A.833.833,0,0,0,5,44.833V64.819a.833.833,0,0,0,.833.833H7.681A26.839,26.839,0,0,1,6.725,82.83.833.833,0,0,0,7.5,83.972c25.1,0,23.665.186,24.026-.4.3-.49.037-.809-.456-1.8a9.149,9.149,0,0,1-.374-7.31A10.828,10.828,0,0,0,36.644,64.819Zm-10.826,9.16H24.153a9.172,9.172,0,0,1-9.123-8.327H34.941A9.173,9.173,0,0,1,25.819,73.979ZM32.481,62.32a2.5,2.5,0,0,1,2.356,1.665H14.993V62.32ZM13.327,45.665v1.665H6.665V45.665ZM6.665,49h6.662V53.16H12.263a1.662,1.662,0,1,0,0,1.665h1.064v9.16H6.665Zm22.806,33.31H8.7a28.385,28.385,0,0,0,.761-16.4c-.089-.356-.652-.257,3.908-.257a10.832,10.832,0,0,0,10.783,9.993,14.527,14.527,0,0,0,4.578-.41A10.814,10.814,0,0,0,29.471,82.306Z" transform="translate(-4.85 -43.85)" stroke="#fff" stroke-width="0.3"/>
</svg>
