<?xml version="1.0" encoding="utf-8"?>
<!-- Generator: Adobe Illustrator 24.2.1, SVG Export Plug-In . SVG Version: 6.00 Build 0)  -->
<svg version="1.1" id="&#x421;&#x43B;&#x43E;&#x439;_1" xmlns="http://www.w3.org/2000/svg" xmlns:xlink="http://www.w3.org/1999/xlink" x="0px" y="0px" viewBox="0 0 31.9 40.3" xml:space="preserve">

<path class="st0" d="M25.7,30.5L25.7,30.5c3.7-1.8,5.9-5.5,5.9-9.5c0-2.2-1.8-4-4-4H10v-6.1h1c0.4,0,0.7-0.3,0.7-0.7
	c0-0.4-0.3-0.6-0.7-0.7h-1V1c0-0.4-0.3-0.7-0.7-0.7H1C0.6,0.3,0.3,0.6,0.3,1v20c0,0.4,0.3,0.7,0.7,0.7h2l0,0.1
	C4.5,27.4,4.2,33.6,2,39c-0.1,0.2-0.1,0.4,0,0.5c0.1,0.2,0.2,0.3,0.4,0.4c0.1,0,0.2,0,0.3,0c6.1,0,10.7,0,14,0c8.9,0,9.7,0,9.8-0.3
	c0,0,0-0.1,0.1-0.1c0.2-0.3,0.1-0.5-0.3-1.2c-0.1-0.1-0.1-0.3-0.2-0.4C24.9,35.7,24.8,33,25.7,30.5L25.7,30.5z M10,18.3h17.6
	c1.1,0,2.1,0.7,2.5,1.8l0.1,0.2H10V18.3z M1.7,1.7h7v2h-7V1.7z M1.7,20.3V5h7v4.5H7.3l0-0.1c-0.4-0.7-1.3-1-2.1-0.6
	C4.9,9,4.6,9.4,4.5,9.8c-0.1,0.4-0.1,0.8,0.2,1.1c0.4,0.7,1.3,1,2.1,0.6c0.2-0.1,0.4-0.3,0.6-0.6l0-0.1h1.3v9.5H1.7z M24.8,38.6
	l-0.2,0h-21l0.1-0.2c1.9-5.3,2.1-10.9,0.8-16.3c0,0,0-0.1,0-0.1c0-0.1-0.1-0.1,0-0.2c0.1-0.1,0.2-0.1,1.7-0.1c0.6,0,1.3,0,2.4,0h0.1
	l0,0.1c0.4,5.5,5.1,9.8,10.6,9.9c1.5,0.1,3.1,0,4.5-0.4l0.2-0.1L24,31.4c-0.5,2.3-0.3,4.8,0.7,7l0,0.1V38.6z M21,30.3h-1.7
	c-4.8,0-8.8-3.6-9.3-8.5l0-0.2h20.2l0,0.2C29.8,26.6,25.8,30.3,21,30.3z"/>
</svg>
