<?xml version="1.0" encoding="utf-8"?>
<!-- Generator: Adobe Illustrator 24.2.1, SVG Export Plug-In . SVG Version: 6.00 Build 0)  -->
<svg version="1.1" id="&#x421;&#x43B;&#x43E;&#x439;_1" xmlns="http://www.w3.org/2000/svg" xmlns:xlink="http://www.w3.org/1999/xlink" x="0px" y="0px" viewBox="0 0 29.9 41.9" xml:space="preserve">

<g>
	<path class="st0" d="M5,0.1c-0.5,0-0.9,0.3-1,0.8l-4,40c0,0.5,0.3,0.9,0.8,1c0,0,0.1,0,0.1,0c0.4,0,0.8-0.3,0.9-0.8l4-40
		C5.9,0.6,5.5,0.1,5,0.1z"/>
	<path class="st0" d="M25.8,0.9c0-0.5-0.5-0.8-1-0.8c-0.5,0-0.8,0.5-0.8,1l4,40c0,0.5,0.4,0.8,0.9,0.8c0,0,0.1,0,0.1,0
		c0.5,0,0.8-0.5,0.8-1L25.8,0.9z"/>
	<path class="st0" d="M15,1.1c-0.5,0-0.9,0.4-0.9,0.9v3c0,0.5,0.4,0.9,0.9,0.9s0.9-0.4,0.9-0.9V2C15.8,1.5,15.4,1.1,15,1.1z"/>
	<path class="st0" d="M15,8.1c-0.5,0-0.9,0.4-0.9,0.9v3c0,0.5,0.4,0.9,0.9,0.9s0.9-0.4,0.9-0.9V9C15.8,8.5,15.4,8.1,15,8.1z"/>
	<path class="st0" d="M15,14.1c-0.5,0-0.9,0.4-0.9,0.9v3c0,0.5,0.4,0.9,0.9,0.9s0.9-0.4,0.9-0.9v-3C15.8,14.5,15.4,14.1,15,14.1z"/>
	<path class="st0" d="M15,21.1c-0.5,0-0.9,0.4-0.9,0.9v3c0,0.5,0.4,0.9,0.9,0.9s0.9-0.4,0.9-0.9v-3C15.8,21.5,15.4,21.1,15,21.1z"/>
	<path class="st0" d="M15,28.1c-0.5,0-0.9,0.4-0.9,0.9v3c0,0.5,0.4,0.9,0.9,0.9s0.9-0.4,0.9-0.9v-3C15.8,28.5,15.4,28.1,15,28.1z"/>
	<path class="st0" d="M15,35.1c-0.5,0-0.9,0.4-0.9,0.9v3c0,0.5,0.4,0.9,0.9,0.9s0.9-0.4,0.9-0.9v-3C15.8,35.5,15.4,35.1,15,35.1z"/>
</g>
</svg>
