<svg id="Сгруппировать_81" data-name="Сгруппировать 81" xmlns="http://www.w3.org/2000/svg" width="56" height="56" viewBox="0 0 56 56">
  <path id="Контур_620" data-name="Контур 620" d="M293,62V72.5h49V41H321V51.5H307V62Z" transform="translate(-286.583 -17.083)" fill="#cba07a"/>
  <path id="Контур_621" data-name="Контур 621" d="M297,62v8.167h36.167a10.531,10.531,0,0,0,10.5-10.5V41H325V51.5H311V62Z" transform="translate(-290.583 -17.083)" fill="#d9b18c"/>
  <rect id="Прямоугольник_199" data-name="Прямоугольник 199" width="15.167" height="2.333" transform="translate(5.25 42.583)" fill="#b58b7e"/>
  <rect id="Прямоугольник_200" data-name="Прямоугольник 200" width="15.167" height="2.333" transform="translate(19.25 32.083)" fill="#b58b7e"/>
  <rect id="Прямоугольник_201" data-name="Прямоугольник 201" width="22.167" height="2.333" transform="translate(33.25 21.583)" fill="#b58b7e"/>
  <path id="Контур_622" data-name="Контур 622" d="M330.392,1h-3.967l-.758.583L298.425,21.417H293V23.75h6.242l.758-.583L327.242,3.333h20.592V1Z" transform="translate(-292.417 -0.417)" fill="#8a6762"/>
  <path id="Контур_663" data-name="Контур 663" d="M342.167,3.5V21h5.25a.551.551,0,0,1,.583.583V55.417a.551.551,0,0,1-.583.583h-49a.551.551,0,0,1-.583-.583V45.5h-.583a.551.551,0,0,1-.583-.583V42.583A.551.551,0,0,1,297.25,42H299V23.858c-.058,0-.117.058-.233.058h-6.183a.551.551,0,0,1-.583-.583V21a.551.551,0,0,1,.583-.583h5.25L325.717.117a.829.829,0,0,1,.35-.117h21.35A.551.551,0,0,1,348,.583V2.917a.551.551,0,0,1-.583.583ZM299.175,22.342a.057.057,0,0,0,.058-.058h0L326.417,2.45a.829.829,0,0,1,.35-.117h20.067V1.167H326.242l-.642.467L298.417,21.467a.829.829,0,0,1-.35.117h-4.9V22.75h5.425ZM327,21V3.5h0l-12.833,9.333V31.5h11.667v-7h-.583a.551.551,0,0,1-.583-.583V21.583A.551.551,0,0,1,325.25,21ZM312.417,33.833h13.417V32.667h-14v1.167ZM300.167,42h11.667V35h-.583a.551.551,0,0,1-.583-.583V32.083a.551.551,0,0,1,.583-.583H313V13.708l-12.833,9.333Zm-2.333,2.333h14V43.167h-14Zm49-19.833H327v9.917a.551.551,0,0,1-.583.583H313v9.917a.551.551,0,0,1-.583.583H299v9.333h47.833Zm0-2.333h-21v1.167h21ZM341,3.5H328.167V21H341Z" transform="translate(-292)" fill="#39426a"/>
</svg>
