<?xml version="1.0" encoding="utf-8"?>
<!-- Generator: Adobe Illustrator 24.2.1, SVG Export Plug-In . SVG Version: 6.00 Build 0)  -->
<svg version="1.1" id="swimming_pool_city_real_estate_home_house_housing" xmlns="http://www.w3.org/2000/svg" xmlns:xlink="http://www.w3.org/1999/xlink" x="0px" y="0px" viewBox="0 0 42 42.2" xml:space="preserve">

<g>
	<path class="st0" d="M39.2,31.1c-2,0.1-4.1-0.6-5.7-1.7c-3.9-2.6-8.9-2.6-12.9,0c-3.4,2.3-7.9,2.3-11.3,0c-1.9-1.3-4.1-1.9-6.4-1.9
		c-0.5,0-0.8,0.4-0.8,0.8s0.4,0.8,0.8,0.8c0.1,0,0.2,0,0.2,0c1.9,0,3.9,0.6,5.5,1.8c3.9,2.5,8.9,2.5,12.8,0c3.4-2.3,7.9-2.3,11.4,0
		c1.9,1.3,4.1,2,6.4,1.9c0.5,0,0.8-0.4,0.8-0.8C40,31.4,39.6,31.1,39.2,31.1z"/>
	<path class="st0" d="M39.2,38.3c-2,0.1-4.1-0.6-5.7-1.7c-3.9-2.6-8.9-2.6-12.9,0c-3.4,2.3-7.9,2.3-11.3,0c-1.9-1.3-4.1-1.9-6.4-1.9
		c-0.5,0-0.8,0.4-0.8,0.8s0.4,0.8,0.8,0.8c0.1,0,0.2,0,0.2,0c1.9,0,3.9,0.6,5.5,1.8c3.9,2.6,8.9,2.5,12.8,0c3.4-2.3,7.9-2.4,11.4,0
		c1.9,1.3,4.1,2,6.4,1.9c0.5,0,0.8-0.4,0.8-0.8C40,38.7,39.6,38.4,39.2,38.3z"/>
	<path class="st0" d="M2.8,21.8c0.1,0,0.2,0,0.2,0c1.9,0,3.9,0.6,5.5,1.8c3.9,2.5,8.9,2.5,12.8,0c3.4-2.4,7.9-2.4,11.4,0
		c1.9,1.3,4.1,2,6.4,1.9c0.5,0,0.8-0.4,0.8-0.8s-0.4-0.8-0.8-0.8c-2,0.1-4-0.6-5.7-1.7c-1.1-0.7-2.3-1.3-3.6-1.7l-0.7-0.2V8.3
		c0-1.2,0.4-2.4,1.3-3.3c0.9-0.9,2-1.4,3.3-1.4c1.2,0,2.4,0.4,3.3,1.3c0.9,0.9,1.4,2,1.4,3.3v3.8c0,0.5,0.4,0.8,0.8,0.8l0,1v-1
		c0.5,0,0.8-0.4,0.8-0.8V8.3C40,4.8,37.2,2,33.7,2c0,0,0,0,0,0c-3.5,0-6.3,2.8-6.3,6.3v1h-9.3v-1c0-2.6,2.1-4.6,4.6-4.6
		c0.5,0,0.8-0.4,0.8-0.8S23.3,2,22.8,2c-3.5,0-6.3,2.8-6.3,6.3v15.5l-0.9,0.1c-2.3,0.2-4.5-0.4-6.4-1.7c-1.9-1.3-4.1-2-6.4-1.9
		C2.4,20.2,2,20.5,2,21C2,21.4,2.4,21.8,2.8,21.8z M18.2,10.9h9.3v3.8h-9.3V10.9z M18.2,16.4h9.3v3.8l-1,0c-2.1,0.1-4.1,0.7-5.9,1.9
		l-0.8,0.5l0,0c-0.1,0-0.1,0.1-0.2,0.1l-1.4,0.7V16.4z"/>
</g>
</svg>
