<svg xmlns="http://www.w3.org/2000/svg" width="60" height="59.81" viewBox="0 0 60 59.81">
  <g id="Сгруппировать_707" data-name="Сгруппировать 707" transform="translate(-572 -429.2)">
    <path id="Контур_1251" data-name="Контур 1251" d="M620.826,492.881h-42.36A2.469,2.469,0,0,1,576,490.416V470.5h47.355v19.916A2.567,2.567,0,0,1,620.826,492.881Z" transform="translate(-1.471 -15.188)" fill="#cba07a"/>
    <path id="Контур_1252" data-name="Контур 1252" d="M624.358,492.051H581.366a2.469,2.469,0,0,1-2.466-2.466v-13.72a2.469,2.469,0,0,1,2.466-2.466h42.993Z" transform="translate(-2.538 -16.255)" fill="#d9b18c"/>
    <path id="Контур_1253" data-name="Контур 1253" d="M591.795,474.3v2.466a2.339,2.339,0,0,1-1.581,2.276,2.537,2.537,0,0,1-.948.19,2.469,2.469,0,0,1-2.466-2.466V474.3Z" transform="translate(-5.443 -16.586)" fill="#8288a1"/>
    <path id="Контур_1254" data-name="Контур 1254" d="M592.861,474.3v2.466a2.339,2.339,0,0,1-1.581,2.276,2.557,2.557,0,0,1-1.581-2.276V474.3Z" transform="translate(-6.509 -16.586)" fill="#969cb2"/>
    <path id="Контур_1255" data-name="Контур 1255" d="M634.316,491.485h-4.995A14.908,14.908,0,0,1,614.4,476.564h0a1.268,1.268,0,0,1,1.264-1.264h18.714a1.268,1.268,0,0,1,1.264,1.264v13.72A1.364,1.364,0,0,1,634.316,491.485Z" transform="translate(-15.593 -16.954)" fill="#e5c2a1"/>
    <path id="Контур_1256" data-name="Контур 1256" d="M636.095,474.3v2.466a2.339,2.339,0,0,1-1.581,2.276,2.537,2.537,0,0,1-.948.19,2.469,2.469,0,0,1-2.466-2.466V474.3Z" transform="translate(-21.734 -16.586)" fill="#8288a1"/>
    <path id="Контур_1257" data-name="Контур 1257" d="M637.161,474.3v2.466a2.339,2.339,0,0,1-1.581,2.276A2.557,2.557,0,0,1,634,476.766V474.3Z" transform="translate(-22.801 -16.586)" fill="#969cb2"/>
    <path id="Контур_1258" data-name="Контур 1258" d="M624.122,447.3v11.191a1.75,1.75,0,0,1-.063.569,2.494,2.494,0,0,1-2.4,1.96H575.566a2.469,2.469,0,0,1-2.466-2.466V447.364a2.441,2.441,0,0,1,1.96-2.4,1.75,1.75,0,0,1,.569-.063H621.72A2.361,2.361,0,0,1,624.122,447.3Z" transform="translate(-0.405 -5.772)" fill="#8a6762"/>
    <path id="Контур_1259" data-name="Контур 1259" d="M625.189,447.266v11.191a.458.458,0,0,1-.632.632H578.466A2.469,2.469,0,0,1,576,456.623V445.432a.458.458,0,0,1,.632-.632h46.091A2.469,2.469,0,0,1,625.189,447.266Z" transform="translate(-1.471 -5.737)" fill="#98726b"/>
    <rect id="Прямоугольник_156" data-name="Прямоугольник 156" width="6.259" height="4.995" transform="translate(580.725 452.719)" fill="#dd8b37"/>
    <path id="Контур_1260" data-name="Контур 1260" d="M593.062,469.561h-3.1A1.268,1.268,0,0,1,588.7,468.3v-1.9h4.362Z" transform="translate(-6.142 -13.68)" fill="#e69c4b"/>
    <rect id="Прямоугольник_157" data-name="Прямоугольник 157" width="6.259" height="4.995" transform="translate(608.733 452.719)" fill="#dd8b37"/>
    <path id="Контур_1261" data-name="Контур 1261" d="M637.462,469.561h-3.1A1.268,1.268,0,0,1,633.1,468.3v-1.9h4.362Z" transform="translate(-22.47 -13.68)" fill="#e69c4b"/>
    <path id="Контур_1262" data-name="Контур 1262" d="M618.214,439.357h-3.224l-1.012-4.3a2.437,2.437,0,0,0-2.4-1.9h-9.737a2.5,2.5,0,0,0-2.4,1.9l-1.012,4.3H595.2l1.264-5.5A4.947,4.947,0,0,1,601.333,430h10.811a5,5,0,0,1,4.868,3.857Z" transform="translate(-8.532 -0.294)" fill="#5c5f7d"/>
    <path id="Контур_1263" data-name="Контур 1263" d="M651.809,499.452v-4.995h-2.845a7.684,7.684,0,0,0-.885-2.086l2.023-2.023-3.541-3.541-2.023,2.023a8.629,8.629,0,0,0-2.086-.885V485.1h-4.995v2.845a7.685,7.685,0,0,0-2.086.885l-2.023-2.023-3.541,3.541,2.023,2.023a8.629,8.629,0,0,0-.885,2.086H628.1v4.995h2.845a7.684,7.684,0,0,0,.885,2.086l-2.023,2.023,3.541,3.541,2.023-2.023a8.629,8.629,0,0,0,2.086.885v2.845h4.995v-2.845a7.681,7.681,0,0,0,2.086-.885l2.023,2.023,3.541-3.541-2.023-2.023a8.631,8.631,0,0,0,.885-2.086Z" transform="translate(-20.631 -20.558)" fill="#8288a1"/>
    <circle id="Эллипс_207" data-name="Эллипс 207" cx="4.995" cy="4.995" r="4.995" transform="translate(614.36 471.434)" fill="#c6ccda"/>
    <circle id="Эллипс_208" data-name="Эллипс 208" cx="2.466" cy="2.466" r="2.466" transform="translate(616.889 473.963)" fill="#8288a1"/>
    <g id="Сгруппировать_625" data-name="Сгруппировать 625" transform="translate(572 429.2)">
      <path id="Контур_1264" data-name="Контур 1264" d="M631.178,473.331h-2.4a5.364,5.364,0,0,0-.569-1.391l1.707-1.707a.611.611,0,0,0,0-.885l-3.541-3.541a.611.611,0,0,0-.885,0l-1.707,1.707a9.138,9.138,0,0,0-1.391-.569V455.628a3.21,3.21,0,0,0,1.9-2.845V441.592a3.1,3.1,0,0,0-3.1-3.1h-11l-1.2-4.995a5.552,5.552,0,0,0-5.437-4.3H592.737a5.553,5.553,0,0,0-5.437,4.3l-1.2,4.995h-11a3.1,3.1,0,0,0-3.1,3.1v11.191a3.106,3.106,0,0,0,1.9,2.845v19.6a3.1,3.1,0,0,0,3.1,3.1H606.9v.632a.634.634,0,0,0,.632.632h2.4a5.364,5.364,0,0,0,.569,1.391l-1.707,1.707a.611.611,0,0,0,0,.885l3.541,3.541a.611.611,0,0,0,.885,0l1.707-1.707a9.151,9.151,0,0,0,1.391.569v2.4a.634.634,0,0,0,.632.632h4.995a.634.634,0,0,0,.632-.632v-2.4a5.366,5.366,0,0,0,1.391-.569l1.707,1.707a.611.611,0,0,0,.885,0l3.541-3.541a.611.611,0,0,0,0-.885l-1.707-1.707a5.366,5.366,0,0,0,.569-1.391h2.4a.634.634,0,0,0,.632-.632v-4.995A1.012,1.012,0,0,0,631.178,473.331ZM588.5,433.689a4.334,4.334,0,0,1,4.236-3.351h10.811a4.334,4.334,0,0,1,4.236,3.351l1.138,4.742h-1.96l-.885-3.857a3.116,3.116,0,0,0-3.035-2.4h-9.737a3.116,3.116,0,0,0-3.035,2.4l-.885,3.857h-1.96Zm17.2,4.742H590.651l.822-3.541a1.9,1.9,0,0,1,1.834-1.454h9.737a1.833,1.833,0,0,1,1.833,1.454Zm-32.434,14.289V441.529a1.9,1.9,0,0,1,1.9-1.9h46.091a1.9,1.9,0,0,1,1.9,1.9v11.191a1.9,1.9,0,0,1-1.9,1.9h-5.627v-1.9a.634.634,0,0,0-.632-.632h-6.259a.634.634,0,0,0-.632.632v1.9H587.553v-1.9a.634.634,0,0,0-.632-.632h-6.259a.634.634,0,0,0-.632.632v1.9h-4.995A1.838,1.838,0,0,1,573.264,452.719Zm41.1,4.362h-4.995v-3.73h4.995ZM610,458.346h3.73v1.9a1.9,1.9,0,0,1-3.793,0v-1.9Zm-23.646-1.264h-4.995v-3.73h4.995Zm-4.363,1.264h3.73v1.9a1.9,1.9,0,0,1-3.793,0v-1.9Zm-4.995,18.714a1.9,1.9,0,0,1-1.9-1.9V455.881h4.995v1.9a.634.634,0,0,0,.632.632v1.9a3.1,3.1,0,0,0,6.2,0v-1.9a.634.634,0,0,0,.632-.632v-1.9H608.1v1.9a.634.634,0,0,0,.632.632v1.9a3.1,3.1,0,0,0,6.2,0v-1.9a.634.634,0,0,0,.632-.632v-1.9h5.627v8.093h-4.362a.634.634,0,0,0-.632.632v2.4a5.367,5.367,0,0,0-1.391.569L613.1,465.87a.611.611,0,0,0-.885,0l-3.541,3.541a.611.611,0,0,0,0,.885L610.377,472a5.368,5.368,0,0,0-.569,1.391h-2.4a.634.634,0,0,0-.632.632v3.1H576.995Zm53.551,1.2h-2.213a.607.607,0,0,0-.569.443,7.589,7.589,0,0,1-.822,1.96.585.585,0,0,0,.126.759L628.649,483l-2.655,2.655-1.581-1.581a.672.672,0,0,0-.759-.126,10.7,10.7,0,0,1-1.96.822.607.607,0,0,0-.443.569v2.213h-3.73v-2.213a.607.607,0,0,0-.443-.569,7.59,7.59,0,0,1-1.96-.822.585.585,0,0,0-.759.126l-1.581,1.581L610.124,483l1.581-1.581a.672.672,0,0,0,.126-.759,10.7,10.7,0,0,1-.822-1.96.607.607,0,0,0-.569-.443h-2.213v-3.73h2.213a.607.607,0,0,0,.569-.443,7.587,7.587,0,0,1,.822-1.96.585.585,0,0,0-.126-.759l-1.581-1.581,2.655-2.655,1.581,1.581a.672.672,0,0,0,.759.126,10.7,10.7,0,0,1,1.96-.822.607.607,0,0,0,.443-.569v-2.213h3.73v2.213h0a.232.232,0,0,0,.063.19.062.062,0,0,0,.063.063c0,.063.063.063.063.126l.063.063a.221.221,0,0,0,.126.063c.063,0,.063.063.126.063h.063a7.594,7.594,0,0,1,1.96.822.585.585,0,0,0,.759-.126l1.581-1.581,2.655,2.655-1.581,1.581a.672.672,0,0,0-.126.759,10.7,10.7,0,0,1,.822,1.96.607.607,0,0,0,.569.443h2.213v3.73Z" transform="translate(-572 -429.2)" fill="#39426a"/>
      <path id="Контур_1265" data-name="Контур 1265" d="M645.1,499a3.1,3.1,0,1,0,3.1,3.1A3.1,3.1,0,0,0,645.1,499Zm0,4.931a1.9,1.9,0,1,1,1.9-1.9A1.944,1.944,0,0,1,645.1,503.931Z" transform="translate(-597.743 -454.869)" fill="#39426a"/>
      <path id="Контур_1266" data-name="Контур 1266" d="M643.627,495a5.627,5.627,0,1,0,5.627,5.627A5.639,5.639,0,0,0,643.627,495Zm0,9.989a4.362,4.362,0,1,1,4.363-4.362A4.371,4.371,0,0,1,643.627,504.989Z" transform="translate(-596.272 -453.398)" fill="#39426a"/>
    </g>
    <path id="Контур_1267" data-name="Контур 1267" d="M635.212,458.954H622.757A9.336,9.336,0,0,1,613.4,449.6h0a1.9,1.9,0,0,1,1.9-1.9h19.916a1.9,1.9,0,0,1,1.9,1.9v7.46A1.99,1.99,0,0,1,635.212,458.954Z" transform="translate(-15.225 -6.803)" fill="#a67f74"/>
  </g>
</svg>
