<?xml version="1.0" encoding="utf-8"?>
<!-- Generator: Adobe Illustrator 24.2.1, SVG Export Plug-In . SVG Version: 6.00 Build 0)  -->
<svg version="1.1" id="&#x421;&#x43B;&#x43E;&#x439;_1" xmlns="http://www.w3.org/2000/svg" xmlns:xlink="http://www.w3.org/1999/xlink" x="0px" y="0px" viewBox="0 0 41.8 41.8" xml:space="preserve">

<path class="st0" d="M39.9,24.3c-0.8-5.3-5.3-9.2-10.7-9.2v0c-0.7,0-1.5,0.1-2.2,0.2l-0.8,0.2L26,14.6C24.2,6.9,19.5,1.8,14.2,1.8
	c-6.9,0-12.5,8.6-12.5,19.1c0,6.3,4.7,11.6,10.9,12.3l0.8,0.1V40H15v-6.7l0.8-0.1c1.3-0.2,2.6-0.5,3.8-1.1l0.6-0.3l0.4,0.6
	c1.7,2.3,4.2,3.8,7.1,4.2l0.8,0.1V40H30v-3.3l0.8-0.1C36.6,35.7,40.7,30.2,39.9,24.3z M16,31.6l-1,0.2v-8.4h5v-1.6h-5v-10h-1.6v6.7
	h-5V20h5v11.8l-1-0.2c-5.2-0.9-9.1-5.4-9.1-10.7c0-9.5,5-17.5,10.9-17.5s10.9,8,10.9,17.5C25.1,26.2,21.3,30.7,16,31.6z M37,30.8
	c-1.3,2.1-3.3,3.5-5.7,4.1L30,35.1v-5h-1.6v5l-1.1-0.2c-2.1-0.4-4-1.6-5.3-3.3L21.5,31l0.7-0.5c2.8-2.4,4.5-5.9,4.5-9.5
	c0-1-0.1-2-0.2-3l-0.1-0.8l0.8-0.2c2.4-0.6,4.9-0.1,6.9,1.2s3.5,3.3,4.1,5.7C38.8,26.2,38.3,28.7,37,30.8z"/>
</svg>
