<svg xmlns="http://www.w3.org/2000/svg" width="108" height="108" viewBox="0 0 108 108">
  <g id="calendar" transform="translate(1 1)">
    <path id="Контур_1288" data-name="Контур 1288" d="M99.789,60.5V9.523a3.105,3.105,0,0,0-3.105-3.105H80.949V3.105a3.105,3.105,0,0,0-6.211,0V6.418H62.316V3.105a3.105,3.105,0,0,0-6.211,0V6.418H43.684V3.105a3.105,3.105,0,0,0-6.211,0V6.418H25.051V3.105a3.105,3.105,0,0,0-6.211,0V6.418H3.105A3.105,3.105,0,0,0,0,9.523V90.473a3.105,3.105,0,0,0,3.105,3.105H54.823A27.939,27.939,0,1,0,99.789,60.5ZM18.84,12.629v3.105a3.105,3.105,0,0,0,6.211,0V12.629H37.473v3.105a3.105,3.105,0,0,0,6.211,0V12.629H56.105v3.105a3.105,3.105,0,0,0,6.211,0V12.629H74.738v3.105a3.105,3.105,0,0,0,6.211,0V12.629H93.578V25.051H6.211V12.629ZM6.211,87.367V31.262H93.578V54.823A27.916,27.916,0,0,0,54.6,62.858a3.087,3.087,0,0,0-1.4-.334H47a3.105,3.105,0,1,0,0,6.211h4.7a27.717,27.717,0,0,0-1.425,6.211H47a3.105,3.105,0,0,0,0,6.211h3.279A27.673,27.673,0,0,0,51.7,87.367Zm71.84,12.422A21.738,21.738,0,1,1,99.789,78.051,21.763,21.763,0,0,1,78.051,99.789Zm0,0" fill="#e77e23" stroke="#f2c40f" stroke-width="2"/>
    <path id="Контур_1289" data-name="Контур 1289" d="M377.527,314.422h-9.316v-9.316a3.105,3.105,0,0,0-6.211,0v12.422a3.105,3.105,0,0,0,3.105,3.105h12.422a3.105,3.105,0,0,0,0-6.211Zm0,0" transform="translate(-287.055 -239.477)" fill="#e77e23" stroke="#f2c40f" stroke-width="2"/>
    <path id="Контур_1290" data-name="Контур 1290" d="M100.316,182H94.105a3.105,3.105,0,0,0,0,6.211h6.211a3.105,3.105,0,0,0,0-6.211Zm0,0" transform="translate(-72.16 -144.32)" fill="#e77e23" stroke="#f2c40f" stroke-width="2"/>
    <path id="Контур_1291" data-name="Контур 1291" d="M100.316,242H94.105a3.105,3.105,0,0,0,0,6.211h6.211a3.105,3.105,0,0,0,0-6.211Zm0,0" transform="translate(-72.16 -191.898)" fill="#e77e23" stroke="#f2c40f" stroke-width="2"/>
    <path id="Контур_1292" data-name="Контур 1292" d="M100.316,302H94.105a3.105,3.105,0,0,0,0,6.211h6.211a3.105,3.105,0,0,0,0-6.211Zm0,0" transform="translate(-72.16 -239.477)" fill="#e77e23" stroke="#f2c40f" stroke-width="2"/>
    <path id="Контур_1293" data-name="Контур 1293" d="M215.105,188.211h6.211a3.105,3.105,0,0,0,0-6.211h-6.211a3.105,3.105,0,0,0,0,6.211Zm0,0" transform="translate(-168.109 -144.32)" fill="#e77e23" stroke="#f2c40f" stroke-width="2"/>
    <path id="Контур_1294" data-name="Контур 1294" d="M215.105,248.211h6.211a3.105,3.105,0,0,0,0-6.211h-6.211a3.105,3.105,0,0,0,0,6.211Zm0,0" transform="translate(-168.109 -191.898)" fill="#e77e23" stroke="#f2c40f" stroke-width="2"/>
    <path id="Контур_1295" data-name="Контур 1295" d="M100.316,362H94.105a3.105,3.105,0,0,0,0,6.211h6.211a3.105,3.105,0,0,0,0-6.211Zm0,0" transform="translate(-72.16 -287.055)" fill="#e77e23" stroke="#f2c40f" stroke-width="2"/>
    <path id="Контур_1296" data-name="Контур 1296" d="M335.105,188.211h6.211a3.105,3.105,0,0,0,0-6.211h-6.211a3.105,3.105,0,0,0,0,6.211Zm0,0" transform="translate(-263.266 -144.32)" fill="#e77e23" stroke="#f2c40f" stroke-width="2"/>
  </g>
</svg>
