<svg xmlns="http://www.w3.org/2000/svg" width="283.951" height="603.262" viewBox="0 0 283.951 603.262">
  <path id="Вычитание_2" data-name="Вычитание 2" d="M86.333,602.262a1.9,1.9,0,0,1-.548-.081L74.71,598.859a1.878,1.878,0,0,1-.895-.578L54.6,576.05l-12.071-8.207-5.6,8.065-2.145,12.317A1.917,1.917,0,0,1,33,589.805H32.95a1.933,1.933,0,0,1-1.882-1.41l-3.6-13.286a1.9,1.9,0,0,1,0-1.01l2.107-7.551-10.791,5.888L3.558,598.55A1.91,1.91,0,0,1,0,597.464l1.66-26.3a1.909,1.909,0,0,1,.31-.924l16.675-25.423,8.3-44.708,15.5-47.333a1.894,1.894,0,0,1,.47-.761l40.618-40.342a1.9,1.9,0,0,1,.575-.431l.062-.031,78.772-35.1a1.932,1.932,0,0,1,.245-.109l.007,0L207,360.3l11.778-7.517-.733-4.718L181.7,362.331a2.2,2.2,0,0,1-.3.089l-73.365,15.666a1.9,1.9,0,0,1-.306.053c-.061.006-.123.009-.184.009a1.91,1.91,0,0,1-1.526-.776A1.964,1.964,0,0,1,105.8,377l0-.007,0-.006,0-.005a1.911,1.911,0,0,1,.129-1.74l25.243-45.329a1.882,1.882,0,0,1,.418-.515L158.9,305.776a1.923,1.923,0,0,1,1.066-.454l34.92-3.308,14.468-3.576,4.5-16.09a1.945,1.945,0,0,1,.216-.5L219,273.96,208.5,215.36l-18.712-39.353a1.9,1.9,0,0,1-.186-.821V165.141l-8.521-41.248a1.894,1.894,0,0,1-.04-.721,1.914,1.914,0,0,1,.135-.495l17.051-40.133a1.9,1.9,0,0,1,.276-.456,1.849,1.849,0,0,1,.191-.2L280.915.553a1.9,1.9,0,0,1,1.3-.552h.069a1.927,1.927,0,0,1,.661.128v187.4h-10.33l-14.7,15.739h25.033v3.819h-28.8l-8.515,6.264-.141,8.547,10.665,1.02,15.951-8.843a1.881,1.881,0,0,1,.817-.235h10.024v3.818h-8.335l-1.433,7.577a1.911,1.911,0,0,1-1.876,1.555H258.529l.4,13.643,8.893,5.769.255-.2a1.79,1.79,0,0,1,.194-.155l5.1-4.051a1.92,1.92,0,0,1,1.189-.414h8.392v3.818h-7.727l-4.349,3.452-4.841,9.6,4.812,26.723L282.135,274.8a1.915,1.915,0,0,1,.814-.431v4.836l-11.512,10.361-4,74.426h15.513v3.819H266.116l-6.76,5.646a1.9,1.9,0,0,1-2.062.249l-7.8-3.821-13.381,22.64a1.917,1.917,0,0,1-.233.349l-.007.008-.007.008L202,432.272,189.944,458.25l10.315,37.73a1.911,1.911,0,0,1-.072,1.336l-6.89,17.913a1.9,1.9,0,0,1-1.789,1.226,1.977,1.977,0,0,1-.284-.021,1.92,1.92,0,0,1-1.615-1.775l-1.088-18.507-15.377-37.347a1.907,1.907,0,0,1-.078-1.223l8.562-31.751a1.907,1.907,0,0,1,.432-.848l25.426-31.036L163,426.776l-18.807,26.06,1.9,34.135a1.921,1.921,0,0,1-.162.957l-4.4,11a1.9,1.9,0,0,1-1.776,1.2,1.937,1.937,0,0,1-.357-.033,1.906,1.906,0,0,1-1.547-1.871V485.78l-9.021-28.156a1.9,1.9,0,0,1-.045-1.164l6.616-31.165a1.9,1.9,0,0,1,.642-1.066l16.809-14.088L88.786,438.809,64.822,480.544l4.43,21.366,26.33,23.349a1.97,1.97,0,0,1,.5.65l13.193,27.958a1.909,1.909,0,0,1-2.849,2.357L87.869,542.707l-19-1.3-5.925,4.019L77.2,580.315l10.795,19.1a1.907,1.907,0,0,1-1.659,2.848ZM42.975,522.355h0l4.706,16.514c.012.037.024.078.037.129l3.724,13.066c.019.058.035.116.049.173L57.6,573.686,76.34,595.365l6,1.8L73.77,581.979,58.821,545.44a1.917,1.917,0,0,1,.7-2.3l5.565-3.775L42.975,522.356Zm-4.306-1.182-16.617,25.42c-.02.031-.041.06-.062.09L5.44,571.915,4.322,589.66l11.436-19.61a1.956,1.956,0,0,1,.231-.317l27.75-30.767ZM34.1,564.567h0l-2.805,10.051,1.212,4.474.738-4.254a1.96,1.96,0,0,1,.313-.76l5.466-7.871L34.1,564.567Zm14.376-8.993-10.567,6.239,4.643,1.545a1.931,1.931,0,0,1,.571.264l9.486,6.451Zm-3.5-12.278h0l-18.649,20.68,5.295-2.888.018-.011.023-.014,15.73-9.284L44.974,543.3Zm.157-24.1h0l23.916,18.4,19.631,1.344a1.88,1.88,0,0,1,.992.362l12.969,9.442-9.592-20.323-47.916-9.224Zm-3.6-51.359L30.636,501.053l-6.571,35.484,13.711-20.978Zm4.258-5.428-4.108,52.231,46.2,8.9L66.242,504.349a1.941,1.941,0,0,1-.329-.383l-.01-.016,0-.007a2.062,2.062,0,0,1-.107-.191Zm140.051,17.2h0L192.174,495a1.893,1.893,0,0,1,.138.616l.59,10.008,3.415-8.878Zm-44.172,6.587h0V488.3l.446-1.116Zm-80.117-2.633-.941.708,1.9,3.937-.963-4.645ZM182.89,435.8h0l-5.926,21.987,16.08,26.294-6.971-25.5c-.008-.031-.015-.061-.022-.093-.011-.047-.02-.1-.027-.147L182.891,435.8ZM80.644,419.926,46.078,454.26c.027.044.052.091.077.142L58.91,480.764l2.268-1.707Zm56.5,15.5h0l-4.531,21.331,9.088,20.213L140.348,452.5l-3.2-17.07Zm13.158-49.5h0L86.5,414.358l-16.027,48.68,15.282-26.614a1.9,1.9,0,0,1,.513-.61l64.04-49.888Zm64.74,4.816L185.5,426.81l3.419,24.586,9.707-20.922Zm-50.8,14.829h0l-24.9,20.868,3.956,21.1,16.544-22.927,4.4-19.045ZM199.9,366.9h0l-35.123,12.587-63.729,49.646,62.586-28.005.078-.078,2.381-2.246c.041-.042.075-.074.106-.1l33.7-31.8Zm22.865-10.119h0v24.894a1.874,1.874,0,0,1-.146.731l-15.938,38.558,25.8-30-1.214-30.02-8.5-4.166Zm-3.819.422-9.928,6.341-39.827,37.582-4.547,19.679,52.862-39a1.906,1.906,0,0,1,1.136-.373,1.928,1.928,0,0,1,.243.015l.06-.146Zm16.22,5.655h0l.9,22.247,9.994-16.908-5.8-2.845-5.089-2.494Zm-29.093-59.679-10.408,2.57a2.161,2.161,0,0,1-.276.049l-34.454,3.263-26.6,23-22,39.5,69.333-36.5,24.4-31.886Zm4.571.305-26.192,34.236a1.91,1.91,0,0,1-.631.53L120.7,371.477l59.749-12.759,37.885-14.865,6.544-9.4.744-18.484Zm39.775-3.616L229.45,315.82l-.778,19.343a1.892,1.892,0,0,1-.343,1.014l-6.758,9.707,1.02,6.561,24.417,11.968,2.583,1.265.005,0,.005,0,8.259,4.048,5.7-4.762,2.425-45.121-15.568-19.977Zm12.712-36.185-14.7,27.425L266.3,314.038l1.356-25.235Zm-40.136,36.242h0a1.83,1.83,0,0,1-.188.041l-8.68,1.449,12.329,10.275,2.859-9.39-6.321-2.376Zm21.7-7.4h0l-11.214,8.681a1.9,1.9,0,0,1-.075.755l-2.393,7.864,17.055-12.972-3.373-4.329Zm-23.6-14.718-3.639,5.831-3.915,14.006,8.64-1.444c.047-.009.093-.014.132-.018l8.732-7.8-9.951-10.572Zm21.951-47.5-12.1,31.643a2.028,2.028,0,0,1-.165.329l-7.6,12.176,11.889,12.631a1.89,1.89,0,0,1,.434.749l8.993,2.528,17.036-31.793L247.688,249.3a1.915,1.915,0,0,1-.457-.433l-.005-.007a1.914,1.914,0,0,1-.356-.824Zm-27.6,2.165h0l6.563,36.652,5.019-8.041-11.581-28.612Zm-22.023-59.715h0v2l18.64,39.193c.015.032.029.064.042.1l0,.007,17,42.006,3.215-8.407-38.9-74.893Zm63.7,71.047-5.078,3.811,11.258,7.543,2.793-5.535Zm-11.155-18.032h0l4.018,18.617,5.121-3.843-.4-13.937-8.734-.837Zm-58.087-87.837h0l5.449,26.361,40.818,78.581,2.146-5.611-48.412-99.332ZM200.017,88.1l-14.984,35.272,53.131,109.011,3.488-9.122.178-10.922a1.927,1.927,0,0,1,.779-1.506l8.548-6.291-16.331-37.185c-.02-.04-.039-.082-.059-.131ZM270.4,219.384l-6.456,3.579h5.779l.677-3.579Zm9.947-203.459L238.567,166.379,254.1,201.752l16.289-17.441a1.924,1.924,0,0,1,1.4-.6h8.562V15.925ZM278.5,8.312,202.263,83.724l33.876,77.126L278.5,8.312Z" transform="translate(283.449 602.762) rotate(180)" fill="#f8f8f8" stroke="rgba(0,0,0,0)" stroke-miterlimit="10" stroke-width="1"/>
</svg>
