<svg xmlns="http://www.w3.org/2000/svg" width="115.714" height="106" viewBox="0 0 115.714 106">
  <g id="friendship" transform="translate(0 -21.49)">
    <g id="Сгруппировать_712" data-name="Сгруппировать 712" transform="translate(78.923 66.801)">
      <g id="Сгруппировать_711" data-name="Сгруппировать 711">
        <path id="Контур_1279" data-name="Контур 1279" d="M366.15,222.1a1.7,1.7,0,0,0-2.208.934,6.187,6.187,0,0,1-11.463,0,1.7,1.7,0,0,0-3.144,1.269,9.579,9.579,0,0,0,17.748,0A1.7,1.7,0,0,0,366.15,222.1Z" transform="translate(-349.212 -221.977)" fill="#f2c40f"/>
      </g>
    </g>
    <g id="Сгруппировать_714" data-name="Сгруппировать 714" transform="translate(76.485 55.313)">
      <g id="Сгруппировать_713" data-name="Сгруппировать 713">
        <path id="Контур_1280" data-name="Контур 1280" d="M340.118,171.145a1.7,1.7,0,0,0-1.695,1.7v.94a1.7,1.7,0,1,0,3.39,0v-.94A1.7,1.7,0,0,0,340.118,171.145Z" transform="translate(-338.423 -171.145)" fill="#f2c40f"/>
      </g>
    </g>
    <g id="Сгруппировать_716" data-name="Сгруппировать 716" transform="translate(95.968 55.313)">
      <g id="Сгруппировать_715" data-name="Сгруппировать 715">
        <path id="Контур_1281" data-name="Контур 1281" d="M426.326,171.145a1.7,1.7,0,0,0-1.7,1.7v.94a1.7,1.7,0,1,0,3.39,0v-.94A1.7,1.7,0,0,0,426.326,171.145Z" transform="translate(-424.631 -171.145)" fill="#f2c40f"/>
      </g>
    </g>
    <g id="Сгруппировать_718" data-name="Сгруппировать 718" transform="translate(20.794 66.801)">
      <g id="Сгруппировать_717" data-name="Сгруппировать 717">
        <path id="Контур_1282" data-name="Контур 1282" d="M108.945,222.1a1.7,1.7,0,0,0-2.208.934,6.187,6.187,0,0,1-11.463,0,1.695,1.695,0,0,0-3.144,1.268,9.578,9.578,0,0,0,17.748,0A1.7,1.7,0,0,0,108.945,222.1Z" transform="translate(-92.007 -221.977)" fill="#f2c40f"/>
      </g>
    </g>
    <g id="Сгруппировать_720" data-name="Сгруппировать 720" transform="translate(18.356 55.313)">
      <g id="Сгруппировать_719" data-name="Сгруппировать 719">
        <path id="Контур_1283" data-name="Контур 1283" d="M82.913,171.145a1.7,1.7,0,0,0-1.7,1.7v.94a1.7,1.7,0,1,0,3.39,0v-.94A1.7,1.7,0,0,0,82.913,171.145Z" transform="translate(-81.218 -171.145)" fill="#f2c40f"/>
      </g>
    </g>
    <g id="Сгруппировать_722" data-name="Сгруппировать 722" transform="translate(37.839 55.313)">
      <g id="Сгруппировать_721" data-name="Сгруппировать 721">
        <path id="Контур_1284" data-name="Контур 1284" d="M169.121,171.145a1.7,1.7,0,0,0-1.7,1.7v.94a1.7,1.7,0,1,0,3.39,0v-.94A1.7,1.7,0,0,0,169.121,171.145Z" transform="translate(-167.426 -171.145)" fill="#f2c40f"/>
      </g>
    </g>
    <g id="Сгруппировать_724" data-name="Сгруппировать 724" transform="translate(0 21.49)">
      <g id="Сгруппировать_723" data-name="Сгруппировать 723">
        <path id="Контур_1285" data-name="Контур 1285" d="M114.019,45.878a1.7,1.7,0,0,0,1.7-1.7v-4.7A12.13,12.13,0,0,0,103.6,27.364h-2.279l-.277-.64a8.679,8.679,0,0,0-7.97-5.234H81.829a21.725,21.725,0,0,0-21.7,21.7V77.8a9.109,9.109,0,0,0,9.1,9.1h9.7v2.393H38.789V86.058A21.174,21.174,0,0,0,50.772,69.623a6.247,6.247,0,0,0,6.234-6.241v-2.15a6.212,6.212,0,0,0-1.457-4l3.9-15.44a1.7,1.7,0,0,0-3.287-.831L52.553,55.253a6.205,6.205,0,0,0-1.6-.259V49.273a1.7,1.7,0,0,0-2.192-1.62c-9.289,2.85-17.43,2.7-23.543-.436A16.567,16.567,0,0,1,18.72,41.6a1.7,1.7,0,0,0-3.173.83c0,4.2-.9,5.108-5.328,5.407a1.7,1.7,0,0,0-1.581,1.691v5.462a6.205,6.205,0,0,0-1.774.312,55.182,55.182,0,0,1-1.329-5.9c-.264-2.121-.081-8.445.012-10.7,0-.023,0-.046,0-.07A5.039,5.039,0,0,1,10.581,33.6h2.57a1.7,1.7,0,0,0,1.2-.5l6.063-6.064A5.065,5.065,0,0,1,25.139,25.7l21.32,5.071a14.84,14.84,0,0,0,12.679-2.827.17.17,0,0,1,.27.173L58.125,33.2a1.7,1.7,0,0,0,3.287.831L62.7,28.952A3.56,3.56,0,0,0,57.027,25.3a11.451,11.451,0,0,1-9.783,2.181l-21.32-5.072a8.476,8.476,0,0,0-7.909,2.238l-5.567,5.567H10.581A8.433,8.433,0,0,0,2.158,38.6a111.746,111.746,0,0,0,.013,11.226,65.482,65.482,0,0,0,1.74,7.56A6.211,6.211,0,0,0,2.58,61.232v2.15a6.246,6.246,0,0,0,6.231,6.241A21.135,21.135,0,0,0,20.794,86.057v3.236h-3.53a13.842,13.842,0,0,0-3.051.339,4.8,4.8,0,0,0-4.166-2.426H5.92A5.927,5.927,0,0,0,0,93.126v9.222a5.927,5.927,0,0,0,3.449,5.378v18.069a1.7,1.7,0,0,0,1.7,1.7h49.3a1.7,1.7,0,0,0,1.7-1.7V103.109a13.784,13.784,0,0,0-4.766-10.426H78.923v.845c0,4.889,7.338,9.119,8.175,9.585a1.694,1.694,0,0,0,1.65,0c.836-.466,8.172-4.7,8.172-9.585v-.845h3.53a10.437,10.437,0,0,1,10.426,10.426V124.1h-4.751V112.743a1.7,1.7,0,1,0-3.39,0V124.1H73.11V104.6a1.7,1.7,0,0,0-1.7-1.7H61.247a1.7,1.7,0,1,0,0,3.39H69.72v19.5a1.7,1.7,0,0,0,1.7,1.7H112.57a1.7,1.7,0,0,0,1.7-1.7V103.109a13.831,13.831,0,0,0-13.816-13.816h-3.53V86.9h9.7a9.108,9.108,0,0,0,9.1-9.1V52.186a1.7,1.7,0,1,0-3.39,0v3.836a6.2,6.2,0,0,0-3.248-1.029V46.821a18.868,18.868,0,0,0-3.39-10.827,1.695,1.695,0,0,0-2.467-.342A41.872,41.872,0,0,1,68.8,44.373a1.695,1.695,0,0,0-2.014,1.578c-.014.276-.021.561-.021.871v8.172a6.2,6.2,0,0,0-3.247,1.029V43.191A18.332,18.332,0,0,1,81.829,24.88H93.073a5.291,5.291,0,0,1,4.858,3.191l.719,1.661a1.7,1.7,0,0,0,1.556,1.022H103.6a8.736,8.736,0,0,1,8.726,8.726v4.7A1.7,1.7,0,0,0,114.019,45.878ZM12.053,67.84a1.7,1.7,0,0,0-1.693-1.608H8.818A2.852,2.852,0,0,1,5.97,63.382v-2.15a2.852,2.852,0,0,1,2.848-2.851h1.515a1.7,1.7,0,0,0,1.7-1.7V51.061c3.532-.5,5.521-1.88,6.384-4.563a21.94,21.94,0,0,0,5.033,3.62c7.915,4.167,17.13,3.234,24.112,1.4v5.168a1.7,1.7,0,0,0,1.7,1.7h1.512a2.854,2.854,0,0,1,2.85,2.851v2.15a2.854,2.854,0,0,1-2.85,2.851H49.224a1.7,1.7,0,0,0-1.693,1.607A17.786,17.786,0,0,1,36.449,83.385l-.032.014a17.833,17.833,0,0,1-13.245,0c-.032-.014-.065-.026-.1-.038A17.746,17.746,0,0,1,12.053,67.84ZM35.4,87.308v6.221a5.607,5.607,0,0,1-11.215,0V87.309a21.188,21.188,0,0,0,11.215,0ZM3.39,102.348V93.126A2.533,2.533,0,0,1,5.92,90.6h4.128a1.411,1.411,0,0,1,1.409,1.409v11.464a1.411,1.411,0,0,1-1.409,1.409H5.92A2.533,2.533,0,0,1,3.39,102.348Zm49.357.76V124.1H47.995V112.743a1.7,1.7,0,0,0-3.39,0V124.1H14.98V112.743a1.7,1.7,0,0,0-3.39,0V124.1H6.839V108.268h3.209a4.8,4.8,0,0,0,4.8-4.8v-10.5a10.446,10.446,0,0,1,2.417-.283h3.53v.845a9,9,0,1,0,17.994,0v-.845h3.532A10.437,10.437,0,0,1,52.747,103.109Zm40.782-9.58c0,1.879-3.05,4.534-5.607,6.134-2.559-1.6-5.609-4.255-5.609-6.134v-6.22a21.193,21.193,0,0,0,11.217,0Zm18.794-24.937V77.8h0a5.714,5.714,0,0,1-5.707,5.709h-5.584q.763-.6,1.477-1.281A21.071,21.071,0,0,0,108.9,69.623,6.2,6.2,0,0,0,112.324,68.592ZM66.947,58.381H68.46a1.7,1.7,0,0,0,1.7-1.7V48.039a45.546,45.546,0,0,0,6.564.474,45.294,45.294,0,0,0,27.127-9.046,15.5,15.5,0,0,1,1.839,7.353v9.865a1.7,1.7,0,0,0,1.7,1.7H108.9a2.852,2.852,0,0,1,2.848,2.851v2.15a2.852,2.852,0,0,1-2.848,2.851h-1.542a1.7,1.7,0,0,0-1.693,1.607A17.782,17.782,0,0,1,94.607,83.372c-.03.012-.06.024-.089.038A17.839,17.839,0,0,1,81.3,83.4c-.033-.014-.066-.027-.1-.039A17.745,17.745,0,0,1,70.182,67.84a1.7,1.7,0,0,0-1.693-1.608H66.948a2.854,2.854,0,0,1-2.85-2.851v-2.15h0A2.854,2.854,0,0,1,66.947,58.381ZM66.94,69.623A21.093,21.093,0,0,0,74.806,83.51H69.227A5.715,5.715,0,0,1,63.518,77.8V68.592A6.2,6.2,0,0,0,66.94,69.623Z" transform="translate(0 -21.49)" fill="#f2c40f"/>
      </g>
    </g>
  </g>
</svg>
