<svg xmlns="http://www.w3.org/2000/svg" width="220" height="209" viewBox="0 0 220 209">
  <g id="Сгруппировать_968" data-name="Сгруппировать 968" transform="translate(-95 -149)">
    <rect id="Прямоугольник_32" data-name="Прямоугольник 32" width="220" height="209" transform="translate(95 149)" fill="#dd000b"/>
    <path id="Объединение_7" data-name="Объединение 7" d="M35.383,29.1a2.25,2.25,0,0,1-.79-.5l-.373.619h-.315l-.045-2.591h.366a3.164,3.164,0,0,0,.752,1.671,1.871,1.871,0,0,0,1.414.572,1.663,1.663,0,0,0,1.112-.338,1.165,1.165,0,0,0,.4-.94,1.177,1.177,0,0,0-.1-.5.929.929,0,0,0-.291-.354,3.829,3.829,0,0,0-1.067-.385c-.171-.045-.3-.078-.4-.106a4.114,4.114,0,0,1-1.7-.753,1.573,1.573,0,0,1-.42-1.171A1.752,1.752,0,0,1,34.439,23a1.929,1.929,0,0,1,1.39-.494,2.577,2.577,0,0,1,.912.156,2.243,2.243,0,0,1,.76.466l.345-.536h.332l.1,2.321h-.349a3.05,3.05,0,0,0-.78-1.495,1.841,1.841,0,0,0-1.319-.5,1.332,1.332,0,0,0-.912.285,1.008,1.008,0,0,0-.323.8q0,.795,1.619,1.191c.1.022.182.042.238.056a7.416,7.416,0,0,1,1.062.329,2.049,2.049,0,0,1,.531.343,1.609,1.609,0,0,1,.4.6,2.151,2.151,0,0,1,.137.775,1.865,1.865,0,0,1-.576,1.461,2.37,2.37,0,0,1-1.634.519A2.829,2.829,0,0,1,35.383,29.1Zm96.379.176-3.98-5.425v3.737a1.339,1.339,0,0,0,.231.912,1.165,1.165,0,0,0,.837.232v.385h-2.487v-.385a1.121,1.121,0,0,0,.756-.265,1.357,1.357,0,0,0,.2-.879V23.361a.5.5,0,0,0-.268-.226,1.6,1.6,0,0,0-.538-.067h-.154v-.413h1.741l3.56,4.875V24.187a1.365,1.365,0,0,0-.216-.918,1.218,1.218,0,0,0-.848-.229v-.385h2.5v.385a1.08,1.08,0,0,0-.773.254,1.377,1.377,0,0,0-.2.893v5.084Zm-48.973,0-2.262-5.8a.7.7,0,0,0-.21-.329.976.976,0,0,0-.435-.061h-.2v-.424h2.744v.424H82.1a1.149,1.149,0,0,0-.426.05.194.194,0,0,0-.111.19.847.847,0,0,0,.021.142.919.919,0,0,0,.051.17l1.581,4.039,1.405-3.609a2.032,2.032,0,0,0,.088-.282,1.138,1.138,0,0,0,.03-.229.406.406,0,0,0-.158-.36.837.837,0,0,0-.486-.112h-.248v-.424h2.332v.424h-.064a.856.856,0,0,0-.538.148,1.439,1.439,0,0,0-.368.611l-2.071,5.433ZM4.2,28.987a1.838,1.838,0,0,1-.321-.976l-.094-.9a1.279,1.279,0,0,0-.381-.87,1.579,1.579,0,0,0-1.009-.265h-.48v2.279A.473.473,0,0,0,2,28.6a.568.568,0,0,0,.371.089h.553v.421H0v-.421H.465A.573.573,0,0,0,.842,28.6a.462.462,0,0,0,.1-.343V23.506a.451.451,0,0,0-.1-.338.557.557,0,0,0-.377-.089H0v-.424H3.575a1.911,1.911,0,0,1,1.309.435,1.459,1.459,0,0,1,.5,1.149,1.342,1.342,0,0,1-.493,1.1,2.839,2.839,0,0,1-1.486.508,1.5,1.5,0,0,1,.842.349A1.516,1.516,0,0,1,4.667,27l.24,1.01a1.344,1.344,0,0,0,.167.449.274.274,0,0,0,.231.139c.12,0,.21-.075.27-.223a2.3,2.3,0,0,0,.1-.711l.341,0a1.054,1.054,0,0,0,0,.106c0,.045,0,.078,0,.1a1.691,1.691,0,0,1-.281,1.043.95.95,0,0,1-.8.363A.93.93,0,0,1,4.2,28.987ZM2,23.138a.4.4,0,0,0-.092.315v2.1l.435.017c.041,0,.077.006.122.006s.1,0,.186,0a2.246,2.246,0,0,0,1.311-.3,1.138,1.138,0,0,0,.4-.976,1.222,1.222,0,0,0-.33-.954,1.677,1.677,0,0,0-1.094-.287H2.365A.57.57,0,0,0,2,23.138Zm98.589,5.871a2.943,2.943,0,0,1-1.02-.784,3.082,3.082,0,0,1-.6-1.043,3.941,3.941,0,0,1-.195-1.3A4,4,0,0,1,99,24.563a3.2,3.2,0,0,1,.625-1.074,2.838,2.838,0,0,1,1-.742,3.175,3.175,0,0,1,2.461-.011,2.922,2.922,0,0,1,1,.745,3.207,3.207,0,0,1,.634,1.077,3.979,3.979,0,0,1,.21,1.328,4.1,4.1,0,0,1-.188,1.3,3.07,3.07,0,0,1-.6,1.037,2.955,2.955,0,0,1-1.017.781,3.25,3.25,0,0,1-2.525,0Zm-.18-5.369a4.241,4.241,0,0,0-.473,2.245,4.243,4.243,0,0,0,.473,2.242,1.775,1.775,0,0,0,2.881-.008,4.214,4.214,0,0,0,.475-2.234,4.257,4.257,0,0,0-.469-2.248,1.793,1.793,0,0,0-2.887,0ZM135,29.112v-.421h.57a.566.566,0,0,0,.375-.089.461.461,0,0,0,.1-.343V23.47a.6.6,0,0,0-.086-.382c-.056-.061-.223-.092-.5-.092a1.031,1.031,0,0,0-.917.469,4.209,4.209,0,0,0-.478,1.671h-.338l.12-2.479h5.363l.139,2.479h-.341a4.109,4.109,0,0,0-.512-1.712A1.241,1.241,0,0,0,137.432,23a.431.431,0,0,0-.328.095.592.592,0,0,0-.084.379v4.789a.485.485,0,0,0,.09.343.575.575,0,0,0,.373.089h.572v.421Zm-14.982,0v-.421h.463a.58.58,0,0,0,.379-.089.452.452,0,0,0,.1-.343V23.506a.442.442,0,0,0-.1-.338.564.564,0,0,0-.379-.089h-.463v-.424h5.228l.116,2.281h-.386a4.268,4.268,0,0,0-.244-.957,1.605,1.605,0,0,0-.375-.591,1.387,1.387,0,0,0-.6-.251,5.533,5.533,0,0,0-1.069-.078,1.355,1.355,0,0,0-.636.089c-.086.059-.122.176-.122.357v2.047h.122a1.128,1.128,0,0,0,1.352-1.236h.379v2.845h-.379a1.446,1.446,0,0,0-.351-.959,1.5,1.5,0,0,0-1-.265h-.122v2.321a.423.423,0,0,0,.131.368,1.546,1.546,0,0,0,.7.092,7.592,7.592,0,0,0,1.017-.056,2.064,2.064,0,0,0,.63-.176,1.152,1.152,0,0,0,.488-.58,5.312,5.312,0,0,0,.353-1.247h.341l-.135,2.452Zm-3.478,0v-.421h.535a.6.6,0,0,0,.381-.089.463.463,0,0,0,.094-.343V23.227l-2,5.885H115.2l-2.138-5.885v4.357a1.336,1.336,0,0,0,.225.907,1.2,1.2,0,0,0,.842.237v.385h-2.6l0-.385a1.226,1.226,0,0,0,.848-.234,1.327,1.327,0,0,0,.223-.909V23.506a.451.451,0,0,0-.1-.338.547.547,0,0,0-.373-.089h-.527v-.424h2.232l1.733,4.937,1.683-4.937h2.178v.424h-.473a.566.566,0,0,0-.371.087.476.476,0,0,0-.09.34v4.753a.485.485,0,0,0,.09.343.564.564,0,0,0,.371.089h.473v.421Zm-10.9,0v-.421h.463a.588.588,0,0,0,.379-.089.452.452,0,0,0,.1-.343V23.506a.442.442,0,0,0-.1-.338.572.572,0,0,0-.379-.089h-.463v-.424h3.44a2.187,2.187,0,0,1,1.489.466,1.679,1.679,0,0,1,.525,1.314,1.555,1.555,0,0,1-.664,1.369,3.518,3.518,0,0,1-1.981.457c-.146,0-.289,0-.437-.008s-.3-.011-.458-.02v2.025a.473.473,0,0,0,.092.343.572.572,0,0,0,.371.089h.555v.421Zm2.009-5.966a.468.468,0,0,0-.1.351v2.32a2.18,2.18,0,0,0,.24.02c.088.006.18.008.278.008a2.778,2.778,0,0,0,1.557-.315,1.278,1.278,0,0,0,.424-1.1,1.4,1.4,0,0,0-.334-1.052,1.562,1.562,0,0,0-1.1-.324h-.6A.556.556,0,0,0,107.647,23.147ZM92.785,29.112v-.421h.46a.591.591,0,0,0,.381-.089.463.463,0,0,0,.094-.343V23.506a.452.452,0,0,0-.094-.338.575.575,0,0,0-.381-.089h-.46v-.424h2.849v.424h-.475a.559.559,0,0,0-.368.087.456.456,0,0,0-.092.34v4.753a.426.426,0,0,0,.12.363,1.358,1.358,0,0,0,.634.086,5.6,5.6,0,0,0,1.077-.078,1.277,1.277,0,0,0,.591-.254,1.586,1.586,0,0,0,.392-.628,5.4,5.4,0,0,0,.285-1.113h.345l-.131,2.477Zm-6.374,0v-.421h.463a.58.58,0,0,0,.379-.089.463.463,0,0,0,.094-.343V23.506a.452.452,0,0,0-.094-.338.564.564,0,0,0-.379-.089h-.463v-.424h5.228l.114,2.281h-.381a4.38,4.38,0,0,0-.246-.957,1.53,1.53,0,0,0-.379-.591,1.337,1.337,0,0,0-.593-.251,5.613,5.613,0,0,0-1.073-.078,1.349,1.349,0,0,0-.636.089.417.417,0,0,0-.122.357v2.047h.129A1.125,1.125,0,0,0,89.8,24.318h.377v2.845H89.8a1.435,1.435,0,0,0-.353-.959,1.48,1.48,0,0,0-.994-.265h-.129v2.321a.423.423,0,0,0,.131.368,1.556,1.556,0,0,0,.7.092,7.521,7.521,0,0,0,1.013-.056,2.079,2.079,0,0,0,.632-.176,1.176,1.176,0,0,0,.49-.58,5.433,5.433,0,0,0,.351-1.247h.343l-.137,2.452Zm-12.684,0v-.421h.46a.587.587,0,0,0,.381-.089.463.463,0,0,0,.094-.343V23.506a.452.452,0,0,0-.094-.338.571.571,0,0,0-.381-.089h-.46v-.424h5.226l.114,2.281h-.381a4.15,4.15,0,0,0-.246-.957,1.529,1.529,0,0,0-.377-.591,1.348,1.348,0,0,0-.593-.251A5.588,5.588,0,0,0,76.4,23.06a1.354,1.354,0,0,0-.638.089.417.417,0,0,0-.122.357v2.047h.129a1.125,1.125,0,0,0,1.345-1.236h.379v2.845h-.379a1.435,1.435,0,0,0-.353-.959,1.466,1.466,0,0,0-.992-.265h-.129v2.321a.423.423,0,0,0,.131.368,1.544,1.544,0,0,0,.7.092,7.534,7.534,0,0,0,1.015-.056,2.082,2.082,0,0,0,.63-.176,1.155,1.155,0,0,0,.49-.58,5.326,5.326,0,0,0,.351-1.247H79.3l-.137,2.452Zm-6.841,0v-.43h.463a.578.578,0,0,0,.381-.086.452.452,0,0,0,.094-.338V23.506a.442.442,0,0,0-.1-.338.557.557,0,0,0-.377-.089h-.463v-.424h3.208a2.786,2.786,0,0,1,2.174.837,3.449,3.449,0,0,1,.76,2.393,3.537,3.537,0,0,1-.733,2.359,2.48,2.48,0,0,1-2,.867Zm2-5.946a.476.476,0,0,0-.09.34v4.753a.473.473,0,0,0,.09.338.562.562,0,0,0,.371.086h.726a1.66,1.66,0,0,0,1.476-.644,3.956,3.956,0,0,0,.439-2.153,3.68,3.68,0,0,0-.482-2.156,1.806,1.806,0,0,0-1.566-.65h-.593A.57.57,0,0,0,68.888,23.166ZM58.076,29.112v-.421h.463a.566.566,0,0,0,.375-.089.471.471,0,0,0,.1-.343V23.506a.46.46,0,0,0-.1-.338.55.55,0,0,0-.375-.089h-.463v-.424H63.3l.116,2.281H63.03a4.049,4.049,0,0,0-.244-.957,1.581,1.581,0,0,0-.379-.591,1.346,1.346,0,0,0-.6-.251,5.533,5.533,0,0,0-1.069-.078,1.338,1.338,0,0,0-.634.089.411.411,0,0,0-.122.357v2.047h.124a1.128,1.128,0,0,0,1.349-1.236h.373v2.845H61.46A1.435,1.435,0,0,0,61.1,26.2a1.476,1.476,0,0,0-.994-.265h-.124v2.321a.423.423,0,0,0,.129.368,1.544,1.544,0,0,0,.7.092,7.6,7.6,0,0,0,1.015-.056,2.049,2.049,0,0,0,.628-.176,1.171,1.171,0,0,0,.495-.58,5.449,5.449,0,0,0,.349-1.247h.343l-.135,2.452Zm-4.991,0v-.421h.57a.589.589,0,0,0,.377-.089.482.482,0,0,0,.094-.343V23.47a.586.586,0,0,0-.086-.382c-.056-.061-.223-.092-.505-.092a1.039,1.039,0,0,0-.917.469,4.3,4.3,0,0,0-.473,1.671H51.8l.12-2.479h5.37l.133,2.479h-.345a4.033,4.033,0,0,0-.505-1.712A1.236,1.236,0,0,0,55.517,23a.449.449,0,0,0-.334.095.624.624,0,0,0-.081.379v4.789a.473.473,0,0,0,.092.343.57.57,0,0,0,.375.089h.568v.421Zm-4.189,0v-.43h.343a1.22,1.22,0,0,0,.439-.05.185.185,0,0,0,.1-.187.482.482,0,0,0-.019-.131,1.823,1.823,0,0,0-.06-.181l-.413-1.121h-2.4l-.274.694a1.748,1.748,0,0,0-.092.293.989.989,0,0,0-.034.243.367.367,0,0,0,.167.329.856.856,0,0,0,.486.112h.223v.43H45.052v-.43h.073a.87.87,0,0,0,.55-.151,1.463,1.463,0,0,0,.373-.6l2.1-5.383H48.5l2.279,5.692a.829.829,0,0,0,.233.365.7.7,0,0,0,.383.084c.017,0,.045,0,.086,0s.069-.006.09-.006v.43Zm-1.851-2.56H49.13l-1.062-2.591Zm-6.567,2.56v-.421h.57a.577.577,0,0,0,.377-.089.471.471,0,0,0,.1-.343V23.47a.632.632,0,0,0-.084-.382c-.058-.061-.227-.092-.51-.092a1.024,1.024,0,0,0-.912.469,4.18,4.18,0,0,0-.475,1.671H39.2l.124-2.479h5.363l.137,2.479H44.48a4.163,4.163,0,0,0-.505-1.712A1.252,1.252,0,0,0,42.912,23a.442.442,0,0,0-.334.095.6.6,0,0,0-.086.379v4.789a.472.472,0,0,0,.094.343.578.578,0,0,0,.375.089h.572v.421Zm-13.07,0v-.421h.46a.568.568,0,0,0,.379-.089.461.461,0,0,0,.1-.343V23.506a.451.451,0,0,0-.1-.338.552.552,0,0,0-.379-.089h-.46v-.424h5.228l.116,2.281H32.37a4.512,4.512,0,0,0-.244-.957,1.584,1.584,0,0,0-.383-.591,1.326,1.326,0,0,0-.593-.251,5.518,5.518,0,0,0-1.069-.078,1.349,1.349,0,0,0-.636.089.411.411,0,0,0-.124.357v2.047h.126A1.126,1.126,0,0,0,30.8,24.318h.373v2.845H30.8a1.446,1.446,0,0,0-.356-.959,1.483,1.483,0,0,0-1-.265H29.32v2.321a.418.418,0,0,0,.133.368,1.533,1.533,0,0,0,.7.092,7.614,7.614,0,0,0,1.017-.056,2.082,2.082,0,0,0,.63-.176,1.155,1.155,0,0,0,.49-.58,5.545,5.545,0,0,0,.351-1.247h.341l-.133,2.452Zm-8.34,0v-.421h.458a.583.583,0,0,0,.381-.089.462.462,0,0,0,.1-.343V23.506a.451.451,0,0,0-.1-.338.567.567,0,0,0-.381-.089h-.458v-.424h2.847v.424h-.473a.551.551,0,0,0-.368.087.455.455,0,0,0-.094.34v4.753c0,.184.036.3.12.363a1.381,1.381,0,0,0,.636.086,5.634,5.634,0,0,0,1.077-.078,1.268,1.268,0,0,0,.589-.254,1.564,1.564,0,0,0,.394-.628,6.166,6.166,0,0,0,.287-1.113h.343l-.131,2.477Zm-2.885,0v-.43h.341a1.2,1.2,0,0,0,.441-.05.183.183,0,0,0,.1-.187.482.482,0,0,0-.019-.131c-.017-.056-.039-.114-.064-.181l-.407-1.121H14.173l-.274.694A2.654,2.654,0,0,0,13.8,28a1.408,1.408,0,0,0-.032.243.378.378,0,0,0,.163.329.887.887,0,0,0,.495.112h.223v.43H12.341v-.43h.073a.878.878,0,0,0,.55-.151,1.463,1.463,0,0,0,.373-.6l2.1-5.383h.349l2.281,5.692a.848.848,0,0,0,.233.365.686.686,0,0,0,.379.084c.021,0,.049,0,.088,0s.073-.006.092-.006v.43Zm-1.851-2.56h2.084l-1.062-2.591Zm-7.953,2.56v-.421h.467a.581.581,0,0,0,.377-.089.461.461,0,0,0,.1-.343V23.506a.451.451,0,0,0-.1-.338.565.565,0,0,0-.377-.089H6.381v-.424h5.228l.116,2.281h-.386a4.054,4.054,0,0,0-.242-.957,1.508,1.508,0,0,0-.381-.591,1.306,1.306,0,0,0-.591-.251,5.573,5.573,0,0,0-1.071-.078,1.349,1.349,0,0,0-.636.089.411.411,0,0,0-.124.357v2.047h.129a1.464,1.464,0,0,0,.992-.273,1.479,1.479,0,0,0,.356-.962h.375v2.845H9.769a1.468,1.468,0,0,0-.353-.959,1.484,1.484,0,0,0-.994-.265H8.293v2.321a.423.423,0,0,0,.131.368,1.557,1.557,0,0,0,.7.092,7.569,7.569,0,0,0,1.017-.056,2.082,2.082,0,0,0,.63-.176,1.168,1.168,0,0,0,.493-.58,5.356,5.356,0,0,0,.347-1.247h.341l-.135,2.452ZM135.63,18.837,124.583,3.76V14.143a3.7,3.7,0,0,0,.628,2.535,3.255,3.255,0,0,0,2.33.644v1.068h-6.916V17.323a3.162,3.162,0,0,0,2.118-.734,3.831,3.831,0,0,0,.55-2.446V2.413a1.377,1.377,0,0,0-.739-.63,4.553,4.553,0,0,0-1.5-.181h-.426V.446h4.853L135.365,14V4.705a3.756,3.756,0,0,0-.606-2.552,3.411,3.411,0,0,0-2.354-.639V.446h6.942V1.514a3.012,3.012,0,0,0-2.148.711,3.836,3.836,0,0,0-.574,2.48V18.837Zm-49.507,0L75.072,3.76V14.143a3.714,3.714,0,0,0,.63,2.535,3.245,3.245,0,0,0,2.328.644v1.068H71.118V17.323a3.158,3.158,0,0,0,2.114-.734,3.843,3.843,0,0,0,.553-2.446V2.413a1.377,1.377,0,0,0-.739-.63,4.553,4.553,0,0,0-1.5-.181h-.424V.446h4.851L85.86,14V4.705a3.778,3.778,0,0,0-.608-2.552A3.423,3.423,0,0,0,82.9,1.514V.446h6.937V1.514a3.016,3.016,0,0,0-2.148.711,3.881,3.881,0,0,0-.57,2.48V18.837Zm20.562-.731a8.186,8.186,0,0,1-2.825-2.178,8.73,8.73,0,0,1-1.668-2.9,11.17,11.17,0,0,1-.54-3.6,11.073,11.073,0,0,1,.593-3.67,8.882,8.882,0,0,1,1.748-2.99A8.025,8.025,0,0,1,106.758.7a8.87,8.87,0,0,1,6.847-.031,8,8,0,0,1,2.761,2.069,8.854,8.854,0,0,1,1.767,3,11.062,11.062,0,0,1,.591,3.687,11.243,11.243,0,0,1-.533,3.62,8.542,8.542,0,0,1-1.654,2.884,8.162,8.162,0,0,1-2.821,2.17,8.376,8.376,0,0,1-3.513.717A8.464,8.464,0,0,1,106.685,18.107Zm-.493-14.919q-1.314,2.042-1.313,6.236t1.309,6.231a4.93,4.93,0,0,0,8.008-.02,11.68,11.68,0,0,0,1.322-6.211c0-2.814-.439-4.895-1.3-6.247a4.978,4.978,0,0,0-8.023.011ZM24.314,18.107a8.173,8.173,0,0,1-2.827-2.178,8.693,8.693,0,0,1-1.668-2.9,11.229,11.229,0,0,1-.54-3.6,11.073,11.073,0,0,1,.593-3.67,8.882,8.882,0,0,1,1.748-2.99A7.965,7.965,0,0,1,24.385.7,8.87,8.87,0,0,1,31.232.672,8,8,0,0,1,34,2.742a8.883,8.883,0,0,1,1.765,3,11.118,11.118,0,0,1,.585,3.687,11.372,11.372,0,0,1-.525,3.62,8.554,8.554,0,0,1-1.658,2.884,8.194,8.194,0,0,1-2.819,2.17,9.024,9.024,0,0,1-7.03.008ZM23.822,3.188Q22.508,5.229,22.5,9.424t1.313,6.231A4.431,4.431,0,0,0,27.831,17.7a4.43,4.43,0,0,0,3.992-2.064,11.68,11.68,0,0,0,1.322-6.211q0-4.221-1.3-6.247a4.439,4.439,0,0,0-4.01-2.025A4.448,4.448,0,0,0,23.822,3.188Zm67.723,15.2V17.225h1.337a1.639,1.639,0,0,0,1.069-.254,1.27,1.27,0,0,0,.276-.948V2.814a1.251,1.251,0,0,0-.276-.943,1.679,1.679,0,0,0-1.069-.248H91.545V.446h8.092V1.623H98.3a1.638,1.638,0,0,0-1.047.243,1.254,1.254,0,0,0-.272.948V16.023a1.282,1.282,0,0,0,.272.954,1.615,1.615,0,0,0,1.047.248h1.334v1.166Zm-30.183,0V17.225H62.7a1.62,1.62,0,0,0,1.067-.254,1.251,1.251,0,0,0,.281-.948V2.814a1.232,1.232,0,0,0-.281-.943A1.659,1.659,0,0,0,62.7,1.623H61.362V.446h8.092V1.623H68.119a1.637,1.637,0,0,0-1.05.243,1.263,1.263,0,0,0-.272.948V16.023a1.292,1.292,0,0,0,.272.954,1.614,1.614,0,0,0,1.05.248h1.334v1.166Zm-9.718,0V17.225h1.491a1.615,1.615,0,0,0,1.058-.248,1.3,1.3,0,0,0,.268-.954V2.036L48.892,18.391h-.97L41.989,2.036V14.143a3.737,3.737,0,0,0,.613,2.519,3.313,3.313,0,0,0,2.337.661v1.068H37.731l.013-1.068a3.384,3.384,0,0,0,2.35-.65,3.69,3.69,0,0,0,.623-2.53V2.814a1.29,1.29,0,0,0-.268-.943,1.589,1.589,0,0,0-1.043-.248H37.939V.446h6.209l4.817,13.722L53.634.446H59.7V1.623H58.378a1.551,1.551,0,0,0-1.024.243,1.285,1.285,0,0,0-.261.948V16.023a1.315,1.315,0,0,0,.261.954,1.531,1.531,0,0,0,1.024.248H59.7v1.166ZM0,18.391V17.2H1.287a1.627,1.627,0,0,0,1.06-.24,1.267,1.267,0,0,0,.261-.937V2.814a1.272,1.272,0,0,0-.266-.943,1.615,1.615,0,0,0-1.056-.248H0V.446H8.917a7.756,7.756,0,0,1,6.044,2.326q2.108,2.322,2.11,6.652a9.836,9.836,0,0,1-2.033,6.557,6.875,6.875,0,0,1-5.552,2.41ZM5.575,1.866a1.306,1.306,0,0,0-.257.948V16.023a1.3,1.3,0,0,0,.251.937A1.562,1.562,0,0,0,6.6,17.2H8.617a4.6,4.6,0,0,0,4.1-1.788q1.227-1.791,1.225-5.988T12.607,3.433A5.051,5.051,0,0,0,8.25,1.623H6.6A1.562,1.562,0,0,0,5.575,1.866Z" transform="translate(136.465 300.861)" fill="#fff" stroke="rgba(0,0,0,0)" stroke-miterlimit="10" stroke-width="1"/>
    <path id="Контур_1650" data-name="Контур 1650" d="M117.455.671a.553.553,0,0,0-.76.179l-3.149,5.4-1.9,1.035.343-1.23a.541.541,0,0,0,0-.288L111.242,3a.547.547,0,0,0-.417-.381.556.556,0,0,0-.648.434l-.442,2.531-1.062,1.53-2.332-1.578a.532.532,0,0,0-.115-.107L102.3.883a.556.556,0,0,0-.257-.167L99.74.024a.551.551,0,0,0-.63.8l2.216,3.913,2.944,7.194-1.09.74L99.319,12.4l-3.831-2.79a.55.55,0,0,0-.814.679l2.672,5.661a.539.539,0,0,0,.3.415l5.359,4.752.9,4.343-4.935,8.595L86.669,39.562l2.621-2.2c.007,0,.013-.011.02-.016l.034-.029c.009-.007.014-.019.023-.027a.543.543,0,0,0,.093-.11h0a.543.543,0,0,0,.07-.19L90.909,30.5c0-.008,0-.016,0-.024a.539.539,0,0,0-.011-.229c0-.007,0-.015,0-.023l-.013-.039a.129.129,0,0,0,0-.019l-.007-.014-1.851-5.78v-2.57a.556.556,0,0,0-.329-.484.54.54,0,0,0-.421-.009.55.55,0,0,0-.305.3l-.852,2.123a.507.507,0,0,0-.1.461l.393,7.015L83.6,36.482a.571.571,0,0,0-.1.116l-8.236,6.077,4.53-5.53a.537.537,0,0,0,.123-.245l1.779-6.6a.554.554,0,0,0-.022-.351l-3.19-7.75-.227-3.829a.55.55,0,0,0-1.057-.162l-1.441,3.747a.544.544,0,0,0-.016.338l2.136,7.816L75.4,35.45l-7.04,8.188a.529.529,0,0,0-.052.075L65.552,48.37l-.915-.449a.547.547,0,0,0-.574.057l-1.515,1.155H55.587l-1.365-1.141a.555.555,0,0,0-.591-.071l-1.493.732-2.723-4.608a.836.836,0,0,0-.056-.079l-7.037-8.184-2.476-5.338,2.135-7.814a.542.542,0,0,0-.016-.342l-1.442-3.747a.55.55,0,0,0-1.056.167l-.225,3.827-3.191,7.75a.555.555,0,0,0-.022.351l1.783,6.613a.533.533,0,0,0,.072.157.394.394,0,0,0,.026.055L42.45,43,34.175,36.9l-3.869-5.361.4-7.066a.54.54,0,0,0-.039-.233l-.924-2.3a.552.552,0,0,0-.485-.329h-.018a.552.552,0,0,0-.55.537v2.568l-1.875,5.853a.549.549,0,0,0-.014.276l1.383,6.51a.588.588,0,0,0,.031.079c0,.012.008.023.013.035a.563.563,0,0,0,.1.149l.01.011a.415.415,0,0,0,.027.032L31.038,39.9l-12.3-5.5L13.8,25.8l.9-4.345,5.443-4.828a.549.549,0,0,0,.139-.177l2.748-5.823a.555.555,0,0,0-.051-.532.55.55,0,0,0-.768-.139L18.38,12.74,14.52,13l-1.09-.739,2.912-7.131,2.249-3.978a.55.55,0,0,0-.634-.791l-2.3.691a.528.528,0,0,0-.257.166L11.5,5.735a.552.552,0,0,0-.148.141L9.041,7.445,7.978,5.916l-.44-2.531a.549.549,0,0,0-.515-.453.561.561,0,0,0-.55.4L5.725,6.1a.529.529,0,0,0,0,.29l.342,1.23-1.9-1.038-3.15-5.4A.578.578,0,0,0,.529.919.55.55,0,0,0,0,1.494L.346,6.968a.551.551,0,0,0,.089.264L3.891,12.5l1.726,9.29,3.224,9.852a.519.519,0,0,0,.137.217l8.468,8.412a.511.511,0,0,0,.048.033.415.415,0,0,0,.043.03.679.679,0,0,0,.071.048L34.066,47.72l.033.012v.021h.057l9,3.223,2.366,1.505-.11.706-7.39-2.9a.527.527,0,0,0-.086-.025L22.646,47a.55.55,0,0,0-.591.8l5.262,9.448a.534.534,0,0,0,.12.147l5.685,4.916a.546.546,0,0,0,.306.131l7.246.685,2.926.723.914,3.266a.545.545,0,0,0,.062.137l.995,1.594L43.4,80.965l-3.885,8.171a.537.537,0,0,0-.054.236l0,2.061-1.777,8.6c0,.014.006.027,0,.04a.46.46,0,0,0-.014.062.544.544,0,0,0,.041.214v.008l3.55,8.356a.587.587,0,0,0,.089.13c.01.011.014.025.024.036h0l0,.006,17.122,16.936c.007.008.018.01.025.017a.577.577,0,0,0,.109.073.445.445,0,0,0,.057.03.55.55,0,0,0,.189.039h.017a.542.542,0,0,0,.134-.019c.01,0,.016-.01.025-.013a.512.512,0,0,0,.127-.066c.017-.012.036-.021.051-.034s.027-.014.038-.025L76.4,108.888a.544.544,0,0,0,.12-.176l3.549-8.353c0-.005,0-.012,0-.017a.543.543,0,0,0,.027-.269c0-.013.006-.026,0-.039l-1.773-8.57V89.373a.524.524,0,0,0-.054-.235L74.4,80.971,72.575,69.012l1.111-1.752a.581.581,0,0,0,.067-.149l.913-3.264,2.9-.72,7.27-.688a.535.535,0,0,0,.306-.131l5.686-4.917a.577.577,0,0,0,.119-.146l5.263-9.451a.57.57,0,0,0,.055-.365A.547.547,0,0,0,95.619,47L80.334,50.26a.575.575,0,0,0-.087.026l-7.391,2.9-.163-1.052a.536.536,0,0,0-.1-.239l1.938-1.237,9.076-3.264c.024-.007.046-.016.069-.025l.009,0,16.418-7.317a.407.407,0,0,0,.048-.033.5.5,0,0,0,.077-.052c.012-.01.027-.015.039-.026l8.465-8.41a.536.536,0,0,0,.14-.219l3.243-9.92,1.708-9.224L117.28,6.9a.52.52,0,0,0,.088-.266l.347-5.478A.558.558,0,0,0,117.455.671ZM72.62,54.453,80.6,51.321l11.424-2.439L79.936,55.3a.55.55,0,0,0-.173.145L74.156,62.6,71.175,60l.151-3.73,1.264-1.815C72.6,54.455,72.61,54.457,72.62,54.453Zm4.621,37.162.886,4.264-9.17-19.116,1.865-4.987.861-1.357,1.634,10.8a.568.568,0,0,0,.047.152L77.229,89.5V91.5A.538.538,0,0,0,77.241,91.615ZM45.507,54.408l1.3,1.865L46.956,60l-2.942,2.454-5.355-7a.559.559,0,0,0-.18-.151l-12.164-6.4,11.326,2.417Zm-1.762-4.359L35.5,42.27l-.846-3.658,10.683,7.883a.541.541,0,0,0,.229.066v4.651ZM7.411,8.991a.553.553,0,0,0,.055-.42L6.816,6.24,6.882,6l.039.227a.553.553,0,0,0,.09.216L8.452,8.52a.553.553,0,0,0,.756.137l1.633-1.11L8.143,17,4.856,11.975l-.014-.012L1.426,6.755,1.235,3.734,3.3,7.269a.548.548,0,0,0,.211.2L6.679,9.2a.539.539,0,0,0,.4.046A.553.553,0,0,0,7.411,8.991Zm8.712-6.934.851-.255L15.365,4.655l-3.111,7.6a.553.553,0,0,0,.2.66l1.612,1.089a.51.51,0,0,0,.346.1l4.205-.288a.537.537,0,0,0,.284-.1l2.226-1.62L19.415,15.72,9.083,17.709l3.19-11.2ZM71.654,52.581l.166,1.066-1.487,2.132a.558.558,0,0,0-.1.29l-.159,3.959L65.89,63.214l-3.225-4.137.6-9.115,1.187-.906Zm.076,10.727-1.291-.485.484-1.589L73.01,63.05l-1.155.205A.552.552,0,0,0,71.73,63.308ZM52.772,64.315c.005-.007.007-.016.012-.023l2.659-3.414.261,4.844-.86,4.775-2.811-5.241.722-.927A.212.212,0,0,0,52.772,64.315Zm13.325.944-2.975,5.45-.9-4.9.336-5.088Zm-7,21.392a.457.457,0,0,0-.422,0H56.955l-2.793-2.973H64.1l-2.779,2.973Zm6.077-4.069-12.1,0-1.661-1.223-.034-1.985,1.03-4.769L54.9,72.94l.446.884-1.99,1.29a.552.552,0,0,0-.249.444l-.1,3.456a.549.549,0,0,0,.277.5l3.429,1.9a.559.559,0,0,0,.264.069h4.154a.58.58,0,0,0,.254-.062l3.36-1.772a.549.549,0,0,0,.287-.55l-.479-3.761a.547.547,0,0,0-.265-.4L62.564,73.91l.48-.814,2.533,1.7,1.307,4.572-.032,1.986ZM56.952,75.63a.555.555,0,0,0,.341.118h3.224a.607.607,0,0,0,.355-.13l1-.843,1.623.955.4,3.119-2.905,1.534H57.117L54.1,78.714l.083-2.836,1.694-1.1Zm5.34-3.407-.9,1.526-1.071.9H57.486l-.838-.665-.973-1.931.943-5.236,2.15,1.935a.55.55,0,0,0,.366.139h0a.546.546,0,0,0,.385-.159l1.8-1.8Zm6.965-9.283a.463.463,0,0,0-.02.131L67.08,64.74l-.518-.665,3.057-2.326Zm-18.207,1.8-2.162-1.673a.515.515,0,0,0-.013-.123l-.362-1.189,3.053,2.322ZM53.081,84.11l3.235,3.464a.549.549,0,0,0,.4.173h1.631v33.662L49.961,91.214Zm6.359,3.637h2.116a.541.541,0,0,0,.394-.17l3.228-3.458,2.844,6.765-8.581,30.83ZM47.205,61.221l.489,1.6-1.154.433-1.481-.247Zm22.678,10a.556.556,0,0,0-.051.1l-1.985,5.3c-.006.019-.017.037-.022.058l-.325.87L66.568,74.3a.544.544,0,0,0-.221-.3l-2.761-1.85,3.584-6.571,1.679.473a.488.488,0,0,0,.078.109l2.359,2.853ZM49.171,66.194a.3.3,0,0,0,.11-.145l1.682-.474,3.425,6.39-2.771,1.857a.542.542,0,0,0-.229.34l-.7,3.233-2.346-6.129a.613.613,0,0,0-.047-.092l-1.519-2.435ZM62.149,50.231,61.137,65.566l-2.023,2.023L56.788,65.5l-.819-15.265ZM49.7,77.844l.593,1.551.037,2.247a.55.55,0,0,0,.223.43l1.683,1.236-3.281,7.473a.541.541,0,0,0-.092.134.561.561,0,0,0-.031.145l-7.052,16.056-2.955-6.956ZM49.265,92.8l8.552,30.8L42.426,108.37Zm19.44-.289,6.667,15.861L60.084,123.485Zm.446-1.76a.527.527,0,0,0-.1-.278c-.01-.013-.025-.02-.035-.032l-2.994-7.123,1.685-1.24a.556.556,0,0,0,.224-.431l.036-2.249.454-1.214L78.97,100.161,76.023,107.1Zm-13.8-31.535L52.24,63.208l-4.185-3.186L47.9,56.068a.559.559,0,0,0-.1-.29L46.419,53.8l.188-1.213,7.184-3.522,1.066.888ZM39.547,32.41l1.8,3.878v0l3.033,7.338L38.915,36.96Zm7.116,18.924V46.4a.548.548,0,0,0-.041-.209l-2.967-7.175,4.833,5.616,2.663,4.506Zm-7.891-21.12a.422.422,0,0,0-.026.094l-.012.044v.014a.35.35,0,0,0-.013.056l-.551,3.961-1.038-3.851,3.156-7.664a.563.563,0,0,0,.04-.175l.082-1.392.467,1.216Zm-4.258,16.5L22.245,37.158l11.876,5.314,7.01,6.615Zm-20.6-26.031a.517.517,0,0,0-.2.244l-3.923,8.1L8.986,18.844l8.95-1.724Zm-1.444,5.325.282.212L16.6,37.887,9.929,31.27Zm2.94,4.792,2.462,4.287c.016.029.05.04.071.064a.547.547,0,0,0,.067.1l12.358,9.626-12.1-5.392Zm14.645,2.256,3.223,4.467.808,3.5-4.773-4Zm-.846-1.422-.525,2.8L27.9,30.752l1.643-5.128ZM7.863,18.574l.681,8.663L6.67,21.525,5.437,14.862Zm30,37.642L42.669,62.5,40.9,62.06c-.024-.005-.048-.01-.078-.014l-7.123-.674-5.48-4.738-4.329-7.775Zm8.47,8.111.005.027.039,0,1.644,1.469-1.843,1.959-.644-1.033-.748-2.675Zm1.014,7.359,1.819,4.758L39.639,95.991l.906-4.382a.491.491,0,0,0,.011-.111V89.49l3.866-8.128a.514.514,0,0,0,.043-.136l1.97-11ZM71.928,68a.527.527,0,0,0-.056,0l-1.786-2.158L71.813,64.3a.523.523,0,0,0,.137.037h.022a.545.545,0,0,0,.087-.014l1.412-.248-.742,2.66Zm5.437-5.945-1.725.425,4.915-6.266,13.806-7.336-4.314,7.75-5.48,4.738-7.124.675A.4.4,0,0,0,77.365,62.053Zm27.9-49.469a.548.548,0,0,0,.2-.66l-3.141-7.666-1.579-2.792.851.252,3.831,4.434,3.212,11.227L98.306,15.4l-1.712-3.629,2.226,1.621a.553.553,0,0,0,.284.1l4.208.29a.542.542,0,0,0,.343-.094ZM110.3,8.637a.541.541,0,0,0,.323.268.56.56,0,0,0,.422-.04l3.169-1.728a.559.559,0,0,0,.21-.2L116.481,3.4l-.19,3.023-3.409,5.2a.435.435,0,0,0-.033.042l-3.281,5.02L106.863,7.2l1.65,1.121a.546.546,0,0,0,.756-.139l1.44-2.073a.532.532,0,0,0,.09-.22l.038-.219.065.238-.653,2.335A.549.549,0,0,0,110.3,8.637ZM76.582,48.757l6.994-6.6L95.439,36.85,83.195,46.387Zm-4.439,2.13V46.252a.55.55,0,0,0,.25-.086L83.054,38.3l-.841,3.642-8.245,7.78ZM76.358,35.98l1.815-3.9.633,4.553-5.5,6.71,3.034-7.343A.214.214,0,0,0,76.358,35.98Zm11.3-3.237L88.4,36.7,83.62,40.707l.8-3.477Zm.854-1.385V31.35l-.241-4.306,1.538,3.424-.778,3.664Zm11.2,3.547a.549.549,0,0,0,.05-.069c.024-.028.062-.042.081-.074l2.441-4.251-2.844,8.637-12.105,5.4Zm9.021-16.389L107.931,28.7l-3.916-8.087c0-.009-.009-.016-.012-.025s-.01-.022-.017-.033a.649.649,0,0,0-.029-.059.538.538,0,0,0-.2-.176l-3.975-3.524Zm-3.777,7.376.29-.219,2.541,5.256-6.67,6.623ZM79.553,34.067,79,30.111a.5.5,0,0,0-.018-.13c0-.013-.012-.022-.016-.035l-2.12-7.755.467-1.215.082,1.393a.546.546,0,0,0,.041.175l3.155,7.663ZM74.048,38.7l-2.959,7.158a.548.548,0,0,0-.041.209V51l-4.482-2.2,2.647-4.489Zm35.117-11.784.68-8.658,2.437-3.731-1.218,6.594Z" transform="translate(145.998 164.996)" fill="#fff"/>
  </g>
</svg>
