<svg xmlns="http://www.w3.org/2000/svg" width="280" height="80" viewBox="0 0 280 80">
  <g id="Сгруппировать_969" data-name="Сгруппировать 969" transform="translate(-95 -391)">
    <rect id="Прямоугольник_32" data-name="Прямоугольник 32" width="280" height="80" transform="translate(95 391)" fill="#dd000b"/>
    <path id="Объединение_6" data-name="Объединение 6" d="M13206.514,349.782a2.784,2.784,0,0,1-.975-.611l-.459.761h-.388l-.055-3.186h.453a3.9,3.9,0,0,0,.922,2.055,2.3,2.3,0,0,0,1.739.7,2.049,2.049,0,0,0,1.369-.415,1.6,1.6,0,0,0,.363-1.766,1.139,1.139,0,0,0-.356-.436,4.672,4.672,0,0,0-1.311-.473c-.213-.055-.374-.1-.494-.13a5.063,5.063,0,0,1-2.092-.926,1.934,1.934,0,0,1-.518-1.441,2.15,2.15,0,0,1,.638-1.629,2.362,2.362,0,0,1,1.708-.607,3.155,3.155,0,0,1,1.121.192,2.77,2.77,0,0,1,.937.573l.422-.659h.408l.124,2.854h-.429a3.777,3.777,0,0,0-.961-1.838,2.256,2.256,0,0,0-1.622-.621,1.642,1.642,0,0,0-1.122.35,1.239,1.239,0,0,0-.4.984c0,.652.666,1.139,1.99,1.465.131.027.226.051.295.069a9.159,9.159,0,0,1,1.307.4,2.536,2.536,0,0,1,.654.422,1.964,1.964,0,0,1,.5.737,2.589,2.589,0,0,1,.171.954,2.287,2.287,0,0,1-.71,1.8,2.914,2.914,0,0,1-2.01.638A3.456,3.456,0,0,1,13206.514,349.782Zm118.52.216-4.891-6.671v4.6a1.643,1.643,0,0,0,.281,1.122,1.439,1.439,0,0,0,1.032.285v.473h-3.06v-.473a1.39,1.39,0,0,0,.933-.326,1.676,1.676,0,0,0,.248-1.08V342.73a.614.614,0,0,0-.33-.278,1.973,1.973,0,0,0-.661-.082h-.189v-.508h2.144l4.376,6v-4.112a1.67,1.67,0,0,0-.267-1.128,1.494,1.494,0,0,0-1.043-.281v-.473h3.073v.473a1.337,1.337,0,0,0-.953.312,1.706,1.706,0,0,0-.251,1.1V350Zm-60.225,0-2.781-7.134a.86.86,0,0,0-.258-.4,1.21,1.21,0,0,0-.535-.075h-.243v-.521h3.375v.521h-.405a1.426,1.426,0,0,0-.524.062.236.236,0,0,0-.134.233.953.953,0,0,0,.023.175,1.314,1.314,0,0,0,.063.209l1.944,4.966,1.729-4.438a2.391,2.391,0,0,0,.106-.346,1.178,1.178,0,0,0,.037-.281.506.506,0,0,0-.191-.442,1.043,1.043,0,0,0-.6-.137h-.3v-.521h2.864v.521h-.076a1.064,1.064,0,0,0-.662.182,1.78,1.78,0,0,0-.449.751l-2.548,6.681Zm-96.645-.35a2.239,2.239,0,0,1-.4-1.2l-.116-1.1a1.561,1.561,0,0,0-.471-1.07,1.921,1.921,0,0,0-1.237-.326h-.591v2.8a.587.587,0,0,0,.113.422.7.7,0,0,0,.456.11h.68v.518h-3.6v-.518h.572a.707.707,0,0,0,.464-.11.567.567,0,0,0,.12-.422v-5.845a.554.554,0,0,0-.12-.415.687.687,0,0,0-.464-.11H13163v-.521h4.4a2.362,2.362,0,0,1,1.611.535,1.8,1.8,0,0,1,.611,1.413,1.645,1.645,0,0,1-.607,1.351,3.472,3.472,0,0,1-1.825.624,1.641,1.641,0,0,1,1.551,1.42l.295,1.242a1.643,1.643,0,0,0,.206.552.336.336,0,0,0,.287.171c.148,0,.258-.093.33-.274a2.829,2.829,0,0,0,.124-.875l.418,0a1.166,1.166,0,0,0,.006.13c0,.055,0,.1,0,.12a2.078,2.078,0,0,1-.347,1.283,1.171,1.171,0,0,1-.984.446A1.137,1.137,0,0,1,13168.164,349.648Zm-2.7-7.192a.5.5,0,0,0-.113.388v2.583l.536.021c.048,0,.1.007.149.007s.128,0,.228,0a2.754,2.754,0,0,0,1.612-.37,1.4,1.4,0,0,0,.5-1.2,1.5,1.5,0,0,0-.4-1.173,2.055,2.055,0,0,0-1.345-.353h-.717A.707.707,0,0,0,13165.465,342.456Zm121.24,7.22a3.612,3.612,0,0,1-1.253-.964,3.823,3.823,0,0,1-.736-1.283,5.274,5.274,0,0,1,.023-3.221,3.91,3.91,0,0,1,.771-1.32,3.479,3.479,0,0,1,1.225-.912,3.909,3.909,0,0,1,3.028-.014,3.581,3.581,0,0,1,1.225.916,3.866,3.866,0,0,1,.778,1.324,4.844,4.844,0,0,1,.261,1.633,5.067,5.067,0,0,1-.233,1.6,3.841,3.841,0,0,1-.729,1.276,3.657,3.657,0,0,1-1.253.96,4,4,0,0,1-3.106,0Zm-.221-6.6a6.832,6.832,0,0,0,0,5.519,2.181,2.181,0,0,0,3.541-.01,6.836,6.836,0,0,0,.01-5.512,2.206,2.206,0,0,0-3.551,0Zm42.535,6.729v-.518h.7a.694.694,0,0,0,.46-.11.567.567,0,0,0,.12-.422v-5.889a.729.729,0,0,0-.106-.47c-.068-.075-.273-.113-.617-.113a1.275,1.275,0,0,0-1.129.576,5.238,5.238,0,0,0-.586,2.055h-.415l.147-3.049h6.6l.167,3.049h-.417a5.054,5.054,0,0,0-.628-2.106,1.528,1.528,0,0,0-1.308-.525.522.522,0,0,0-.4.117.716.716,0,0,0-.107.466v5.889a.587.587,0,0,0,.113.422.707.707,0,0,0,.46.11h.7v.518Zm-18.426,0v-.518h.569a.728.728,0,0,0,.47-.11.573.573,0,0,0,.116-.422v-5.845a.559.559,0,0,0-.116-.415.708.708,0,0,0-.47-.11h-.569v-.521h6.431l.141,2.806h-.473a5.346,5.346,0,0,0-.3-1.176,1.971,1.971,0,0,0-.466-.727,1.655,1.655,0,0,0-.731-.309,6.844,6.844,0,0,0-1.317-.1,1.666,1.666,0,0,0-.782.11.508.508,0,0,0-.149.439v2.518h.153a1.39,1.39,0,0,0,1.66-1.519h.463v3.5h-.463a1.78,1.78,0,0,0-.436-1.18,1.826,1.826,0,0,0-1.225-.326h-.153v2.854a.517.517,0,0,0,.161.453,1.892,1.892,0,0,0,.856.113,9.282,9.282,0,0,0,1.249-.069,2.517,2.517,0,0,0,.774-.216,1.42,1.42,0,0,0,.6-.713,6.507,6.507,0,0,0,.433-1.533h.419l-.165,3.015Zm-4.277,0v-.518h.659a.728.728,0,0,0,.47-.11.568.568,0,0,0,.116-.422v-6.187l-2.462,7.237h-.43l-2.627-7.237v5.357a1.644,1.644,0,0,0,.273,1.115,1.47,1.47,0,0,0,1.034.292v.473h-3.19l.006-.473a1.5,1.5,0,0,0,1.039-.288,1.624,1.624,0,0,0,.275-1.118v-5.014a.558.558,0,0,0-.12-.415.674.674,0,0,0-.459-.11h-.649v-.521H13303l2.129,6.071,2.069-6.071h2.682v.521h-.583a.7.7,0,0,0-.456.106.578.578,0,0,0-.113.418v5.845a.587.587,0,0,0,.113.422.7.7,0,0,0,.456.11h.583v.518Zm-13.407,0v-.518h.569a.721.721,0,0,0,.466-.11.568.568,0,0,0,.117-.422v-5.845a.555.555,0,0,0-.117-.415.7.7,0,0,0-.466-.11h-.569v-.521h4.229a2.67,2.67,0,0,1,1.827.573,2.047,2.047,0,0,1,.648,1.615,1.915,1.915,0,0,1-.815,1.684,4.332,4.332,0,0,1-2.439.562c-.175,0-.354,0-.534-.01s-.367-.014-.566-.024v2.49a.568.568,0,0,0,.116.422.69.69,0,0,0,.453.11h.683v.518Zm2.47-7.337a.574.574,0,0,0-.12.432v2.854a2.7,2.7,0,0,0,.3.024q.161.01.34.01a3.417,3.417,0,0,0,1.917-.388,1.574,1.574,0,0,0,.521-1.348,1.724,1.724,0,0,0-.414-1.293,1.913,1.913,0,0,0-1.352-.4h-.741A.68.68,0,0,0,13295.379,342.466ZM13277.1,349.8v-.518h.568a.722.722,0,0,0,.467-.11.568.568,0,0,0,.117-.422v-5.845a.555.555,0,0,0-.117-.415.7.7,0,0,0-.467-.11h-.568v-.521h3.5v.521h-.587a.679.679,0,0,0-.452.106.56.56,0,0,0-.113.418v5.845a.525.525,0,0,0,.147.446,1.674,1.674,0,0,0,.781.106,6.893,6.893,0,0,0,1.324-.1,1.556,1.556,0,0,0,.724-.312,1.907,1.907,0,0,0,.483-.772,6.893,6.893,0,0,0,.354-1.368h.422l-.161,3.046Zm-7.838,0v-.518h.568a.72.72,0,0,0,.467-.11.568.568,0,0,0,.117-.422v-5.845a.555.555,0,0,0-.117-.415.7.7,0,0,0-.467-.11h-.568v-.521h6.431l.138,2.806h-.47a5.126,5.126,0,0,0-.3-1.176,1.867,1.867,0,0,0-.467-.727,1.627,1.627,0,0,0-.729-.309,6.851,6.851,0,0,0-1.317-.1,1.663,1.663,0,0,0-.782.11.517.517,0,0,0-.151.439v2.518h.158a1.386,1.386,0,0,0,1.657-1.519h.463v3.5h-.463a1.77,1.77,0,0,0-.436-1.18,1.815,1.815,0,0,0-1.222-.326h-.158v2.854a.52.52,0,0,0,.161.453,1.919,1.919,0,0,0,.861.113,9.234,9.234,0,0,0,1.246-.069,2.578,2.578,0,0,0,.777-.216,1.448,1.448,0,0,0,.6-.713,6.752,6.752,0,0,0,.433-1.533h.419l-.168,3.015Zm-15.6,0v-.518h.565a.721.721,0,0,0,.47-.11.568.568,0,0,0,.117-.422v-5.845a.555.555,0,0,0-.117-.415.7.7,0,0,0-.47-.11h-.565v-.521h6.427l.141,2.806h-.469a5.177,5.177,0,0,0-.3-1.176,1.9,1.9,0,0,0-.467-.727,1.632,1.632,0,0,0-.729-.309,6.838,6.838,0,0,0-1.314-.1,1.667,1.667,0,0,0-.785.11.514.514,0,0,0-.151.439v2.518h.158a1.385,1.385,0,0,0,1.656-1.519h.463v3.5h-.463a1.76,1.76,0,0,0-.436-1.18,1.807,1.807,0,0,0-1.221-.326h-.158v2.854a.517.517,0,0,0,.161.453,1.9,1.9,0,0,0,.858.113,9.325,9.325,0,0,0,1.251-.069,2.544,2.544,0,0,0,.772-.216,1.438,1.438,0,0,0,.606-.713,6.781,6.781,0,0,0,.429-1.533h.422l-.168,3.015Zm-8.414,0v-.528h.569a.717.717,0,0,0,.47-.106.555.555,0,0,0,.117-.415v-5.845a.554.554,0,0,0-.12-.415.7.7,0,0,0-.467-.11h-.569v-.521h3.947a3.428,3.428,0,0,1,2.673,1.029,4.235,4.235,0,0,1,.933,2.943,4.344,4.344,0,0,1-.9,2.9,3.043,3.043,0,0,1-2.456,1.067Zm2.466-7.312a.578.578,0,0,0-.113.418v5.845a.573.573,0,0,0,.113.415.677.677,0,0,0,.453.106h.892a2.035,2.035,0,0,0,1.814-.792,4.831,4.831,0,0,0,.542-2.648,4.553,4.553,0,0,0-.59-2.651,2.229,2.229,0,0,0-1.928-.8h-.73A.7.7,0,0,0,13247.717,342.49Zm-13.3,7.313v-.518h.569a.707.707,0,0,0,.464-.11.576.576,0,0,0,.12-.422v-5.845a.562.562,0,0,0-.12-.415.687.687,0,0,0-.464-.11h-.569v-.521h6.428l.141,2.806h-.474a5.139,5.139,0,0,0-.3-1.176,1.9,1.9,0,0,0-.47-.727,1.628,1.628,0,0,0-.729-.309,6.826,6.826,0,0,0-1.316-.1,1.658,1.658,0,0,0-.781.11.514.514,0,0,0-.151.439v2.518h.154a1.386,1.386,0,0,0,1.659-1.519h.46v3.5h-.46a1.775,1.775,0,0,0-.436-1.18,1.823,1.823,0,0,0-1.224-.326h-.154v2.854a.517.517,0,0,0,.161.453,1.9,1.9,0,0,0,.857.113,9.3,9.3,0,0,0,1.249-.069,2.533,2.533,0,0,0,.774-.216,1.439,1.439,0,0,0,.607-.713,6.832,6.832,0,0,0,.429-1.533h.422l-.168,3.015Zm-6.136,0v-.518h.7a.728.728,0,0,0,.464-.11.586.586,0,0,0,.116-.422v-5.889a.729.729,0,0,0-.106-.47c-.068-.075-.273-.113-.62-.113a1.27,1.27,0,0,0-1.126.576,5.238,5.238,0,0,0-.586,2.055h-.418l.15-3.049h6.6l.165,3.049h-.422a4.978,4.978,0,0,0-.624-2.106,1.522,1.522,0,0,0-1.3-.525.543.543,0,0,0-.408.117.747.747,0,0,0-.1.466v5.889a.568.568,0,0,0,.116.422.685.685,0,0,0,.457.11h.7v.518Zm-5.148,0v-.528h.419a1.5,1.5,0,0,0,.541-.062.229.229,0,0,0,.127-.23.674.674,0,0,0-.023-.161c-.021-.069-.045-.141-.075-.223l-.508-1.379h-2.956l-.337.854a2.2,2.2,0,0,0-.113.36,1.223,1.223,0,0,0-.041.3.455.455,0,0,0,.2.4,1.065,1.065,0,0,0,.6.137h.274v.528h-2.839v-.528h.092a1.076,1.076,0,0,0,.676-.185,1.84,1.84,0,0,0,.457-.737l2.582-6.62h.43l2.8,7a1.037,1.037,0,0,0,.288.449.85.85,0,0,0,.471.1c.021,0,.055,0,.1,0s.089-.007.113-.007v.528Zm-2.277-3.149h2.562l-1.3-3.186Zm-8.077,3.149v-.518h.7a.708.708,0,0,0,.462-.11.581.581,0,0,0,.117-.422v-5.889a.759.759,0,0,0-.1-.47c-.072-.075-.277-.113-.624-.113a1.266,1.266,0,0,0-1.125.576,5.164,5.164,0,0,0-.583,2.055h-.423l.151-3.049h6.6l.169,3.049h-.419a5.108,5.108,0,0,0-.625-2.106,1.532,1.532,0,0,0-1.307-.525.543.543,0,0,0-.408.117.746.746,0,0,0-.1.466v5.889a.582.582,0,0,0,.114.422.7.7,0,0,0,.46.11h.7v.518Zm-16.072,0v-.518h.568a.715.715,0,0,0,.467-.11.567.567,0,0,0,.12-.422v-5.845a.554.554,0,0,0-.12-.415.7.7,0,0,0-.467-.11h-.568v-.521h6.431l.14,2.806h-.473a5.349,5.349,0,0,0-.3-1.176,1.926,1.926,0,0,0-.471-.727,1.632,1.632,0,0,0-.729-.309,6.79,6.79,0,0,0-1.314-.1,1.655,1.655,0,0,0-.781.11.5.5,0,0,0-.151.439v2.518h.154a1.386,1.386,0,0,0,1.66-1.519h.459v3.5h-.459a1.785,1.785,0,0,0-.436-1.18,1.826,1.826,0,0,0-1.225-.326h-.154v2.854a.517.517,0,0,0,.161.453,1.886,1.886,0,0,0,.857.113,9.266,9.266,0,0,0,1.248-.069,2.556,2.556,0,0,0,.775-.216,1.42,1.42,0,0,0,.6-.713,6.752,6.752,0,0,0,.433-1.533h.418l-.164,3.015Zm-10.256,0v-.518h.565a.725.725,0,0,0,.47-.11.581.581,0,0,0,.117-.422v-5.845a.567.567,0,0,0-.117-.415.7.7,0,0,0-.47-.11h-.565v-.521h3.5v.521h-.583a.68.68,0,0,0-.453.106.559.559,0,0,0-.116.418v5.845a.522.522,0,0,0,.147.446,1.706,1.706,0,0,0,.785.106,6.934,6.934,0,0,0,1.324-.1,1.566,1.566,0,0,0,.723-.312,1.918,1.918,0,0,0,.484-.772,7.478,7.478,0,0,0,.354-1.368h.422l-.161,3.046Zm-3.546,0v-.528h.418a1.482,1.482,0,0,0,.542-.062.227.227,0,0,0,.13-.23.674.674,0,0,0-.023-.161,2.244,2.244,0,0,0-.079-.223l-.5-1.379h-2.957l-.339.854a2.967,2.967,0,0,0-.113.36,1.4,1.4,0,0,0-.042.3.462.462,0,0,0,.2.4,1.073,1.073,0,0,0,.6.137h.274v.528h-2.841v-.528h.09a1.087,1.087,0,0,0,.679-.185,1.819,1.819,0,0,0,.456-.737l2.579-6.62h.429l2.807,7a1.028,1.028,0,0,0,.287.449.837.837,0,0,0,.467.1c.024,0,.059,0,.107,0s.089-.007.112-.007v.528Zm-2.275-3.149h2.563l-1.307-3.186Zm-9.781,3.149v-.518h.572a.705.705,0,0,0,.464-.11.567.567,0,0,0,.12-.422v-5.845a.554.554,0,0,0-.12-.415.686.686,0,0,0-.464-.11h-.572v-.521h6.432l.14,2.806h-.474a5.139,5.139,0,0,0-.3-1.176,1.869,1.869,0,0,0-.47-.727,1.619,1.619,0,0,0-.727-.309,6.851,6.851,0,0,0-1.317-.1,1.66,1.66,0,0,0-.782.11.5.5,0,0,0-.151.439v2.518h.155a1.387,1.387,0,0,0,1.66-1.519h.459v3.5h-.459a1.8,1.8,0,0,0-.436-1.18,1.827,1.827,0,0,0-1.225-.326h-.155v2.854a.517.517,0,0,0,.161.453,1.9,1.9,0,0,0,.858.113,9.266,9.266,0,0,0,1.248-.069,2.54,2.54,0,0,0,.775-.216,1.438,1.438,0,0,0,.606-.713,6.825,6.825,0,0,0,.43-1.533h.417l-.164,3.015Zm158.947-12.636-13.592-18.542v12.769a4.562,4.562,0,0,0,.774,3.118,4,4,0,0,0,2.867.792v1.314h-8.506V335.3a3.9,3.9,0,0,0,2.607-.9,4.745,4.745,0,0,0,.675-3.008V316.968a1.7,1.7,0,0,0-.908-.775,5.611,5.611,0,0,0-1.85-.223h-.524v-1.42h5.968l12.159,16.666V319.788q0-2.387-.744-3.138a4.2,4.2,0,0,0-2.9-.785V314.55h8.533v1.314a3.7,3.7,0,0,0-2.64.875,4.724,4.724,0,0,0-.7,3.049v17.379Zm-60.884,0-13.593-18.542v12.769a4.561,4.561,0,0,0,.775,3.118,3.989,3.989,0,0,0,2.864.792v1.314h-8.5V335.3a3.892,3.892,0,0,0,2.6-.9,4.707,4.707,0,0,0,.681-3.008V316.968a1.7,1.7,0,0,0-.909-.775,5.611,5.611,0,0,0-1.85-.223h-.524v-1.42h5.968l12.163,16.666V319.788q0-2.387-.748-3.138a4.2,4.2,0,0,0-2.9-.785V314.55h8.534v1.314a3.7,3.7,0,0,0-2.641.875,4.75,4.75,0,0,0-.7,3.049v17.379Zm25.285-.9a10.133,10.133,0,0,1-3.475-2.679,10.8,10.8,0,0,1-2.052-3.567,13.766,13.766,0,0,1-.664-4.431,13.575,13.575,0,0,1,.733-4.514,10.918,10.918,0,0,1,2.147-3.677,9.809,9.809,0,0,1,3.4-2.535,10.915,10.915,0,0,1,8.424-.038,9.87,9.87,0,0,1,3.4,2.545,10.953,10.953,0,0,1,2.172,3.684,13.669,13.669,0,0,1,.724,4.534,13.877,13.877,0,0,1-.651,4.452,10.576,10.576,0,0,1-2.035,3.546,10.061,10.061,0,0,1-3.47,2.668,10.3,10.3,0,0,1-4.318.882A10.414,10.414,0,0,1,13294.2,336.268Zm-.6-18.346q-1.614,2.511-1.614,7.669t1.608,7.662a6.062,6.062,0,0,0,9.848-.024q1.625-2.536,1.626-7.638,0-5.191-1.6-7.683a6.121,6.121,0,0,0-9.865.014ZM13192.9,336.268a10.038,10.038,0,0,1-3.479-2.679,10.711,10.711,0,0,1-2.052-3.567,13.766,13.766,0,0,1-.664-4.431,13.549,13.549,0,0,1,.73-4.514,10.938,10.938,0,0,1,2.149-3.677,9.794,9.794,0,0,1,3.4-2.535,10.915,10.915,0,0,1,8.424-.038,9.833,9.833,0,0,1,3.393,2.545,10.855,10.855,0,0,1,2.171,3.684,13.57,13.57,0,0,1,.724,4.534,13.99,13.99,0,0,1-.648,4.452,10.532,10.532,0,0,1-2.037,3.546,10.046,10.046,0,0,1-3.468,2.668,11.092,11.092,0,0,1-8.643.01Zm-.608-18.346q-1.614,2.511-1.618,7.669t1.611,7.662a6.063,6.063,0,0,0,9.849-.024q1.625-2.536,1.625-7.638,0-5.191-1.605-7.683a6.117,6.117,0,0,0-9.861.014Zm83.285,18.7v-1.434h1.643a2.015,2.015,0,0,0,1.314-.312,1.562,1.562,0,0,0,.339-1.166V317.462a1.538,1.538,0,0,0-.339-1.159,2.064,2.064,0,0,0-1.314-.305h-1.643V314.55h9.95V316h-1.64a2.016,2.016,0,0,0-1.29.3,1.547,1.547,0,0,0-.336,1.166v16.244a1.582,1.582,0,0,0,.336,1.173,1.988,1.988,0,0,0,1.29.305h1.64v1.434Zm-37.119,0v-1.434h1.644a2,2,0,0,0,1.311-.312,1.544,1.544,0,0,0,.344-1.166V317.462a1.521,1.521,0,0,0-.344-1.159,2.043,2.043,0,0,0-1.311-.305h-1.644V314.55h9.95V316h-1.639a2.01,2.01,0,0,0-1.29.3,1.547,1.547,0,0,0-.336,1.166v16.244a1.582,1.582,0,0,0,.336,1.173,1.982,1.982,0,0,0,1.29.305h1.639v1.434Zm-11.949,0v-1.434h1.835a1.985,1.985,0,0,0,1.3-.305,1.611,1.611,0,0,0,.326-1.173v-17.2l-6.846,20.113h-1.193l-7.3-20.113v14.889a4.608,4.608,0,0,0,.752,3.1,4.08,4.08,0,0,0,2.873.813v1.314h-8.862l.014-1.314a4.173,4.173,0,0,0,2.895-.8q.762-.767.762-3.111V317.462a1.588,1.588,0,0,0-.326-1.159,1.964,1.964,0,0,0-1.285-.305h-1.8V314.55h7.639l5.923,16.875,5.742-16.875h7.46V316h-1.626a1.91,1.91,0,0,0-1.259.3,1.581,1.581,0,0,0-.322,1.166v16.244a1.617,1.617,0,0,0,.322,1.173,1.884,1.884,0,0,0,1.259.305h1.626v1.434Zm-63.511,0v-1.465h1.585a2.009,2.009,0,0,0,1.3-.295,1.56,1.56,0,0,0,.318-1.152V317.462a1.571,1.571,0,0,0-.326-1.159,1.979,1.979,0,0,0-1.3-.305H13163V314.55h10.965q4.837,0,7.434,2.861t2.6,8.18q0,5.1-2.5,8.064a8.457,8.457,0,0,1-6.825,2.963Zm6.856-20.322a1.6,1.6,0,0,0-.318,1.166v16.244a1.6,1.6,0,0,0,.311,1.152,1.919,1.919,0,0,0,1.27.295h2.477q3.535,0,5.042-2.2t1.506-7.364q0-5.145-1.639-7.367t-5.357-2.226h-2.028A1.921,1.921,0,0,0,13169.855,316.3Z" transform="translate(-12984.998 98.998)" fill="#fff" stroke="rgba(0,0,0,0)" stroke-miterlimit="10" stroke-width="1"/>
    <path id="Контур_1651" data-name="Контур 1651" d="M62.995.379a.461.461,0,0,0-.631.168l-1.658,2.84-.619.337.076-.271a.456.456,0,0,0,0-.243l-.4-1.477a.462.462,0,0,0-.9.041L58.632,3.09l-.45.651-1.11-.756L54.958.54A.454.454,0,0,0,54.74.4L53.509.028A.462.462,0,0,0,52.975.7L54.149,2.77l1.523,3.713-.42.285L53.3,6.633,51.292,5.176a.457.457,0,0,0-.472-.044.464.464,0,0,0-.219.615l1.468,3.111a.365.365,0,0,0,.024.031.268.268,0,0,0,.012.03c.012.016.029.026.042.041A.488.488,0,0,0,52.18,9l2.873,2.545.457,2.2-2.578,4.488-5.41,2.421.493-.413a.462.462,0,0,0,.155-.258l.738-3.477a.445.445,0,0,0-.011-.238l-.994-3.1V11.823a.462.462,0,0,0-.891-.172l-.5,1.237a.5.5,0,0,0-.031.192l.206,3.711-2.015,2.8-3.3,2.435,1.559-1.9a.449.449,0,0,0,.091-.176l.955-3.542a.463.463,0,0,0-.019-.294L42.269,12,42.15,9.985a.46.46,0,0,0-.3-.409.467.467,0,0,0-.6.267l-.769,2a.465.465,0,0,0-.016.29L41.6,16.243l-1.286,2.773L36.574,23.36a.655.655,0,0,0-.055.075L35.13,25.79l-.349-.171a.462.462,0,0,0-.484.047l-.764.583h-3.6l-.683-.569a.463.463,0,0,0-.5-.061l-.66.323-1.373-2.325c-.009-.014-.04-.058-.051-.071l-3.743-4.353-1.287-2.774,1.126-4.113a.47.47,0,0,0-.015-.287l-.77-2a.463.463,0,0,0-.407-.3.457.457,0,0,0-.487.434l-.118,2.016-1.695,4.116a.467.467,0,0,0-.018.3l.953,3.537a.451.451,0,0,0,.089.176l1.563,1.9-3.3-2.437-2.016-2.8.206-3.714a.458.458,0,0,0-.033-.195l-.493-1.23a.462.462,0,0,0-.427-.291.454.454,0,0,0-.33.135A.462.462,0,0,0,15.33,12v1.346l-.993,3.1a.477.477,0,0,0-.012.237l.738,3.477a.468.468,0,0,0,.155.259l.492.413L10.3,18.413,7.724,13.925l.456-2.2L11.051,9.18a.454.454,0,0,0,.052-.07c.011-.014.022-.027.032-.042s.021-.023.027-.037l1.466-3.107a.462.462,0,0,0-.689-.572L9.933,6.81l-1.955.133-.42-.285L9.054,3l1.2-2.124a.465.465,0,0,0,.04-.359.454.454,0,0,0-.223-.275A.45.45,0,0,0,9.719.2L8.491.57a.456.456,0,0,0-.22.141L6.161,3.16l-1.11.755L4.6,3.264,4.372,1.949a.459.459,0,0,0-.437-.384.486.486,0,0,0-.465.342l-.4,1.475a.467.467,0,0,0,0,.246l.076.27-.62-.338L.875.735A.461.461,0,0,0,.1.657.447.447,0,0,0,0,.982L.187,3.913a.454.454,0,0,0,.074.216L2.087,6.913l.922,4.954,1.724,5.262a.461.461,0,0,0,.114.185L9.37,21.808a.478.478,0,0,0,.138.095l8.8,3.922,4.82,1.722,1.174.749-.007.051-3.751-1.472c-.012,0-.058-.019-.071-.022L12.313,25.11a.455.455,0,0,0-.237.017h0a.526.526,0,0,0-.087.03.419.419,0,0,0-.045.039l-.008.006a.453.453,0,0,0-.166.234.46.46,0,0,0,.042.35l2.812,5.049a.458.458,0,0,0,.1.123l3.036,2.626a.46.46,0,0,0,.26.112l3.846.362,1.468.364.46,1.648a.717.717,0,0,0,.053.12l.539.861L23.195,43.6l-2.066,4.3a.46.46,0,0,0-.046.2l0,1.055-.949,4.552a.45.45,0,0,0,.028.274l1.9,4.419a.477.477,0,0,0,.1.149l9.151,8.958c.007.007.017.009.025.016a.439.439,0,0,0,.058.037.452.452,0,0,0,.185.066c.016,0,.027.016.044.016h.008a.939.939,0,0,0,.128-.018c.009,0,.015-.009.023-.012a.486.486,0,0,0,.1-.053.468.468,0,0,0,.044-.027c.01-.008.021-.011.031-.02l9.149-8.963a.49.49,0,0,0,.1-.146l1.9-4.421a.462.462,0,0,0,.027-.273l-.945-4.5V48.11a.453.453,0,0,0-.046-.2l-2.063-4.3-.994-6.49.586-.924a.876.876,0,0,0,.058-.128l.46-1.649,1.432-.358,3.884-.368a.471.471,0,0,0,.257-.111l3.039-2.627a.476.476,0,0,0,.1-.125l2.81-5.047a.5.5,0,0,0,.032-.092.434.434,0,0,0-.505-.586c-.009,0-.017,0-.026,0l-8.167,1.744c-.014,0-.061.017-.074.022l-3.75,1.472L39.18,28c0-.013-.012-.022-.014-.034l.877-.566,4.9-1.758,8.771-3.907a.473.473,0,0,0,.138-.095l4.521-4.491a.444.444,0,0,0,.117-.187l1.739-5.324.907-4.894,1.827-2.785a.447.447,0,0,0,.073-.222L63.226.808A.467.467,0,0,0,62.995.379Zm-21.949,19.2a.767.767,0,0,0,.07-.108L42.5,16.481a.467.467,0,0,0,.024-.314l-.89-3.26,1.408,3.412-.887,3.292L38.316,24.3a.462.462,0,0,0,.627.67l6.339-4.678a.5.5,0,0,0,.1-.1L47.539,17.2a.46.46,0,0,0,.087-.3L47.52,15l.46,1.438-.679,3.2-2.914,2.443c-.007,0-.007.014-.013.02a.548.548,0,0,0-.06.038l-4.736,4.47-1.183.756-2.421-1.187,1.3-2.213Zm.747,6.211,3.131-2.955,8.518-3.813a.46.46,0,0,0,.22-.193L56.4,14.055a.462.462,0,0,0,.051-.323L55.925,11.2a.473.473,0,0,0-.146-.249L54.061,9.433l4.446.855a.631.631,0,0,0,.064,0h0a.459.459,0,0,0,.384-.207l.876-1.339-.49,2.661-1.689,5.158-4.385,4.355-8.663,3.862ZM55.64,7.622l.862-.585a.465.465,0,0,0,.168-.558L54.982,2.364l-.635-1.123,2.065,2.387a.633.633,0,0,0,.094.085l1.541,1.043a.465.465,0,0,0,.64-.118l.32-.462-.1.357a.473.473,0,0,0,.04.338.464.464,0,0,0,.628.189l1.693-.923a.462.462,0,0,0,.177-.174l.741-1.269-.054.854-1.811,2.76,0,.01-1.961,3L52.807,8.25l-.6-1.266.651.475a.459.459,0,0,0,.24.087L55.35,7.7A.474.474,0,0,0,55.64,7.622ZM41.278,49.331l.926,4.431-1.4,3.253-3.566-8.48c-.008-.018-.009-.038-.018-.056l-.01-.011L35.65,44.747l.8-.588a.465.465,0,0,0,.19-.365l.019-1.172,1.5-4.014.188-.3.846,5.517a.8.8,0,0,0,.038.12l2.047,4.265V49.22A.687.687,0,0,0,41.278,49.331Zm-11.14-2.253a.466.466,0,0,0,.337.145h.7V63.777L27.046,48.911l1.536-3.5Zm1.962.145h.958a.465.465,0,0,0,.337-.145l1.538-1.652,1.4,3.322-4.23,15.2Zm.756-.925H31.647l-.01,0-.009,0h-.955l-1.166-1.249h4.515Zm-6.4,3.952,4.281,15.412-7.723-7.57Zm10.45-.127L40.264,58.1,32.6,65.612Zm-11.6-11.591,1.564,4.091.019,1.172a.464.464,0,0,0,.189.362l.787.576L22.478,57.012l-1.4-3.252.928-4.457c0-.008,0-.059,0-.068V48.212l2.049-4.267a.893.893,0,0,0,.037-.114l1.014-5.614Zm12.054-.409a.846.846,0,0,0-.05.094l-1.557,4.16a.452.452,0,0,0-.027.149l-.017,1.022-.781.576H28.594l-.776-.573L27.8,42.528a.485.485,0,0,0-.03-.157l-1.6-4.186a.655.655,0,0,0-.039-.08l-1.463-2.343-.516-1.846v0L25.557,32.3l1.98,2.069-.119.153-1.309-1.014a.252.252,0,0,0-.241-.036l-1.29.485a.252.252,0,0,0-.158.188.248.248,0,0,0,.08.232l1.447,1.294a.251.251,0,0,0,.166.063.259.259,0,0,0,.068-.009l1.136-.321,1.82,3.4-.545.353a.464.464,0,0,0-.218.378l-.054,1.848a.465.465,0,0,0,.238.417l1.828,1.012a.459.459,0,0,0,.224.061h2.216a.475.475,0,0,0,.218-.054l1.8-.947a.467.467,0,0,0,.241-.467l-.257-2a.46.46,0,0,0-.222-.343l-.347-.206,1.881-3.445,1.134.32a.259.259,0,0,0,.068.009.255.255,0,0,0,.167-.063l1.446-1.294a.25.25,0,0,0-.079-.42l-1.29-.485a.254.254,0,0,0-.241.036l-1.309,1.014-.115-.147L37.9,32.311l1.449,1.731-.484,1.716ZM4,5.278a.463.463,0,0,0,.321-.57l-.1-.351.32.46a.463.463,0,0,0,.64.119L6.719,3.889a.857.857,0,0,0,.09-.08L8.875,1.418h0L8.216,2.592,6.555,6.655a.462.462,0,0,0,.169.558l.859.582a.44.44,0,0,0,.294.081l2.249-.153a.458.458,0,0,0,.239-.088l.653-.475-.592,1.258L4.876,9.486l-1.962-3c-.009-.013-.023-.021-.033-.034L1.094,3.728l-.053-.854.741,1.27a.464.464,0,0,0,.177.172l1.693.922A.454.454,0,0,0,4,5.278Zm.272,4.967a.457.457,0,0,0,.388.219l.089-.007L9.176,9.6,7.45,11.131a.46.46,0,0,0-.146.252l-.523,2.526a.457.457,0,0,0,.052.322L9.571,19a.459.459,0,0,0,.214.191L18.3,23.006l3.134,2.955-2.774-.994-8.7-3.874L5.57,16.741,3.9,11.644,3.388,8.9ZM23.625,26.759,18.91,22.31c-.011-.01-.026-.014-.038-.023s-.014-.022-.024-.03l-2.916-2.445-.681-3.2.461-1.436-.106,1.909a.459.459,0,0,0,.087.3l2.157,2.99a.455.455,0,0,0,.1.1l6.341,4.677a.462.462,0,0,0,.632-.664l-3.845-4.7-.888-3.292,1.41-3.415-.892,3.263a.46.46,0,0,0,.026.316l1.386,2.988a.791.791,0,0,0,.069.1L25.935,24.1l1.328,2.247L24.84,27.536Zm1.317,2.608a.464.464,0,0,0,.186-.3l.106-.685,3.659-1.793.43.362.338,4.7-1.5,1.92-2.3-2.4A.573.573,0,0,0,25.8,31.1a.417.417,0,0,0-.577.068L23.61,33.013l-.639-.107-2.742-3.588a.445.445,0,0,0-.145-.121l-4.727-2.488,4.874,1.039L24.5,29.424c.017.006.077.023.095.026A.456.456,0,0,0,24.942,29.367Zm8.238-2.189-.506,5.711-.924.689-1.076-.723-.406-5.677Zm2.1,7.877-1.815,3.328-.031-.018a.463.463,0,0,0-.533.045l-.564.476H30.948l-.612-.486a.443.443,0,0,0-.4-.062l-1.756-3.279,1.582-2.033.006.078a.394.394,0,0,0,.18.291l1.544,1.037a.519.519,0,0,0,.273.079h.008a.494.494,0,0,0,.3-.1l1.344-1a.4.4,0,0,0,.172-.286l.02-.221Zm-4.5,4.754H32.5a.454.454,0,0,0,.3-.109l.441-.372.693.41.187,1.466-1.411.744H30.73l-1.479-.822L29.29,39.8l.728-.472.475.376A.462.462,0,0,0,30.781,39.809Zm-11.2-9.87,2.462,3.218-.04-.007-3.751-.355-2.864-2.476-2.038-3.66Zm21.9,3.219,2.529-3.219,6.171-3.278-2.037,3.658-2.865,2.476-3.751.355ZM48.2,26.7l-4.7,2.5a.435.435,0,0,0-.135.116l-2.816,3.591-.746.133L38.267,31.2a.659.659,0,0,0-.072-.078.418.418,0,0,0-.583.036L35.3,33.574l-1.523-1.953a.337.337,0,0,0-.054-.046l.409-4.614.5-.384,3.673,1.8.1.679a.852.852,0,0,0,.027.1.455.455,0,0,0,.243.257.467.467,0,0,0,.356.009l4.233-1.657Z" transform="translate(111.002 396.991)" fill="#fff"/>
  </g>
</svg>
