<svg xmlns="http://www.w3.org/2000/svg" width="107.111" height="116" viewBox="0 0 107.111 116">
  <path id="Объединение_31" data-name="Объединение 31" d="M3672.878,427.166l-23.044-23.044a6.264,6.264,0,0,1,0-8.857l36.652-36.15h-15.15a6.27,6.27,0,0,1-6.263-6.263V320.263a6.27,6.27,0,0,1,6.263-6.263h64.208a1.74,1.74,0,0,1,1.23.509l8.881,8.882h1.913a1.739,1.739,0,0,1,1.23.509l1.171,1.171,1.172-1.172a1.739,1.739,0,0,1,2.459,2.459l-1.172,1.172,1.172,1.172a1.739,1.739,0,0,1,.509,1.229v24.64a1.739,1.739,0,0,1-.509,1.229l-17.076,17.076a1.739,1.739,0,0,1-2.459-2.459l16.565-16.567v-23.2l-.662-.663-4.022,4.021a5.214,5.214,0,1,1-2.458-2.46l4.022-4.021-.663-.663h-23.2l-71.356,70.855a2.784,2.784,0,0,0,0,3.938l23.044,23.043a2.785,2.785,0,0,0,3.938,0L3723,381.486a1.739,1.739,0,0,1,2.459,2.459l-43.723,43.221a6.261,6.261,0,0,1-8.857,0Zm-4.327-106.9v32.589a2.788,2.788,0,0,0,2.785,2.785h18.628l7-7a5.326,5.326,0,0,1-.661.043,5.217,5.217,0,1,1,5.217-5.217,5.36,5.36,0,0,1-.043.66L3721.7,323.9a1.737,1.737,0,0,1,1.229-.509h17.808l-5.914-5.914h-63.487A2.788,2.788,0,0,0,3668.551,320.263Zm26.011,23.2a1.74,1.74,0,1,0,1.739-1.739A1.741,1.741,0,0,0,3694.563,343.464Zm44.939-7.2a1.739,1.739,0,1,0,3.119-1.055,1.776,1.776,0,0,1-.174-.15,1.7,1.7,0,0,1-.149-.174,1.737,1.737,0,0,0-2.795,1.38Zm-64.246,71.323a6.341,6.341,0,0,1-4.578-4.421,5.909,5.909,0,0,1,.077-3.235,7.354,7.354,0,0,1,1.82-3.022,6.662,6.662,0,0,1,2.865-1.828,4.679,4.679,0,0,1,3.053.088l-.829,2.942a2.943,2.943,0,0,0-3.055.793,3.044,3.044,0,0,0-.92,2.235,3.749,3.749,0,0,0,3.489,3.37,3.047,3.047,0,0,0,2.2-1,2.914,2.914,0,0,0,.686-3.081l2.926-.917a4.776,4.776,0,0,1,.172,3.027,6.593,6.593,0,0,1-1.719,2.934,7.358,7.358,0,0,1-2.957,1.924,6.108,6.108,0,0,1-1.96.332A5.82,5.82,0,0,1,3675.256,407.584Zm2.642-15.933,2.412-2.5,3.345,3.231,1.3-1.345-1.089-5.568,2.566-2.658,1.225,7,7.589,1.111-2.844,2.946-5.492-.848-1.252,1.3,3.266,3.153-2.412,2.5Zm9.924-10.276,2.4-2.482,5.123,4.947-1.073-9.14,2.211-2.289,8.612,8.317-2.4,2.481-5.122-4.947,1.088,9.124-2.227,2.305Zm16.534-3.987.34-.352a1.615,1.615,0,0,0,.122-2.016,14.575,14.575,0,0,0-2.27-2.935l-2.869-2.988,7.25-7.507,6.562,6.339,1.19-1.233,3.906,3.772-2.241,2.321-1.857-1.793-5.843,6.051,1.856,1.793-2.242,2.321Zm-.511-8.505L3704.9,370a21.407,21.407,0,0,1,1.952,2.272,3.349,3.349,0,0,1,.716,1.789l3.509-3.634-4.515-4.36Zm24.688,9.529a1.736,1.736,0,1,1,1.229.51A1.752,1.752,0,0,1,3728.533,378.411Zm-18.9-19.623,2.411-2.5,3.346,3.231,1.3-1.345-1.089-5.568,2.567-2.658,1.223,7,7.59,1.111-2.844,2.946-5.492-.848-1.252,1.3,3.265,3.153-2.411,2.5Zm16.951-2.594a3.359,3.359,0,0,1-1.716-.914,3.118,3.118,0,0,1-1.015-2.728,6.41,6.41,0,0,1,2.009-3.458l1.917-1.984a2.213,2.213,0,0,0-1.736-.718,3.042,3.042,0,0,0-1.878,1.064,6.042,6.042,0,0,0-1.09,1.561,4.985,4.985,0,0,0-.506,1.693l-2.61-.789a7.53,7.53,0,0,1,.862-2.431,10.509,10.509,0,0,1,1.684-2.288,6.23,6.23,0,0,1,3.921-2.154,5.068,5.068,0,0,1,3.909,1.7l4.914,4.746-2.257,2.337-1.072-1.036q.52,1.864-1.335,3.784a5.659,5.659,0,0,1-2,1.4,3.816,3.816,0,0,1-1.384.276A3.212,3.212,0,0,1,3726.585,356.194Zm1-5.966q-1.484,1.537-.476,2.51a1.251,1.251,0,0,0,1.125.359,2.359,2.359,0,0,0,1.277-.762,3.029,3.029,0,0,0,.8-1.423,2.25,2.25,0,0,0-.193-1.547l-.88-.85Zm-45.64-2.1a1.738,1.738,0,0,1-.659-2.369l11.216-19.869a1.739,1.739,0,0,1,3.029,1.71l-11.217,19.869a1.737,1.737,0,0,1-2.369.66Zm-5.537-18.473a5.218,5.218,0,1,1,5.218,5.217A5.224,5.224,0,0,1,3676.405,329.651Zm3.478,0a1.74,1.74,0,1,0,1.74-1.739A1.742,1.742,0,0,0,3679.884,329.651Z" transform="translate(-3647.5 -313.5)" fill="#7dffa8" stroke="#7dffa8" stroke-linecap="round" stroke-linejoin="round" stroke-miterlimit="10" stroke-width="1"/>
</svg>
