<svg xmlns="http://www.w3.org/2000/svg" width="177.881" height="163.697" viewBox="0 0 177.881 163.697">
  <g id="customer-feedback-1" transform="translate(0 -2.5)">
    <path id="Контур_1591" data-name="Контур 1591" d="M74.757,36.5H29.368A28.451,28.451,0,0,0,1,64.868V97.491a7.023,7.023,0,0,0,7.092,7.092H96.033a7.023,7.023,0,0,0,7.092-7.092V64.868A28.451,28.451,0,0,0,74.757,36.5Z" transform="translate(0 60.614)" fill="#a40008" stroke="#37474f" stroke-linecap="round" stroke-linejoin="round" stroke-miterlimit="10" stroke-width="2"/>
    <path id="Контур_1592" data-name="Контур 1592" d="M74.757,32.5H29.368A28.451,28.451,0,0,0,1,60.868V93.491a7.023,7.023,0,0,0,7.092,7.092H96.033a7.023,7.023,0,0,0,7.092-7.092V60.868A28.451,28.451,0,0,0,74.757,32.5Z" transform="translate(0 53.267)" fill="#dd000b" stroke="#37474f" stroke-linecap="round" stroke-linejoin="round" stroke-miterlimit="10" stroke-width="2"/>
    <line id="Линия_47" data-name="Линия 47" y1="32" transform="translate(23 121.197)" fill="#eceff1" stroke="#37474f" stroke-linecap="round" stroke-linejoin="round" stroke-miterlimit="10" stroke-width="2"/>
    <line id="Линия_48" data-name="Линия 48" y1="32" transform="translate(80 121.197)" fill="#eceff1" stroke="#37474f" stroke-linecap="round" stroke-linejoin="round" stroke-miterlimit="10" stroke-width="2"/>
    <circle id="Эллипс_266" data-name="Эллипс 266" cx="34" cy="34" r="34" transform="translate(18 18.197)" stroke-width="2" stroke="#37474f" stroke-linecap="round" stroke-linejoin="round" stroke-miterlimit="10" fill="#eceff1"/>
    <path id="Контур_1594" data-name="Контур 1594" d="M14.4,25.1a18.667,18.667,0,0,0,26.1,0" transform="translate(24.613 39.675)" fill="none" stroke="#37474f" stroke-linecap="round" stroke-linejoin="round" stroke-miterlimit="10" stroke-width="2"/>
    <path id="Контур_1595" data-name="Контур 1595" d="M68.291,22.968,7.3,34.882A34.09,34.09,0,0,1,40.49,8.5,33.74,33.74,0,0,1,68.291,22.968Z" transform="translate(11.572 9.184)" fill="#78909c" stroke="#37474f" stroke-linecap="round" stroke-linejoin="round" stroke-miterlimit="10" stroke-width="2"/>
    <path id="Контур_1596" data-name="Контур 1596" d="M26.8,11.4h0A34.3,34.3,0,0,1,38.715,37.215h0A11.986,11.986,0,0,1,26.8,25.3Z" transform="translate(47.389 14.511)" fill="#78909c" stroke="#37474f" stroke-linecap="round" stroke-linejoin="round" stroke-miterlimit="10" stroke-width="2"/>
    <path id="Контур_1597" data-name="Контур 1597" d="M47.142,60.868,30.121,49.521,13.1,60.868V32.5H47.142Z" transform="translate(22.225 53.267)" fill="#ffca28" stroke="#37474f" stroke-linecap="round" stroke-linejoin="round" stroke-miterlimit="10" stroke-width="2"/>
    <path id="Контур_1598" data-name="Контур 1598" d="M30.121,49.521,13.1,32.5H47.142Z" transform="translate(22.225 53.267)" fill="#eceff1" stroke="#37474f" stroke-linecap="round" stroke-linejoin="round" stroke-miterlimit="10" stroke-width="2"/>
    <path id="Контур_1599" data-name="Контур 1599" d="M31,21.684V58.562A14.046,14.046,0,0,0,45.184,72.746h8.51a2.68,2.68,0,0,1,2.837,2.837V88.632a2.838,2.838,0,0,0,4.823,1.986L74.97,77A14.447,14.447,0,0,1,84.9,72.746h22.694a14.046,14.046,0,0,0,14.184-14.184V21.684A14.046,14.046,0,0,0,107.593,7.5H45.184A14.046,14.046,0,0,0,31,21.684Z" transform="translate(55.104 7.347)" fill="#189e00" stroke="#37474f" stroke-linecap="round" stroke-linejoin="round" stroke-miterlimit="10" stroke-width="2"/>
    <path id="Контур_1600" data-name="Контур 1600" d="M31,17.684V54.562A14.046,14.046,0,0,0,45.184,68.746h8.51a2.68,2.68,0,0,1,2.837,2.837V84.632a2.838,2.838,0,0,0,4.823,1.986L74.97,73A14.447,14.447,0,0,1,84.9,68.746h22.694a14.046,14.046,0,0,0,14.184-14.184V17.684A14.046,14.046,0,0,0,107.593,3.5H45.184A14.046,14.046,0,0,0,31,17.684Z" transform="translate(55.104 0)" fill="#57cb42" stroke="#37474f" stroke-linecap="round" stroke-linejoin="round" stroke-miterlimit="10" stroke-width="2"/>
    <line id="Линия_49" data-name="Линия 49" x2="57" transform="translate(103 24.197)" fill="none" stroke="#fff" stroke-linecap="round" stroke-linejoin="round" stroke-miterlimit="10" stroke-width="2"/>
    <line id="Линия_50" data-name="Линия 50" x2="56.736" transform="translate(103.125 36.123)" fill="none" stroke="#fff" stroke-linecap="round" stroke-linejoin="round" stroke-miterlimit="10" stroke-width="2"/>
    <line id="Линия_51" data-name="Линия 51" x2="28" transform="translate(103 49.197)" fill="none" stroke="#fff" stroke-linecap="round" stroke-linejoin="round" stroke-miterlimit="10" stroke-width="2"/>
  </g>
</svg>
