<svg xmlns="http://www.w3.org/2000/svg" width="132.693" height="47" viewBox="0 0 132.693 47">
  <g id="logo-new" transform="translate(0 -0.01)">
    <path id="Контур_1310" data-name="Контур 1310" d="M58.258,26.081h-31.6l2.277-6.261h31.6Zm-1.138,3.13H25.5l-2.277,6.261h31.6ZM53.7,38.574H22.087L19.81,44.835H51.385Z" transform="translate(-19.81 -19.81)" fill="#009fdf"/>
    <path id="Контур_1311" data-name="Контур 1311" d="M119.582,57.715h5.692a4.966,4.966,0,0,0,4.354-1.693,5.436,5.436,0,0,0,1.11-3.572,4.952,4.952,0,0,0-1.949-4.269,5.692,5.692,0,0,0-3.572-.911h-5.635Zm-7.47,6.3V26.424h24.461l-2.149,6.3H119.582v8.324h6.048c4.881,0,7.414,1.167,9.164,2.661a11.07,11.07,0,0,1,3.714,8.908,10.8,10.8,0,0,1-4.425,9.306c-2.348,1.622-4.81,2.078-9.818,2.078Zm-21.657,0v-31.3H79.583V26.424h30.181l-2.149,6.3H98v31.3ZM60.33,41.479H64.6a9.064,9.064,0,0,0,2.6-.2,4.112,4.112,0,0,0,2.846-4.269A3.8,3.8,0,0,0,67.2,32.842a10.359,10.359,0,0,0-2.846-.256H60.33Zm0,6.5v9.861h5.208a5.592,5.592,0,0,0,4.027-1.11,4.909,4.909,0,0,0,1.565-3.87,5.35,5.35,0,0,0-1-3.216c-1.11-1.423-2.476-1.693-4.81-1.693Zm12.038-3.97v.128a13.191,13.191,0,0,1,3.515,2.021,8.865,8.865,0,0,1,3.187,7.357c0,5.137-2.732,8.851-7.214,9.961A19.167,19.167,0,0,1,66.392,64H52.86V26.424H64.9a22.255,22.255,0,0,1,5.692.527c4.354,1.167,7.214,4.169,7.214,8.908a8.324,8.324,0,0,1-2.4,6.119,9.121,9.121,0,0,1-2.96,2.006Z" transform="translate(-5.832 -17.023)" fill="#0a2973"/>
  </g>
</svg>
