<svg xmlns="http://www.w3.org/2000/svg" width="230" height="43.531" viewBox="0 0 230 43.531">
  <g id="Sberbank" transform="translate(0.009 -0.01)">
    <path id="Контур_1297" data-name="Контур 1297" d="M145.238,91.759a10.136,10.136,0,0,0,3.5,2.392,13.684,13.684,0,0,0,5.028.859c.981,0,1.9-.122,2.652-.186a10.609,10.609,0,0,0,2.206-.53c.674-.186,1.225-.493,1.777-.674a13.79,13.79,0,0,1,1.347-.674l-.684-1.437a11.992,11.992,0,0,1-1.167.53,12.677,12.677,0,0,1-1.225.488,6.179,6.179,0,0,1-1.533.308,9.939,9.939,0,0,1-2.026.122,6.55,6.55,0,0,1-3.5-.859,6.9,6.9,0,0,1-2.206-2.206,11.053,11.053,0,0,1-1.061-3.31,29.621,29.621,0,0,1-.308-4.169c0-1.167.122-2.392.186-3.617a9.075,9.075,0,0,1,.875-3.2,6.593,6.593,0,0,1,1.9-2.392,6.322,6.322,0,0,1,3.437-.981,5.834,5.834,0,0,1,3.432,1.061,4.611,4.611,0,0,1,1.777,3.251h1.533v-4.7c-.488-.186-.981-.366-1.533-.53a8.316,8.316,0,0,0-1.777-.366c-.674-.122-1.225-.122-1.9-.186-.53,0-1.167-.122-1.591-.122a15.444,15.444,0,0,0-5.336.859,9.144,9.144,0,0,0-5.7,6.365,17.312,17.312,0,0,0-.674,5.214,15.954,15.954,0,0,0,.674,4.97,8.645,8.645,0,0,0,1.9,3.723Z" transform="translate(-85.272 -64.895)" fill="#2f9a41"/>
    <path id="Контур_1298" data-name="Контур 1298" d="M311.681,94.465a8.163,8.163,0,0,0,3.129-.981,5.23,5.23,0,0,0,2.206-2.392,9.175,9.175,0,0,0,.859-4.291,8.7,8.7,0,0,0-.53-3.31,5.357,5.357,0,0,0-1.777-2.27A8.783,8.783,0,0,0,312.318,80a22.552,22.552,0,0,0-4.842-.366h-2.026V73.982a1.469,1.469,0,0,1,.366-1.167,3.182,3.182,0,0,1,1.533-.186h2.88a11.9,11.9,0,0,1,2.206.122,2.493,2.493,0,0,1,1.347.493,2.758,2.758,0,0,1,.859,1.167,12.791,12.791,0,0,1,.674,2.021H316.5V71.16H299V71.9c.122,0,.186.122.488.122.308.122.493.186.53.308a2.229,2.229,0,0,1,.308.53c0,.308.122.53.122.981v18.15a2.4,2.4,0,0,1-.122.981c0,.308-.122.488-.308.53a.827.827,0,0,1-.53.308,1.061,1.061,0,0,1-.488.122v.737h8.831A37.127,37.127,0,0,0,311.681,94.465Zm-5.786-1.718a.875.875,0,0,1-.308-.674c0-.308-.122-.674-.122-1.167v-9.87h2.026a5,5,0,0,1,3.925,1.411c.8.923,1.167,2.45,1.167,4.54a12,12,0,0,1-.366,3.31,4.668,4.668,0,0,1-1.061,1.9,7.256,7.256,0,0,1-1.411.859,8.2,8.2,0,0,1-1.718.186c-.53-.122-1.061-.122-1.347-.186a1.162,1.162,0,0,1-.785-.308Z" transform="translate(-158.692 -65.146)" fill="#2f9a41"/>
    <path id="Контур_1299" data-name="Контур 1299" d="M268.846,93.913c-.122,0-.186-.122-.488-.122-.308-.122-.493-.186-.53-.308a5.356,5.356,0,0,0-.308-.53c0-.308-.122-.53-.122-.981V85.448h2.392a21.217,21.217,0,0,0,3.5-.308,8.354,8.354,0,0,0,2.944-1.061,5.235,5.235,0,0,0,2.026-2.27,8.783,8.783,0,0,0,.737-3.925,9.271,9.271,0,0,0-.674-3.617,6.264,6.264,0,0,0-1.909-2.063,6.365,6.365,0,0,0-2.758-.859,27.379,27.379,0,0,0-3.251-.186h-9.34V71.9c.122,0,.186.122.493.122.308.122.488.186.53.308a2.211,2.211,0,0,1,.308.53c0,.308.122.53.122.981V91.93a2.381,2.381,0,0,1-.122.981c0,.308-.122.488-.308.53a.827.827,0,0,1-.53.308,1.061,1.061,0,0,1-.493.122v.674h7.728l.058-.674ZM267.557,73.8a.912.912,0,0,1,.122-.53.53.53,0,0,1,.186-.366.753.753,0,0,1,.53-.186c.308,0,.53-.122,1.061-.122a16.248,16.248,0,0,1,1.718.186,4.153,4.153,0,0,1,1.411.859,6.439,6.439,0,0,1,.981,1.591,9.545,9.545,0,0,1,.308,2.45,9.788,9.788,0,0,1-.859,4.54,3.18,3.18,0,0,1-3.066,1.591h-2.392Z" transform="translate(-140.874 -65.146)" fill="#2f9a41"/>
    <path id="Контур_1300" data-name="Контур 1300" d="M240.294,89.251h-1.533a19.125,19.125,0,0,1-.53,2.206,2.206,2.206,0,0,1-.737,1.225,1.809,1.809,0,0,1-1.347.488,12.694,12.694,0,0,1-2.392.122,10.635,10.635,0,0,1-2.206-.122,3.644,3.644,0,0,1-1.225-.366.949.949,0,0,1-.488-.737,4.2,4.2,0,0,1-.122-1.347V83.242h4.068c.366,0,.737.122,1.167.122a9.019,9.019,0,0,1,1.167.186,4.635,4.635,0,0,1,.981.366V80.85a2.344,2.344,0,0,1-.981.366,22.52,22.52,0,0,1-2.328.308h-4.11v-7.8a3.182,3.182,0,0,1,.186-1.061c.186-.186.493-.186.981-.186h2.578a11.913,11.913,0,0,1,2.206.122,2.705,2.705,0,0,1,1.347.488,2.758,2.758,0,0,1,.859,1.167,12.907,12.907,0,0,1,.674,2.026h1.225V71.16H223.37V71.9c.122,0,.186.122.488.122.308.122.488.186.53.308a2.211,2.211,0,0,1,.308.53c0,.308.122.53.122.981V91.93a2.392,2.392,0,0,1-.122.981c0,.308-.122.488-.308.53a.827.827,0,0,1-.53.308,1.061,1.061,0,0,1-.488.122v.674h16.924Z" transform="translate(-123.175 -65.146)" fill="#2f9a41"/>
    <path id="Контур_1301" data-name="Контур 1301" d="M195.3,94.465a8.162,8.162,0,0,0,3.129-.981,5.7,5.7,0,0,0,2.27-2.392,9.165,9.165,0,0,0,.859-4.291,8.687,8.687,0,0,0-.53-3.31,5.357,5.357,0,0,0-1.777-2.27A8.783,8.783,0,0,0,196,80a22.542,22.542,0,0,0-4.842-.366h-2.026V73.982a1.474,1.474,0,0,1,.366-1.167,3.182,3.182,0,0,1,1.533-.186h2.88a11.907,11.907,0,0,1,2.206.122,2.7,2.7,0,0,1,1.347.493,2.758,2.758,0,0,1,.859,1.167A12.731,12.731,0,0,1,199,76.432h1.225V71.16H182.67V71.9c.122,0,.186.122.493.122.308.122.488.186.53.308a2.227,2.227,0,0,1,.308.53c0,.308.122.53.122.981V91.93a2.556,2.556,0,0,1-.122.981c0,.308-.122.488-.308.53a.827.827,0,0,1-.53.308,1.061,1.061,0,0,1-.493.122v.859H191.5C192.922,94.651,194.073,94.651,195.3,94.465Zm-5.765-1.718a.875.875,0,0,1-.308-.674c0-.308-.122-.674-.122-1.167v-9.87h2.026a5,5,0,0,1,3.925,1.411c.8.923,1.167,2.45,1.167,4.54a12.04,12.04,0,0,1-.366,3.31,4.668,4.668,0,0,1-1.061,1.9,7.246,7.246,0,0,1-1.411.859,8.19,8.19,0,0,1-1.718.186c-.53-.122-.981-.122-1.347-.186A1.061,1.061,0,0,1,189.538,92.747Z" transform="translate(-104.061 -65.146)" fill="#2f9a41"/>
    <rect id="Прямоугольник_245" data-name="Прямоугольник 245" width="172.56" height="2.27" transform="translate(57.272 36.182)" fill="#2f9a41"/>
    <path id="Контур_1302" data-name="Контур 1302" d="M440.521,86.05c.493.674.859,1.225,1.347,1.777.366.53.859,1.167,1.225,1.718a14.991,14.991,0,0,0,1.225,1.718,16.441,16.441,0,0,1,1.225,1.9c.366.53.674,1.225.981,1.777l7.956.122c-.859-.859-1.591-1.718-2.45-2.578-.737-.859-1.411-1.591-1.9-2.084-.737-.859-1.411-1.591-2.021-2.27s-1.225-1.411-1.777-2.084a23.652,23.652,0,0,1-1.591-2.084c-.43-.674-1.061-1.533-1.533-2.27l.366-.488c.53-.737,1.225-1.533,2.026-2.45a25.678,25.678,0,0,1,2.392-2.758,33.2,33.2,0,0,1,2.466-2.567,21.536,21.536,0,0,1,2.206-1.777H447.14a14.753,14.753,0,0,1-.859,1.718,15.338,15.338,0,0,1-1.347,2.18c-.488.737-1.061,1.591-1.533,2.45s-1.061,1.591-1.591,2.392a22.076,22.076,0,0,1-1.533,2.084c-.488.674-.859,1.167-1.167,1.591C439.54,84.7,440.028,85.376,440.521,86.05Z" transform="translate(-224.49 -65.376)" fill="#2f9a41"/>
    <path id="Контур_1303" data-name="Контур 1303" d="M433.658,93.951c-.122,0-.186-.122-.493-.122-.308-.122-.488-.186-.53-.308a2.205,2.205,0,0,1-.308-.53c0-.308-.122-.53-.122-.981V73.977a2.381,2.381,0,0,1,.122-.981c0-.308.122-.488.308-.53a2.206,2.206,0,0,1,.53-.308,1.061,1.061,0,0,1,.493-.122v-.8H425.93v.737c.122,0,.186.122.493.122.308.122.488.186.53.308a2.2,2.2,0,0,1,.308.53c0,.308.122.53.122.981V92.01a2.382,2.382,0,0,1-.122.981c0,.308-.122.488-.308.53a.822.822,0,0,1-.53.308,1.061,1.061,0,0,1-.493.122v.674h7.728Z" transform="translate(-218.3 -65.184)" fill="#2f9a41"/>
    <path id="Контур_1304" data-name="Контур 1304" d="M339.67,91.881c.308-1.347.859-3.251,1.591-5.643H348.8l1.061,3.066a22.935,22.935,0,0,1,1.061,3.432,7.955,7.955,0,0,1,.488,2.084h6.009c-.308-.488-.53-1.167-.981-1.9a29.584,29.584,0,0,1-1.347-3.31l-5.452-15.455a8.371,8.371,0,0,1-.493-1.718c-.122-.488-.122-.859-.186-1.167h-6.741v.737c.122,0,.186.122.488.122.308.122.488.186.53.308a2.2,2.2,0,0,1,.308.53v.488a3.786,3.786,0,0,1-.308,1.533l-3.8,9.319c-.674,1.718-1.347,3.251-1.777,4.354s-.981,2.206-1.225,2.944c-.366.737-.674,1.411-.981,1.9a13.39,13.39,0,0,0-.674,1.225h4.291A24.4,24.4,0,0,1,339.67,91.881Zm5.4-16.8,3.087,9.5H341.67Z" transform="translate(-175.495 -65.198)" fill="#2f9a41"/>
    <path id="Контур_1305" data-name="Контур 1305" d="M387.574,93.913h-.191c-.122,0-.186-.122-.493-.122-.308-.122-.488-.186-.53-.308a2.224,2.224,0,0,1-.308-.53c0-.308-.122-.53-.122-.981V82.956h9.138v8.953a2.382,2.382,0,0,1-.122.981c0,.308-.122.488-.308.53a.828.828,0,0,1-.53.308,1.061,1.061,0,0,1-.488.122v.737h7.728V93.85c-.122,0-.186-.122-.488-.122-.308-.122-.493-.186-.53-.308a2.163,2.163,0,0,1-.308-.53c0-.308-.122-.53-.122-.981V73.727a2.382,2.382,0,0,1,.122-.981c0-.308.122-.488.308-.53a2.217,2.217,0,0,1,.53-.308,1.061,1.061,0,0,1,.488-.122V71.16h-7.6V71.9c.122,0,.186.122.488.122.308.122.493.186.53.308a2.211,2.211,0,0,1,.308.53c0,.308.122.53.122.981V81.4h-9.027V73.8a2.4,2.4,0,0,1,.122-.981c0-.308.122-.488.308-.53a2.19,2.19,0,0,1,.53-.308.923.923,0,0,1,.488-.122v-.7H379.91V71.9c.122,0,.186.122.488.122.308.122.488.186.53.308a2.228,2.228,0,0,1,.308.53c0,.308.122.53.122.981v18.15a2.547,2.547,0,0,1-.122.981c0,.308-.122.488-.308.53a.827.827,0,0,1-.53.308,1.061,1.061,0,0,1-.488.122v.737h7.728l-.064-.8Z" transform="translate(-196.689 -65.146)" fill="#2f9a41"/>
    <path id="Контур_1306" data-name="Контур 1306" d="M76.5,74c-.493-.674-.981-1.347-1.411-2.026L48.72,87.118,35.99,79.82a8.852,8.852,0,0,0-.53,2.45l13.382,7.749Z" transform="translate(-34.929 -65.526)" fill="#2f9a41"/>
    <path id="Контур_1307" data-name="Контур 1307" d="M48.241,96.511l-13.673-7.85a5.972,5.972,0,0,0-.122,1.469,22.629,22.629,0,1,0,45.258,0,22.212,22.212,0,0,0-2.45-10.3Z" transform="translate(-34.45 -69.218)" fill="#2f9a41"/>
    <path id="Контур_1308" data-name="Контур 1308" d="M74.349,66.868a25.025,25.025,0,0,0-2.026-1.718l-22.5,13.063L38.967,72.018c-.366.674-.737,1.411-1.167,2.206l11.9,6.868Z" transform="translate(-36.028 -62.324)" fill="#2f9a41"/>
    <path id="Контур_1309" data-name="Контур 1309" d="M72.347,61.187a21.447,21.447,0,0,0-2.652-1.347L52.049,70l-7.908-4.461a22.233,22.233,0,0,0-1.591,1.9l9.441,5.4Z" transform="translate(-38.258 -59.83)" fill="#2f9a41"/>
  </g>
</svg>
