<svg xmlns="http://www.w3.org/2000/svg" width="230" height="47.107" viewBox="0 0 230 47.107">
  <g id="Сгруппировать_725" data-name="Сгруппировать 725" transform="translate(287 -185)">
    <path id="Контур_1312" data-name="Контур 1312" d="M387.287,213.916l-7.848,8.795v-8.795H373.76v22.2h5.679v-9.347l8.4,9.347h7.336l-10.333-11.634,9.584-10.569Z" transform="translate(-452.175 -19.788)" fill="#ef3124"/>
    <path id="Контур_1313" data-name="Контур 1313" d="M312.711,222.2h-7.848v-8.282h-5.68v22.2h5.68v-8.756h7.848v8.756h5.679v-22.2h-5.679Z" transform="translate(-401.141 -19.788)" fill="#ef3124"/>
    <path id="Контур_1314" data-name="Контур 1314" d="M-186.678,225.944c-.136,4.14-.67,4.969-3,4.969v5.206h.867c5.8,0,7.2-3,7.415-9.662l.236-7.375h5.443V236.12h5.679v-22.2h-16.249Z" transform="translate(-66.602 -19.788)" fill="#ef3124"/>
    <path id="Контур_1315" data-name="Контур 1315" d="M-103.945,220.659h-4.1v-6.744h-5.679v22.2h9.86c6.192,0,8.4-4.023,8.4-7.809,0-4.89-3.076-7.651-8.479-7.651m-.434,10.57h-3.668v-5.64h3.668c1.972,0,3.155.868,3.155,2.721,0,2.011-1.144,2.918-3.155,2.918" transform="translate(-118.576 -19.787)" fill="#ef3124"/>
    <path id="Контур_1316" data-name="Контур 1316" d="M-33.2,194.423V186.18h-5.679v8.243c-6.507.552-10.885,5.167-10.885,11.6,0,6.468,4.378,11.082,10.885,11.634v8.362H-33.2v-8.362c6.507-.513,10.885-5.166,10.885-11.634s-4.378-11.082-10.885-11.6m-5.679,17.866c-3.155-.434-5.127-2.8-5.127-6.271s1.972-5.836,5.127-6.27Zm5.679,0V199.747c3.155.434,5.127,2.8,5.127,6.27s-1.972,5.837-5.127,6.271" transform="translate(-162.35 -0.807)" fill="#ef3124"/>
    <path id="Контур_1317" data-name="Контур 1317" d="M62.682,227.244V219.79c0-5.443-3.471-8.874-9.307-8.874-6.034,0-9.229,3.629-9.5,7.415h5.758c.2-.828,1.065-2.248,3.747-2.248,2.208,0,3.628,1.025,3.628,3.707h-5.64c-5.048,0-8.046,2.642-8.046,7.059,0,4.615,3.279,7.77,8.006,7.77a7.209,7.209,0,0,0,6.231-2.879c.749,1.5,2.406,2.327,4.575,2.327H64.1V228.94c-1.025,0-1.42-.473-1.42-1.7M57,225.785a3.871,3.871,0,0,1-4.181,4.023c-2.051,0-3.668-.749-3.668-2.958,0-2.169,1.774-2.524,3.313-2.524H57Z" transform="translate(-226.045 -17.735)" fill="#ef3124"/>
    <path id="Контур_1318" data-name="Контур 1318" d="M155.071,198.09h-6.349V191.82h14.71v-5.64H142.766v30.959h12.3c6.823,0,10.727-3.392,10.727-9.623,0-5.876-3.9-9.426-10.727-9.426m-.276,13.449h-6.073v-8.046h6.073c3.155,0,4.93,1.459,4.93,4.023,0,2.643-1.775,4.023-4.93,4.023" transform="translate(-294.1 -0.807)" fill="#ef3124"/>
    <path id="Контур_1319" data-name="Контур 1319" d="M242.588,227.244V219.79c0-5.443-3.471-8.874-9.307-8.874-6.034,0-9.229,3.629-9.5,7.415h5.758c.2-.828,1.065-2.248,3.747-2.248,2.208,0,3.628,1.025,3.628,3.707h-5.64c-5.048,0-8.046,2.642-8.046,7.059,0,4.615,3.279,7.77,8.006,7.77a7.209,7.209,0,0,0,6.231-2.879c.749,1.5,2.406,2.327,4.575,2.327h1.972V228.94c-1.026,0-1.42-.473-1.42-1.7m-5.679-1.459a3.871,3.871,0,0,1-4.18,4.023c-2.051,0-3.668-.749-3.668-2.958,0-2.169,1.775-2.524,3.313-2.524h4.536Z" transform="translate(-349.16 -17.735)" fill="#ef3124"/>
    <rect id="Прямоугольник_246" data-name="Прямоугольник 246" width="30.368" height="6.31" transform="translate(-287 225.797)" fill="#ef3124"/>
    <path id="Контур_1320" data-name="Контур 1320" d="M-264.928,189.622c-.866-2.582-1.864-4.622-5.283-4.622s-4.482,2.031-5.393,4.622l-9.4,26.71h6.231l2.169-6.349h11.989l2.011,6.349h6.626Zm-9.858,15,4.259-12.66h.158l4.023,12.66Z" transform="translate(-1.368)" fill="#ef3124"/>
    <rect id="Прямоугольник_247" data-name="Прямоугольник 247" width="230" height="47.107" transform="translate(-287 185)" fill="none"/>
  </g>
</svg>
