<svg xmlns="http://www.w3.org/2000/svg" width="170.116" height="107.017" viewBox="0 0 170.116 107.017">
  <path id="Контур_1287" data-name="Контур 1287" d="M13.611,151.948a2.478,2.478,0,0,0,2.413-3.041c-.233-.994-.717-3.062-.037-3.952.485-.634,1.772-1.019,3.625-1.084,7.357-.258,9.613-3.658,11.795-6.945a20.038,20.038,0,0,1,4.579-5.289c2.167-1.679,3.1-1.711,3.247-1.7.137.145,1.1,1.386.747,6.843-.188,2.863.365,4.966,1.689,6.429,1.853,2.048,4.552,2.14,6.721,2.214a12.115,12.115,0,0,1,2.566.251,14.022,14.022,0,0,0,5.438.252c.915-.092,1.861-.186,2.061.033a4.337,4.337,0,0,0,3.358,1.575c2.336-.064,3.92-1.994,6.316-4.916l.683-.831a1.824,1.824,0,0,1,.276-.281,8.571,8.571,0,0,1,1.615.851c1.83,1.112,4.6,2.794,8.043,1.318a12.76,12.76,0,0,0,6.63-5.4c.672-.93,1.509-2.088,2.782-3.606,2.243-2.674,5.488-3.452,6.827-2.832.212.1.857.4.552,2.183-.436,2.553.056,4.475,1.463,5.711,2.437,2.141,6.236.975,9.011.123a17.311,17.311,0,0,1,1.668-.463,7.619,7.619,0,0,1,1.442.273c2.4.593,7.4,1.824,9.874-5.258,1.673-4.779,2.9-4.959,6.533-5.493.386-.057.786-.116,1.2-.182,8.063-1.29,9.569-6.57,10.78-10.812a27.559,27.559,0,0,1,1.12-3.384c.737-1.7,2.1-2.574,3.822-3.68,2.214-1.42,4.97-3.187,6.13-7.134a5.106,5.106,0,0,1,3.008-3.258,8.606,8.606,0,0,1-.715,2.643c-1.863,4.571-2.246,7.1-1.367,9a5.09,5.09,0,0,0,3.38,2.6,4.374,4.374,0,0,1,.892.356s.015.013.043.044a2.476,2.476,0,0,0,3.7-3.292,5.16,5.16,0,0,0-.907-.812,8.049,8.049,0,0,0-2.169-1c-.135-.045-.3-.1-.433-.148a15.666,15.666,0,0,1,1.448-4.885c1.447-3.551,1.443-6.238-.012-7.986a4.626,4.626,0,0,0-4.661-1.422,9.936,9.936,0,0,0-6.958,6.756c-.64,2.174-2.071,3.093-4.053,4.364-2.042,1.309-4.356,2.793-5.693,5.879a31.725,31.725,0,0,0-1.338,3.994c-1.115,3.908-1.851,6.489-6.8,7.281-.393.063-.772.119-1.138.172-4.024.591-7.825,1.149-10.488,8.757-.991,2.833-1.692,2.66-4.014,2.086a8.551,8.551,0,0,0-3.356-.363,17.756,17.756,0,0,0-2.394.627,15,15,0,0,1-4.208.872,4.031,4.031,0,0,1,.069-1.139c.591-3.458-.663-6.266-3.353-7.511-3.726-1.725-9.306.1-12.7,4.144-1.388,1.655-2.283,2.893-3,3.888-1.516,2.1-1.876,2.595-4.568,3.749-1,.429-1.8.047-3.519-1-1.7-1.033-5.234-3.182-8.282.508q-.36.436-.694.844a34.643,34.643,0,0,1-2.486,2.84c-1.83-1.728-4.084-1.5-5.915-1.318a9.537,9.537,0,0,1-3.616-.1,15.727,15.727,0,0,0-3.725-.43c-1.3-.044-2.772-.095-3.218-.588-.169-.186-.548-.831-.42-2.782.265-4.048.2-9.649-3.37-11.549-3.439-1.827-7.323,1.181-8.6,2.17a24.807,24.807,0,0,0-5.671,6.465c-1.954,2.944-3.03,4.566-7.842,4.735-3.458.121-5.943,1.139-7.385,3.024-2.1,2.748-1.257,6.355-.852,8.089a2.477,2.477,0,0,0,2.409,1.912Zm150.484-15.5c-.7-.863-1.38-1.641-2.041-2.394-3-3.416-3.9-4.7-3.027-6.832a13.32,13.32,0,0,0,.518-1.542,2.476,2.476,0,1,0-4.779-1.3,8.482,8.482,0,0,1-.325.97c-2.1,5.147.947,8.615,3.891,11.969.628.715,1.277,1.454,1.91,2.238a20.715,20.715,0,0,1,3.818,9.207c-5.122-1.331-7.982-3.706-8.506-7.069l-.137-.893c-.6-3.968-1.228-8.07-4.706-8.939a8.179,8.179,0,0,0-6.855,1.765,6.287,6.287,0,0,0-2.222,5.476c.06.666.15,1.365.245,2.1.331,2.582.832,6.485-.609,7.47-3.562,2.438-3.945,6.229-4.35,10.242-.087.868-.178,1.767-.3,2.7-.353,2.649.6,4.056,1.459,4.769,2.167,1.8,5.275.769,7.771-.057.556-.184,1.08-.357,1.467-.454.9-.224,2.162,1.359,3.977,4.988a28.289,28.289,0,0,0,1.64,2.776c1.717,2.653,3.074,4.749,1.549,11.9-.665,3.12-1.63,4.14-1.94,4.307a1.634,1.634,0,0,1-.4-1.7c1.1-3.572,1.073-6.344-.079-8.238a4.848,4.848,0,0,0-3.374-2.29,3.752,3.752,0,0,0-3.418.751c-.258.206-.944.753-4.4,1.343-3.882.663-4.633.047-6.448-1.441a23.2,23.2,0,0,0-3.275-2.338c-2.412-1.391-4.162-1.014-5.206-.453-3.056,1.645-3.487,6.326-3.937,13.826a3.081,3.081,0,0,1-.638,2.073c-.788.637-3.3.255-5.313-.052a20.726,20.726,0,0,0-7.582-.211,12.7,12.7,0,0,1-7.758-.811,9.637,9.637,0,0,0-3.238-.78c-2.587,0-3.3,2.512-3.607,3.585a5.712,5.712,0,0,1-.462,1.269,3.539,3.539,0,0,1-1.563-.3c-5.01-1.76-8,.117-9.984,1.359a4.876,4.876,0,0,1-2.385,1.048c-2.23,0-7.57-.566-8.987-5.812s-5.519-5.66-7.721-5.875c-.241-.023-.532-.052-.775-.085-.884-5.154-6.245-5.4-12.968-5.716-4.44-.207-6.486.989-7.062,4.128-.02.109-.045.245-.067.34a2.653,2.653,0,0,1-.549.188c-3.123.78-6.335-3.167-6.723-4.365-.66-2.039-2.958-5.247-10.942-3.822-4.445.794-4.733,5.138-4.887,7.471-.023.344-.052.788-.094,1.156-3.009.262-4.4,3.408-5.34,5.66a11.94,11.94,0,0,0-6.046-7.564c-1.045-.578-2.3-1.53-2.364-2.788a2.37,2.37,0,0,1,.517-1.552c1.825.046,7.223-.12,9.472-3.527.943-1.429,1.645-3.9-.37-7.56a8.793,8.793,0,0,1-1.038-5.752,2.476,2.476,0,1,0-4.9-.74,13.757,13.757,0,0,0,1.6,8.881c.623,1.131.838,2.044.575,2.443-.7,1.056-3.979,1.445-5.462,1.3-2.323-.232-4.32,2.027-5.02,4.271-.425,1.365-1.352,6.074,4.595,9.36,2.947,1.628,3.463,3.675,3.963,5.654.4,1.572,1,3.947,3.542,4.457,3.171.634,4.53-2.629,5.429-4.788a11.857,11.857,0,0,1,1.442-2.8,3.785,3.785,0,0,0,2.755-.873c1.442-1.226,1.571-3.18,1.685-4.9.16-2.421.372-2.845.816-2.924,3.587-.64,5.191-.051,5.36.472,1.1,3.392,6.554,9.164,12.635,7.644,3.638-.909,4.075-3.293,4.286-4.438l0-.015a9.352,9.352,0,0,1,1.959-.061,35.29,35.29,0,0,1,7.319.776c.955.306.977.53,1.031,1.073.347,3.467,3.586,3.783,5.143,3.935,2.058.2,2.913.357,3.422,2.238,2.375,8.789,11.138,9.472,13.768,9.472a9.2,9.2,0,0,0,5.016-1.805c1.777-1.115,2.951-1.851,5.71-.882,2.224.781,4.024.79,5.5.025a6.064,6.064,0,0,0,2.836-3.991c.171.06.342.121.5.177a17.406,17.406,0,0,0,10.539.979,17.081,17.081,0,0,1,5.734.279c3.287.5,6.685,1.017,9.172-.993a7.45,7.45,0,0,0,2.467-5.627c.175-2.907.49-8.163,1.284-9.6a3.691,3.691,0,0,1,.441.221,18.547,18.547,0,0,1,2.611,1.88c2.606,2.135,4.738,3.462,10.42,2.492,3.684-.629,5.228-1.343,6.185-2,.152.408.274,1.652-.478,4.1a6.646,6.646,0,0,0,1.522,6.558,4.947,4.947,0,0,0,4.954,1.377c1.814-.529,4.231-2.356,5.444-8.049,1.952-9.157-.177-12.446-2.235-15.626a23.771,23.771,0,0,1-1.368-2.3c-1.659-3.318-4.436-8.87-9.608-7.578-.565.141-1.175.343-1.821.556a20.406,20.406,0,0,1-2.782.772c0-.04.009-.083.016-.128.134-1.008.229-1.946.321-2.854.376-3.724.627-5.562,2.219-6.652,3.941-2.7,3.238-8.181,2.725-12.186-.089-.694-.173-1.349-.225-1.924a1.352,1.352,0,0,1,.511-1.267,3.52,3.52,0,0,1,2.306-.743c.494.67.88,3.2,1.138,4.9l.14.911c.624,4.006,3.468,9.239,13.471,11.413a3.739,3.739,0,0,0,4.156-1.661c2.3-3.718-1.41-12.319-4.192-15.764Z" transform="translate(0.591 -94.922)" fill="#84ffe8" stroke="#19b99b" stroke-width="1"/>
</svg>
