<svg xmlns="http://www.w3.org/2000/svg" width="283.951" height="603.262" viewBox="0 0 283.951 603.262">
  <path id="Вычитание_1" data-name="Вычитание 1" d="M282.258,634.308h-.078a1.908,1.908,0,0,1-1.264-.55L198.681,552.41a2.031,2.031,0,0,1-.187-.2,1.876,1.876,0,0,1-.264-.442l-17.052-40.133a1.86,1.86,0,0,1-.14-.543.069.069,0,0,1,0-.014,1.912,1.912,0,0,1,.046-.651l8.523-41.256V459.122a1.888,1.888,0,0,1,.187-.821L208.5,418.948l10.491-58.6-4.925-7.891a1.99,1.99,0,0,1-.216-.5l-4.5-16.089L194.885,332.3l-34.92-3.308a1.9,1.9,0,0,1-1.067-.455l-27.313-23.621a1.9,1.9,0,0,1-.418-.515l-25.237-45.319a1.9,1.9,0,0,1-.136-1.75l0-.006,0-.007,0-.007a1.91,1.91,0,0,1,1.739-1.148c.051,0,.1,0,.153.006a1.946,1.946,0,0,1,.349.058L181.4,271.889a2.212,2.212,0,0,1,.3.089l36.348,14.262.733-4.718L207,274.007,163.194,258.3a2.052,2.052,0,0,1-.259-.116L84.17,223.094l-.023-.011-.023-.011a1.9,1.9,0,0,1-.6-.447L42.915,182.29a1.894,1.894,0,0,1-.47-.76L26.944,134.2l-8.3-44.708L1.973,64.065a1.909,1.909,0,0,1-.31-.924L0,36.845A1.91,1.91,0,0,1,3.558,35.76L18.789,61.872,29.58,67.76l-2.106-7.551a1.885,1.885,0,0,1,0-1.011l3.6-13.285A1.933,1.933,0,0,1,32.95,44.5H33a1.917,1.917,0,0,1,1.789,1.58L36.934,58.4l5.6,8.065L54.6,58.259l19.21-22.231a1.878,1.878,0,0,1,.895-.578l11.075-3.322a1.907,1.907,0,0,1,2.208,2.767L77.2,53.994,62.942,88.88,68.867,92.9l19-1.3,18.562-13.517a1.908,1.908,0,0,1,2.849,2.357L96.088,108.4a1.972,1.972,0,0,1-.211.342,1.908,1.908,0,0,1-.294.307L69.251,132.4l-4.43,21.366L88.786,195.5l64.061,28.667-16.809-14.087a1.906,1.906,0,0,1-.642-1.067l-6.617-31.167a1.9,1.9,0,0,1,.046-1.163l9.021-28.155V136.094a1.906,1.906,0,0,1,1.547-1.871,1.938,1.938,0,0,1,.357-.033,1.9,1.9,0,0,1,1.776,1.2l4.4,11a1.913,1.913,0,0,1,.163.958l-1.9,34.134L163,207.534l44.489,32.828L182.041,209.3a1.851,1.851,0,0,1-.173-.236l0-.006,0-.005a1.862,1.862,0,0,1-.149-.3l0,0a1.988,1.988,0,0,1-.081-.263l-8.564-31.762c-.011-.039-.019-.078-.027-.117l0-.011a.144.144,0,0,0,0-.019.033.033,0,0,0,0-.009,1.924,1.924,0,0,1,.036-.841v-.01a.081.081,0,0,0,0-.014,1.778,1.778,0,0,1,.071-.2l15.377-37.347,1.089-18.507a1.92,1.92,0,0,1,1.615-1.775,1.965,1.965,0,0,1,.284-.021,1.9,1.9,0,0,1,1.789,1.225l6.9,17.933a1.912,1.912,0,0,1,.065,1.312l-10.315,37.734L202,202.037l33.872,39.379.014.017.015.018a1.894,1.894,0,0,1,.22.335L249.5,264.424l7.8-3.822a1.9,1.9,0,0,1,2.062.25l6.761,5.646h16.833v3.818H267.437l4,74.426L282.949,355.1v4.836a1.914,1.914,0,0,1-.814-.432l-11.291-10.162-4.812,26.723,4.84,9.6,4.35,3.452h7.727v3.819h-8.392a1.925,1.925,0,0,1-1.189-.414l-5.11-4.059a1.971,1.971,0,0,1-.174-.139l-.265-.21-8.893,5.768-.4,13.644h12.777a1.913,1.913,0,0,1,1.876,1.555l1.432,7.576h8.335v3.819H272.924a1.9,1.9,0,0,1-.815-.235l-15.952-8.845-10.665,1.022.142,8.546,8.515,6.265h28.8v3.818H257.918l14.7,15.739h10.33v187.4a1.917,1.917,0,0,1-.656.128h-.035Zm-46.12-160.851-33.876,77.127L278.5,626Zm17.965-40.9-15.537,35.372L280.349,618.38V450.6h-8.562a1.926,1.926,0,0,1-1.394-.6Zm-15.939-30.632-53.132,109.01,14.985,35.273,34.748-79.117c.018-.047.039-.1.064-.147l16.328-37.177-8.546-6.291a1.9,1.9,0,0,1-.779-1.507l-.179-10.921Zm-4.014-10.5h0l-40.817,78.579-5.45,26.365L236.3,397.039l-2.146-5.611Zm-5.038-13.179-16.995,41.982c-.014.038-.031.079-.053.128l-18.641,39.192v2l38.9-74.893Zm34.834,33.1,6.456,3.579-.676-3.579Zm-13.956-21.431-4.018,18.617,8.734-.836.4-13.936ZM244.5,343.941h0l-8.994,2.528a1.892,1.892,0,0,1-.434.748l-11.889,12.632,7.6,12.177c.008.012.015.025.023.038.021.036.04.071.063.116a1.8,1.8,0,0,1,.078.174L243.044,404l3.824-17.711a1.925,1.925,0,0,1,.82-1.274l13.847-9.279L244.5,343.941Zm-22.492,21.237-6.563,36.654,11.582-28.612Zm41.3,13.967-11.257,7.542,5.077,3.811,8.973-5.819Zm2.993-58.874L248.434,343.2l14.7,27.422,4.524-25.114Zm-52.759,16.39,3.915,14.006,3.639,5.83,9.95-10.571-8.732-7.8c-.047,0-.093-.011-.132-.017Zm17.474-12.182,2.394,7.865a1.881,1.881,0,0,1,.074.754L244.7,341.78l3.373-4.328Zm26.847-59.9h0l-8.24,4.038-.012.006-.018.009-19.678,9.644-7.323,3.589-1.019,6.563,6.758,9.706a1.9,1.9,0,0,1,.343,1.014l.777,19.343,20.969,15.948,15.569-19.976-2.425-45.122-5.7-4.762Zm-31.406,58.037-12.328,10.276,8.68,1.449c.063.011.126.024.187.04L229.315,332l-2.86-9.391ZM112.341,262.745l22,39.5,26.6,23,34.455,3.263a2.292,2.292,0,0,1,.275.049l10.408,2.57-24.4-31.886-69.333-36.494Zm8.361.088h0l63.121,33.221a1.922,1.922,0,0,1,.63.529l26.192,34.237,14.976-12.483-.744-18.483-6.546-9.4-37.883-14.863L120.7,262.832Zm85.979-49.491h0L222.62,251.9a1.9,1.9,0,0,1,.146.731v24.895l8.5-4.167,1.213-30.019-25.8-30Zm-42.036.156,4.547,19.679,39.829,37.585,9.926,6.339V253.006l-.06-.147a1.938,1.938,0,0,1-.246.016,1.9,1.9,0,0,1-1.133-.372Zm71.421,35.7-.9,22.247,2.9-1.424,7.987-3.915ZM101.052,205.172h0l63.73,49.644L199.9,267.4l-33.712-31.813c-.03-.027-.058-.054-.086-.082l-2.39-2.254c-.027-.026-.053-.052-.078-.079l-62.583-28Zm-30.581-33.9h0L86.5,219.951l63.809,28.432L86.266,198.5a1.9,1.9,0,0,1-.513-.61L70.471,171.27Zm118.442,11.642L185.495,207.5l29.55,36.068-16.423-39.731ZM143.3,186.766h0l-3.955,21.1,24.9,20.869-4.4-19.045L143.3,186.766ZM58.91,153.545,46.155,179.907c-.021.043-.045.088-.076.141l34.565,34.335L61.178,155.253Zm82.8,3.792-9.089,20.214,4.531,21.33,3.2-17.071Zm51.34-7.108-16.08,26.3,5.926,21.987,3.135-22.545c.007-.047.015-.1.026-.148l0-.016c.006-.025.012-.051.019-.075ZM87.881,110.775l-46.2,8.9L45.786,171.9l20.005-41.345a1.975,1.975,0,0,1,.146-.25.081.081,0,0,0,.01-.014l.006-.008a1.936,1.936,0,0,1,.289-.324Zm-63.816-13h0l6.571,35.483,10.892,33.217-3.752-47.723ZM192.9,128.689h0l-.589,10.007a1.9,1.9,0,0,1-.138.616L185.837,154.7l10.48-17.139ZM62.51,146.105l-1.9,3.937.941.708Zm79.154-.1h0v2.109l.446-.994ZM102.639,85.568,89.67,95.01a1.879,1.879,0,0,1-.992.362L69.046,96.716l-23.916,18.4,47.915-9.224ZM4.322,44.65h0L5.441,62.394,21.989,87.627c.019.026.042.057.063.09l16.617,25.419,5.071-17.792L15.989,64.576a1.912,1.912,0,0,1-.23-.316Zm78.017-7.5-6,1.8L57.6,60.623,51.491,82.071a1.632,1.632,0,0,1-.05.173L47.718,95.31c-.01.04-.022.083-.037.129l-4.706,16.513,22.108-17-5.564-3.775a1.917,1.917,0,0,1-.7-2.3L73.77,52.331ZM26.325,70.332h0l18.65,20.679,2.417-8.482-15.73-9.284-.011-.007-.031-.019Zm26.281-6.1L43.12,70.687a1.935,1.935,0,0,1-.571.264L37.906,72.5l10.567,6.238ZM32.5,55.217h0l-1.212,4.474L34.1,69.742,39.02,68.1l-5.465-7.871a1.961,1.961,0,0,1-.313-.76L32.5,55.217Z" transform="translate(0.502 -31.547)" fill="#f8f8f8" stroke="rgba(0,0,0,0)" stroke-miterlimit="10" stroke-width="1"/>
</svg>
